<svg width="1445" height="900" viewBox="0 0 1445 900" fill="none" xmlns="http://www.w3.org/2000/svg">
<path d="M144.48 900V0M288.97 900V0M433.45 900V0M577.93 900V0M722.41 900V0M866.9 900V0M1011.38 900V0M1155.86 900V0M1300.35 900V0M1444.3 86.35H0M1444.3 230.61H0M1444.3 374.87H0M1444.3 519.13H0M1444.3 663.39H0M1444.3 807.65H0" stroke="#0000FF" stroke-miterlimit="10"/>
<path d="M319.025 574.42V564.398H322.785C323.551 564.398 324.164 564.501 324.624 564.706C325.089 564.907 325.451 565.219 325.711 565.643C325.975 566.062 326.107 566.502 326.107 566.962C326.107 567.39 325.991 567.794 325.759 568.172C325.526 568.55 325.175 568.855 324.706 569.088C325.312 569.266 325.777 569.569 326.101 569.997C326.429 570.425 326.593 570.931 326.593 571.515C326.593 571.984 326.493 572.422 326.292 572.827C326.096 573.228 325.852 573.538 325.561 573.757C325.269 573.976 324.902 574.142 324.46 574.256C324.022 574.365 323.485 574.42 322.847 574.42H319.025ZM320.352 568.609H322.519C323.106 568.609 323.528 568.571 323.783 568.493C324.12 568.393 324.373 568.227 324.542 567.994C324.715 567.762 324.802 567.47 324.802 567.119C324.802 566.786 324.722 566.495 324.562 566.244C324.403 565.989 324.175 565.816 323.879 565.725C323.583 565.629 323.075 565.581 322.354 565.581H320.352V568.609ZM320.352 573.237H322.847C323.275 573.237 323.576 573.221 323.749 573.189C324.054 573.135 324.31 573.044 324.515 572.916C324.72 572.788 324.888 572.604 325.021 572.362C325.153 572.116 325.219 571.834 325.219 571.515C325.219 571.141 325.123 570.817 324.932 570.544C324.74 570.266 324.474 570.072 324.132 569.963C323.795 569.849 323.307 569.792 322.669 569.792H320.352V573.237Z" fill="#0000FF"/>
<path d="M332.998 573.524C332.542 573.912 332.103 574.185 331.679 574.345C331.259 574.504 330.808 574.584 330.325 574.584C329.528 574.584 328.915 574.39 328.486 574.003C328.058 573.611 327.844 573.112 327.844 572.506C327.844 572.15 327.924 571.827 328.083 571.535C328.247 571.239 328.459 571.002 328.719 570.824C328.983 570.646 329.279 570.512 329.607 570.421C329.849 570.357 330.214 570.296 330.701 570.236C331.695 570.118 332.426 569.977 332.896 569.812C332.9 569.644 332.902 569.537 332.902 569.491C332.902 568.99 332.786 568.637 332.554 568.432C332.239 568.154 331.772 568.015 331.152 568.015C330.574 568.015 330.145 568.117 329.867 568.322C329.594 568.523 329.391 568.881 329.259 569.396L328.056 569.231C328.165 568.716 328.345 568.302 328.596 567.987C328.846 567.668 329.209 567.424 329.683 567.256C330.157 567.083 330.706 566.996 331.33 566.996C331.95 566.996 332.453 567.069 332.841 567.215C333.228 567.361 333.513 567.545 333.695 567.769C333.878 567.987 334.005 568.265 334.078 568.603C334.119 568.812 334.14 569.19 334.14 569.737V571.378C334.14 572.522 334.165 573.246 334.215 573.552C334.27 573.853 334.374 574.142 334.529 574.42H333.244C333.117 574.165 333.035 573.866 332.998 573.524ZM332.896 570.776C332.449 570.959 331.779 571.114 330.886 571.241C330.38 571.314 330.022 571.396 329.812 571.487C329.603 571.578 329.441 571.713 329.327 571.891C329.213 572.064 329.156 572.257 329.156 572.472C329.156 572.8 329.279 573.073 329.525 573.292C329.776 573.511 330.141 573.62 330.619 573.62C331.093 573.62 331.515 573.518 331.884 573.312C332.253 573.103 332.524 572.818 332.697 572.458C332.829 572.18 332.896 571.77 332.896 571.228V570.776Z" fill="#0000FF"/>
<path d="M336.04 574.42V567.16H337.147V568.261C337.43 567.746 337.69 567.406 337.927 567.242C338.168 567.078 338.433 566.996 338.72 566.996C339.134 566.996 339.556 567.128 339.984 567.393L339.561 568.534C339.26 568.356 338.959 568.268 338.658 568.268C338.389 568.268 338.148 568.35 337.934 568.514C337.719 568.673 337.567 568.896 337.476 569.184C337.339 569.621 337.271 570.1 337.271 570.619V574.42H336.04Z" fill="#0000FF"/>
<path d="M340.702 574.42V567.16H341.81V568.261C342.092 567.746 342.352 567.406 342.589 567.242C342.83 567.078 343.095 566.996 343.382 566.996C343.797 566.996 344.218 567.128 344.646 567.393L344.223 568.534C343.922 568.356 343.621 568.268 343.32 568.268C343.051 568.268 342.81 568.35 342.596 568.514C342.382 568.673 342.229 568.896 342.138 569.184C342.001 569.621 341.933 570.1 341.933 570.619V574.42H340.702Z" fill="#0000FF"/>
<path d="M345.385 565.813V564.398H346.615V565.813H345.385ZM345.385 574.42V567.16H346.615V574.42H345.385Z" fill="#0000FF"/>
<path d="M348.037 570.79C348.037 569.446 348.411 568.45 349.158 567.803C349.783 567.265 350.544 566.996 351.441 566.996C352.439 566.996 353.255 567.324 353.889 567.98C354.522 568.632 354.839 569.535 354.839 570.688C354.839 571.622 354.698 572.358 354.415 572.896C354.137 573.429 353.729 573.843 353.191 574.14C352.658 574.436 352.075 574.584 351.441 574.584C350.425 574.584 349.603 574.258 348.974 573.606C348.349 572.955 348.037 572.016 348.037 570.79ZM349.302 570.79C349.302 571.72 349.505 572.417 349.91 572.882C350.316 573.342 350.826 573.572 351.441 573.572C352.052 573.572 352.56 573.34 352.966 572.875C353.371 572.41 353.574 571.701 353.574 570.749C353.574 569.851 353.369 569.172 352.959 568.712C352.553 568.247 352.048 568.015 351.441 568.015C350.826 568.015 350.316 568.245 349.91 568.705C349.505 569.165 349.302 569.86 349.302 570.79Z" fill="#0000FF"/>
<path d="M359.891 571.2L361.142 571.091C361.201 571.592 361.338 572.005 361.552 572.328C361.771 572.647 362.108 572.907 362.563 573.107C363.019 573.303 363.532 573.401 364.102 573.401C364.607 573.401 365.054 573.326 365.441 573.176C365.829 573.025 366.116 572.82 366.303 572.561C366.494 572.296 366.59 572.009 366.59 571.699C366.59 571.385 366.499 571.111 366.316 570.879C366.134 570.642 365.833 570.444 365.414 570.284C365.145 570.179 364.55 570.018 363.63 569.799C362.709 569.576 362.064 569.366 361.695 569.17C361.217 568.919 360.859 568.609 360.622 568.24C360.39 567.867 360.273 567.45 360.273 566.989C360.273 566.483 360.417 566.012 360.704 565.574C360.991 565.132 361.41 564.797 361.962 564.569C362.513 564.341 363.126 564.228 363.801 564.228C364.544 564.228 365.198 564.348 365.763 564.59C366.332 564.827 366.77 565.178 367.075 565.643C367.381 566.107 367.545 566.634 367.567 567.222L366.296 567.317C366.228 566.684 365.995 566.205 365.599 565.882C365.207 565.558 364.626 565.396 363.855 565.396C363.053 565.396 362.468 565.545 362.099 565.841C361.734 566.132 361.552 566.486 361.552 566.9C361.552 567.26 361.682 567.557 361.941 567.789C362.197 568.021 362.862 568.261 363.938 568.507C365.018 568.748 365.758 568.96 366.159 569.143C366.743 569.411 367.173 569.753 367.451 570.168C367.729 570.578 367.868 571.052 367.868 571.59C367.868 572.123 367.715 572.627 367.41 573.101C367.105 573.57 366.665 573.937 366.091 574.201C365.521 574.461 364.879 574.591 364.163 574.591C363.256 574.591 362.495 574.459 361.88 574.194C361.269 573.93 360.788 573.534 360.438 573.005C360.091 572.472 359.909 571.87 359.891 571.2Z" fill="#0000FF"/>
<path d="M374.26 573.524C373.804 573.912 373.364 574.185 372.94 574.345C372.521 574.504 372.07 574.584 371.587 574.584C370.789 574.584 370.176 574.39 369.748 574.003C369.32 573.611 369.105 573.112 369.105 572.506C369.105 572.15 369.185 571.827 369.345 571.535C369.509 571.239 369.721 571.002 369.98 570.824C370.245 570.646 370.541 570.512 370.869 570.421C371.111 570.357 371.475 570.296 371.963 570.236C372.956 570.118 373.688 569.977 374.157 569.812C374.162 569.644 374.164 569.537 374.164 569.491C374.164 568.99 374.048 568.637 373.815 568.432C373.501 568.154 373.034 568.015 372.414 568.015C371.835 568.015 371.407 568.117 371.129 568.322C370.855 568.523 370.653 568.881 370.521 569.396L369.317 569.231C369.427 568.716 369.607 568.302 369.857 567.987C370.108 567.668 370.47 567.424 370.944 567.256C371.418 567.083 371.967 566.996 372.592 566.996C373.212 566.996 373.715 567.069 374.103 567.215C374.49 567.361 374.775 567.545 374.957 567.769C375.139 567.987 375.267 568.265 375.34 568.603C375.381 568.812 375.401 569.19 375.401 569.737V571.378C375.401 572.522 375.426 573.246 375.477 573.552C375.531 573.853 375.636 574.142 375.791 574.42H374.506C374.378 574.165 374.296 573.866 374.26 573.524ZM374.157 570.776C373.711 570.959 373.041 571.114 372.147 571.241C371.642 571.314 371.284 571.396 371.074 571.487C370.865 571.578 370.703 571.713 370.589 571.891C370.475 572.064 370.418 572.257 370.418 572.472C370.418 572.8 370.541 573.073 370.787 573.292C371.038 573.511 371.402 573.62 371.881 573.62C372.355 573.62 372.776 573.518 373.146 573.312C373.515 573.103 373.786 572.818 373.959 572.458C374.091 572.18 374.157 571.77 374.157 571.228V570.776Z" fill="#0000FF"/>
<path d="M377.315 574.42V567.16H378.423V568.192C378.956 567.395 379.726 566.996 380.733 566.996C381.171 566.996 381.572 567.076 381.937 567.235C382.306 567.39 382.581 567.595 382.764 567.851C382.946 568.106 383.074 568.409 383.146 568.76C383.192 568.988 383.215 569.386 383.215 569.956V574.42H381.984V570.004C381.984 569.503 381.937 569.129 381.841 568.883C381.745 568.632 381.574 568.434 381.328 568.288C381.087 568.138 380.802 568.062 380.474 568.062C379.95 568.062 379.496 568.229 379.113 568.562C378.735 568.894 378.546 569.525 378.546 570.455V574.42H377.315Z" fill="#0000FF"/>
<path d="M387.795 573.319L387.973 574.406C387.626 574.479 387.316 574.516 387.043 574.516C386.596 574.516 386.25 574.445 386.004 574.304C385.758 574.162 385.585 573.978 385.484 573.75C385.384 573.518 385.334 573.032 385.334 572.294V568.117H384.432V567.16H385.334V565.362L386.558 564.624V567.16H387.795V568.117H386.558V572.362C386.558 572.713 386.578 572.939 386.619 573.039C386.665 573.139 386.735 573.219 386.831 573.278C386.931 573.338 387.073 573.367 387.255 573.367C387.392 573.367 387.572 573.351 387.795 573.319Z" fill="#0000FF"/>
<path d="M393.742 573.524C393.286 573.912 392.847 574.185 392.423 574.345C392.004 574.504 391.552 574.584 391.069 574.584C390.272 574.584 389.659 574.39 389.23 574.003C388.802 573.611 388.588 573.112 388.588 572.506C388.588 572.15 388.668 571.827 388.827 571.535C388.991 571.239 389.203 571.002 389.463 570.824C389.727 570.646 390.023 570.512 390.352 570.421C390.593 570.357 390.958 570.296 391.445 570.236C392.439 570.118 393.17 569.977 393.64 569.812C393.644 569.644 393.646 569.537 393.646 569.491C393.646 568.99 393.53 568.637 393.298 568.432C392.983 568.154 392.516 568.015 391.896 568.015C391.318 568.015 390.889 568.117 390.611 568.322C390.338 568.523 390.135 568.881 390.003 569.396L388.8 569.231C388.909 568.716 389.089 568.302 389.34 567.987C389.59 567.668 389.953 567.424 390.427 567.256C390.901 567.083 391.45 566.996 392.074 566.996C392.694 566.996 393.198 567.069 393.585 567.215C393.972 567.361 394.257 567.545 394.439 567.769C394.622 567.987 394.749 568.265 394.822 568.603C394.863 568.812 394.884 569.19 394.884 569.737V571.378C394.884 572.522 394.909 573.246 394.959 573.552C395.014 573.853 395.118 574.142 395.273 574.42H393.988C393.861 574.165 393.779 573.866 393.742 573.524ZM393.64 570.776C393.193 570.959 392.523 571.114 391.63 571.241C391.124 571.314 390.766 571.396 390.557 571.487C390.347 571.578 390.185 571.713 390.071 571.891C389.957 572.064 389.9 572.257 389.9 572.472C389.9 572.8 390.023 573.073 390.27 573.292C390.52 573.511 390.885 573.62 391.363 573.62C391.837 573.62 392.259 573.518 392.628 573.312C392.997 573.103 393.268 572.818 393.441 572.458C393.574 572.18 393.64 571.77 393.64 571.228V570.776Z" fill="#0000FF"/>
<path d="M397.092 574.42V568.117H396.005V567.16H397.092V566.388C397.092 565.9 397.135 565.538 397.222 565.301C397.34 564.982 397.548 564.724 397.844 564.528C398.145 564.328 398.564 564.228 399.102 564.228C399.448 564.228 399.831 564.269 400.25 564.351L400.065 565.424C399.81 565.378 399.569 565.355 399.341 565.355C398.967 565.355 398.703 565.435 398.548 565.595C398.393 565.754 398.315 566.053 398.315 566.49V567.16H399.73V568.117H398.315V574.42H397.092Z" fill="#0000FF"/>
<path d="M405.664 572.082L406.936 572.239C406.735 572.982 406.364 573.559 405.821 573.969C405.279 574.379 404.586 574.584 403.743 574.584C402.681 574.584 401.838 574.258 401.214 573.606C400.594 572.95 400.284 572.032 400.284 570.852C400.284 569.63 400.599 568.682 401.228 568.008C401.856 567.333 402.672 566.996 403.675 566.996C404.646 566.996 405.438 567.326 406.054 567.987C406.669 568.648 406.977 569.578 406.977 570.776C406.977 570.849 406.974 570.959 406.97 571.104H401.556C401.601 571.902 401.827 572.513 402.232 572.937C402.638 573.36 403.144 573.572 403.75 573.572C404.201 573.572 404.586 573.454 404.905 573.217C405.224 572.98 405.477 572.602 405.664 572.082ZM401.624 570.093H405.678C405.623 569.482 405.468 569.024 405.213 568.719C404.821 568.245 404.313 568.008 403.688 568.008C403.123 568.008 402.647 568.197 402.26 568.575C401.877 568.953 401.665 569.459 401.624 570.093ZM402.95 566.258L403.859 564.344H405.473L403.969 566.258H402.95Z" fill="#0000FF"/>
<path d="M744.1 177.2V167.179H747.88C748.546 167.179 749.054 167.21 749.405 167.274C749.897 167.356 750.309 167.513 750.642 167.746C750.975 167.974 751.241 168.295 751.442 168.71C751.647 169.124 751.75 169.58 751.75 170.077C751.75 170.929 751.478 171.652 750.936 172.244C750.394 172.832 749.414 173.126 747.997 173.126H745.426V177.2H744.1ZM745.426 171.943H748.017C748.874 171.943 749.482 171.784 749.842 171.465C750.202 171.146 750.382 170.697 750.382 170.118C750.382 169.699 750.275 169.341 750.061 169.045C749.851 168.744 749.573 168.546 749.227 168.45C749.004 168.391 748.591 168.361 747.99 168.361H745.426V171.943ZM753.253 177.2V167.179H754.484V177.2H753.253ZM761.135 176.305C760.68 176.692 760.24 176.965 759.816 177.125C759.397 177.284 758.945 177.364 758.462 177.364C757.665 177.364 757.052 177.17 756.624 176.783C756.195 176.391 755.981 175.892 755.981 175.286C755.981 174.93 756.061 174.607 756.22 174.315C756.384 174.019 756.596 173.782 756.856 173.604C757.12 173.427 757.417 173.292 757.745 173.201C757.986 173.137 758.351 173.076 758.838 173.016C759.832 172.898 760.563 172.757 761.033 172.593C761.037 172.424 761.04 172.317 761.04 172.271C761.04 171.77 760.923 171.417 760.691 171.212C760.376 170.934 759.909 170.795 759.29 170.795C758.711 170.795 758.282 170.897 758.004 171.102C757.731 171.303 757.528 171.661 757.396 172.176L756.193 172.012C756.302 171.497 756.482 171.082 756.733 170.767C756.984 170.448 757.346 170.205 757.82 170.036C758.294 169.863 758.843 169.776 759.467 169.776C760.087 169.776 760.591 169.849 760.978 169.995C761.365 170.141 761.65 170.325 761.833 170.549C762.015 170.767 762.142 171.045 762.215 171.383C762.256 171.592 762.277 171.971 762.277 172.517V174.158C762.277 175.302 762.302 176.027 762.352 176.332C762.407 176.633 762.512 176.922 762.667 177.2H761.381C761.254 176.945 761.172 176.646 761.135 176.305ZM761.033 173.556C760.586 173.739 759.916 173.894 759.023 174.021C758.517 174.094 758.159 174.176 757.95 174.267C757.74 174.359 757.578 174.493 757.464 174.671C757.35 174.844 757.293 175.038 757.293 175.252C757.293 175.58 757.417 175.853 757.663 176.072C757.913 176.291 758.278 176.4 758.756 176.4C759.23 176.4 759.652 176.298 760.021 176.093C760.39 175.883 760.661 175.598 760.834 175.238C760.967 174.96 761.033 174.55 761.033 174.008V173.556ZM763.542 177.2V176.202L768.163 170.897C767.639 170.925 767.176 170.938 766.775 170.938H763.815V169.94H769.749V170.754L765.818 175.361L765.059 176.202C765.611 176.161 766.128 176.14 766.611 176.14H769.967V177.2H763.542ZM775.928 176.305C775.472 176.692 775.033 176.965 774.609 177.125C774.19 177.284 773.738 177.364 773.255 177.364C772.458 177.364 771.845 177.17 771.417 176.783C770.988 176.391 770.774 175.892 770.774 175.286C770.774 174.93 770.854 174.607 771.013 174.315C771.177 174.019 771.389 173.782 771.649 173.604C771.913 173.427 772.209 173.292 772.538 173.201C772.779 173.137 773.144 173.076 773.631 173.016C774.625 172.898 775.356 172.757 775.826 172.593C775.83 172.424 775.833 172.317 775.833 172.271C775.833 171.77 775.716 171.417 775.484 171.212C775.169 170.934 774.702 170.795 774.083 170.795C773.504 170.795 773.075 170.897 772.797 171.102C772.524 171.303 772.321 171.661 772.189 172.176L770.986 172.012C771.095 171.497 771.275 171.082 771.526 170.767C771.777 170.448 772.139 170.205 772.613 170.036C773.087 169.863 773.636 169.776 774.26 169.776C774.88 169.776 775.384 169.849 775.771 169.995C776.158 170.141 776.443 170.325 776.625 170.549C776.808 170.767 776.935 171.045 777.008 171.383C777.049 171.592 777.07 171.971 777.07 172.517V174.158C777.07 175.302 777.095 176.027 777.145 176.332C777.2 176.633 777.305 176.922 777.459 177.2H776.174C776.047 176.945 775.965 176.646 775.928 176.305ZM775.826 173.556C775.379 173.739 774.709 173.894 773.816 174.021C773.31 174.094 772.952 174.176 772.743 174.267C772.533 174.359 772.371 174.493 772.257 174.671C772.143 174.844 772.086 175.038 772.086 175.252C772.086 175.58 772.209 175.853 772.456 176.072C772.706 176.291 773.071 176.4 773.549 176.4C774.023 176.4 774.445 176.298 774.814 176.093C775.183 175.883 775.454 175.598 775.627 175.238C775.76 174.96 775.826 174.55 775.826 174.008V173.556ZM787.59 177.2V176.284C787.13 177.004 786.453 177.364 785.56 177.364C784.981 177.364 784.448 177.205 783.96 176.886C783.477 176.567 783.101 176.122 782.833 175.553C782.568 174.978 782.436 174.32 782.436 173.577C782.436 172.852 782.557 172.196 782.798 171.608C783.04 171.016 783.402 170.562 783.885 170.248C784.368 169.933 784.908 169.776 785.505 169.776C785.943 169.776 786.333 169.87 786.674 170.056C787.016 170.239 787.294 170.478 787.508 170.774V167.179H788.732V177.2H787.59ZM783.701 173.577C783.701 174.507 783.897 175.202 784.289 175.662C784.681 176.122 785.143 176.352 785.676 176.352C786.214 176.352 786.67 176.134 787.043 175.696C787.422 175.254 787.611 174.582 787.611 173.68C787.611 172.686 787.419 171.957 787.037 171.492C786.654 171.027 786.182 170.795 785.622 170.795C785.075 170.795 784.617 171.018 784.248 171.465C783.883 171.911 783.701 172.615 783.701 173.577ZM795.643 174.862L796.915 175.019C796.714 175.762 796.343 176.339 795.8 176.749C795.258 177.159 794.565 177.364 793.722 177.364C792.66 177.364 791.817 177.038 791.193 176.387C790.573 175.73 790.263 174.812 790.263 173.632C790.263 172.41 790.578 171.462 791.207 170.788C791.835 170.113 792.651 169.776 793.654 169.776C794.625 169.776 795.417 170.107 796.033 170.767C796.648 171.428 796.956 172.358 796.956 173.556C796.956 173.629 796.953 173.739 796.949 173.885H791.535C791.58 174.682 791.806 175.293 792.211 175.717C792.617 176.14 793.123 176.352 793.729 176.352C794.18 176.352 794.565 176.234 794.884 175.997C795.203 175.76 795.456 175.382 795.643 174.862ZM791.603 172.873H795.657C795.602 172.262 795.447 171.804 795.192 171.499C794.8 171.025 794.292 170.788 793.667 170.788C793.102 170.788 792.626 170.977 792.239 171.355C791.856 171.734 791.644 172.239 791.603 172.873ZM802.465 177.2V167.179H806.225C806.991 167.179 807.604 167.281 808.064 167.486C808.529 167.687 808.891 167.999 809.151 168.423C809.415 168.842 809.547 169.282 809.547 169.742C809.547 170.17 809.431 170.574 809.199 170.952C808.966 171.33 808.615 171.636 808.146 171.868C808.752 172.046 809.217 172.349 809.541 172.777C809.869 173.206 810.033 173.711 810.033 174.295C810.033 174.764 809.932 175.202 809.732 175.607C809.536 176.008 809.292 176.318 809 176.537C808.709 176.756 808.342 176.922 807.9 177.036C807.462 177.145 806.925 177.2 806.287 177.2H802.465ZM803.792 171.389H805.958C806.546 171.389 806.968 171.351 807.223 171.273C807.56 171.173 807.813 171.007 807.982 170.774C808.155 170.542 808.242 170.25 808.242 169.899C808.242 169.567 808.162 169.275 808.002 169.024C807.843 168.769 807.615 168.596 807.319 168.505C807.023 168.409 806.514 168.361 805.794 168.361H803.792V171.389ZM803.792 176.017H806.287C806.715 176.017 807.016 176.001 807.189 175.97C807.494 175.915 807.75 175.824 807.955 175.696C808.16 175.569 808.328 175.384 808.46 175.142C808.593 174.896 808.659 174.614 808.659 174.295C808.659 173.921 808.563 173.597 808.372 173.324C808.18 173.046 807.914 172.852 807.572 172.743C807.235 172.629 806.747 172.572 806.109 172.572H803.792V176.017ZM811.243 173.57C811.243 172.226 811.616 171.23 812.364 170.583C812.988 170.045 813.749 169.776 814.647 169.776C815.645 169.776 816.461 170.104 817.094 170.761C817.728 171.412 818.044 172.315 818.044 173.468C818.044 174.402 817.903 175.138 817.621 175.676C817.343 176.209 816.935 176.624 816.397 176.92C815.864 177.216 815.28 177.364 814.647 177.364C813.631 177.364 812.808 177.038 812.179 176.387C811.555 175.735 811.243 174.796 811.243 173.57ZM812.507 173.57C812.507 174.5 812.71 175.197 813.116 175.662C813.521 176.122 814.032 176.352 814.647 176.352C815.258 176.352 815.766 176.12 816.171 175.655C816.577 175.19 816.78 174.482 816.78 173.529C816.78 172.631 816.575 171.952 816.165 171.492C815.759 171.027 815.253 170.795 814.647 170.795C814.032 170.795 813.521 171.025 813.116 171.485C812.71 171.945 812.507 172.64 812.507 173.57ZM819.466 177.2V167.179H820.697V177.2H819.466ZM823.042 177.2V169.94H824.272V177.2H823.042ZM822.98 169.038L823.889 167.124H825.502L823.999 169.038H822.98ZM828.524 177.2L825.762 169.94H827.061L828.62 174.288C828.788 174.757 828.943 175.245 829.084 175.751C829.194 175.368 829.347 174.908 829.542 174.37L831.156 169.94H832.42L829.672 177.2H828.524ZM838.245 176.305C837.789 176.692 837.349 176.965 836.925 177.125C836.506 177.284 836.055 177.364 835.572 177.364C834.774 177.364 834.161 177.17 833.733 176.783C833.305 176.391 833.09 175.892 833.09 175.286C833.09 174.93 833.17 174.607 833.33 174.315C833.494 174.019 833.706 173.782 833.965 173.604C834.23 173.427 834.526 173.292 834.854 173.201C835.096 173.137 835.46 173.076 835.948 173.016C836.941 172.898 837.673 172.757 838.142 172.593C838.147 172.424 838.149 172.317 838.149 172.271C838.149 171.77 838.033 171.417 837.8 171.212C837.486 170.934 837.019 170.795 836.399 170.795C835.82 170.795 835.392 170.897 835.114 171.102C834.84 171.303 834.638 171.661 834.505 172.176L833.302 172.012C833.412 171.497 833.592 171.082 833.842 170.767C834.093 170.448 834.455 170.205 834.929 170.036C835.403 169.863 835.952 169.776 836.577 169.776C837.196 169.776 837.7 169.849 838.087 169.995C838.475 170.141 838.76 170.325 838.942 170.549C839.124 170.767 839.252 171.045 839.325 171.383C839.366 171.592 839.386 171.971 839.386 172.517V174.158C839.386 175.302 839.411 176.027 839.461 176.332C839.516 176.633 839.621 176.922 839.776 177.2H838.491C838.363 176.945 838.281 176.646 838.245 176.305ZM838.142 173.556C837.695 173.739 837.026 173.894 836.132 174.021C835.626 174.094 835.269 174.176 835.059 174.267C834.849 174.359 834.688 174.493 834.574 174.671C834.46 174.844 834.403 175.038 834.403 175.252C834.403 175.58 834.526 175.853 834.772 176.072C835.023 176.291 835.387 176.4 835.866 176.4C836.34 176.4 836.761 176.298 837.13 176.093C837.5 175.883 837.771 175.598 837.944 175.238C838.076 174.96 838.142 174.55 838.142 174.008V173.556ZM841.287 177.2V169.94H842.394V171.041C842.677 170.526 842.936 170.186 843.173 170.022C843.415 169.858 843.679 169.776 843.966 169.776C844.381 169.776 844.803 169.908 845.231 170.173L844.807 171.314C844.506 171.137 844.206 171.048 843.905 171.048C843.636 171.048 843.394 171.13 843.18 171.294C842.966 171.453 842.813 171.677 842.722 171.964C842.585 172.401 842.517 172.88 842.517 173.399V177.2H841.287Z" fill="#0000FF"/>
<path d="M565.476 758.99L565.811 757.663C566.9 757.941 567.732 758.443 568.306 759.167C568.876 759.887 569.161 760.769 569.161 761.813C569.161 762.893 568.942 763.772 568.505 764.451C568.063 765.126 567.425 765.641 566.591 765.996C565.757 766.347 564.861 766.523 563.904 766.523C562.86 766.523 561.951 766.324 561.177 765.928C560.397 765.527 559.807 764.96 559.406 764.226C559 763.488 558.798 762.676 558.798 761.792C558.798 760.79 559.053 759.947 559.563 759.263C560.074 758.579 560.791 758.103 561.717 757.834L562.024 759.14C561.295 759.372 560.764 759.71 560.431 760.152C560.099 760.594 559.932 761.15 559.932 761.82C559.932 762.59 560.117 763.235 560.486 763.754C560.855 764.269 561.352 764.631 561.976 764.841C562.596 765.051 563.236 765.156 563.897 765.156C564.749 765.156 565.495 765.032 566.133 764.786C566.766 764.536 567.24 764.148 567.554 763.624C567.869 763.1 568.026 762.533 568.026 761.922C568.026 761.179 567.812 760.55 567.384 760.035C566.955 759.52 566.319 759.172 565.476 758.99ZM568.094 751.443C568.482 751.898 568.755 752.338 568.915 752.762C569.074 753.181 569.154 753.632 569.154 754.115C569.154 754.913 568.96 755.526 568.573 755.954C568.181 756.383 567.682 756.597 567.076 756.597C566.72 756.597 566.397 756.517 566.105 756.358C565.809 756.194 565.572 755.982 565.394 755.722C565.217 755.458 565.082 755.161 564.991 754.833C564.927 754.592 564.866 754.227 564.806 753.74C564.688 752.746 564.547 752.015 564.383 751.545C564.214 751.541 564.107 751.538 564.061 751.538C563.56 751.538 563.207 751.655 563.002 751.887C562.724 752.201 562.585 752.669 562.585 753.288C562.585 753.867 562.687 754.295 562.892 754.573C563.093 754.847 563.451 755.05 563.966 755.182L563.802 756.385C563.287 756.276 562.872 756.096 562.557 755.845C562.238 755.594 561.995 755.232 561.826 754.758C561.653 754.284 561.566 753.735 561.566 753.111C561.566 752.491 561.639 751.987 561.785 751.6C561.931 751.212 562.115 750.928 562.339 750.745C562.557 750.563 562.835 750.435 563.173 750.363C563.382 750.322 563.76 750.301 564.307 750.301H565.948C567.092 750.301 567.816 750.276 568.122 750.226C568.423 750.171 568.712 750.066 568.99 749.911V751.197C568.735 751.324 568.436 751.406 568.094 751.443ZM565.346 751.545C565.529 751.992 565.684 752.662 565.811 753.555C565.884 754.061 565.966 754.419 566.057 754.628C566.149 754.838 566.283 755 566.461 755.114C566.634 755.227 566.828 755.284 567.042 755.284C567.37 755.284 567.643 755.161 567.862 754.915C568.081 754.665 568.19 754.3 568.19 753.822C568.19 753.348 568.088 752.926 567.883 752.557C567.673 752.188 567.388 751.917 567.028 751.743C566.75 751.611 566.34 751.545 565.798 751.545H565.346ZM568.99 748.414H558.969V747.184H568.99V748.414ZM568.99 745.297H558.969V744.067H568.99V745.297ZM566.652 737.183L566.809 735.911C567.552 736.112 568.129 736.483 568.539 737.026C568.949 737.568 569.154 738.261 569.154 739.104C569.154 740.166 568.828 741.009 568.177 741.633C567.52 742.253 566.602 742.563 565.422 742.563C564.2 742.563 563.252 742.248 562.578 741.619C561.903 740.99 561.566 740.175 561.566 739.172C561.566 738.201 561.897 737.408 562.557 736.793C563.218 736.178 564.148 735.87 565.346 735.87C565.419 735.87 565.529 735.873 565.675 735.877V741.291C566.472 741.246 567.083 741.02 567.507 740.615C567.93 740.209 568.142 739.703 568.142 739.097C568.142 738.646 568.024 738.261 567.787 737.942C567.55 737.623 567.172 737.37 566.652 737.183ZM564.663 741.223V737.169C564.052 737.224 563.594 737.379 563.289 737.634C562.815 738.026 562.578 738.534 562.578 739.158C562.578 739.724 562.767 740.2 563.145 740.587C563.524 740.97 564.029 741.182 564.663 741.223ZM568.99 726.17V727.401H561.149C561.432 727.697 561.714 728.087 561.997 728.57C562.279 729.048 562.491 729.479 562.633 729.862H561.443C561.12 729.173 560.728 728.572 560.267 728.057C559.807 727.542 559.36 727.177 558.927 726.963V726.17H568.99ZM566.673 722.827L566.563 721.645C567.119 721.545 567.523 721.353 567.773 721.071C568.024 720.788 568.149 720.426 568.149 719.984C568.149 719.605 568.063 719.275 567.889 718.992C567.716 718.705 567.486 718.471 567.199 718.288C566.907 718.106 566.515 717.953 566.023 717.83C565.531 717.707 565.03 717.646 564.519 717.646C564.465 717.646 564.383 717.648 564.273 717.653C564.665 717.899 564.984 718.236 565.23 718.664C565.472 719.088 565.593 719.548 565.593 720.045C565.593 720.875 565.292 721.576 564.69 722.151C564.089 722.725 563.296 723.012 562.311 723.012C561.295 723.012 560.477 722.713 559.857 722.116C559.237 721.515 558.927 720.763 558.927 719.861C558.927 719.209 559.103 718.614 559.454 718.076C559.805 717.534 560.306 717.124 560.958 716.846C561.605 716.563 562.544 716.422 563.774 716.422C565.055 716.422 566.076 716.561 566.837 716.839C567.593 717.117 568.17 717.532 568.566 718.083C568.963 718.63 569.161 719.273 569.161 720.011C569.161 720.795 568.944 721.435 568.511 721.932C568.074 722.429 567.461 722.727 566.673 722.827ZM562.25 717.789C561.543 717.789 560.983 717.978 560.568 718.357C560.153 718.73 559.946 719.182 559.946 719.71C559.946 720.257 560.169 720.733 560.616 721.139C561.063 721.545 561.641 721.747 562.352 721.747C562.99 721.747 563.51 721.556 563.911 721.173C564.307 720.786 564.506 720.309 564.506 719.744C564.506 719.175 564.307 718.708 563.911 718.343C563.51 717.974 562.956 717.789 562.25 717.789Z" fill="#0000FF"/>
<path d="M363 509.47C358.888 509.478 354.948 511.118 352.045 514.03C349.142 516.943 347.515 520.888 347.52 525C347.52 536.81 361.43 550.77 362.02 551.36C362.286 551.623 362.646 551.77 363.02 551.77C363.394 551.768 363.753 551.621 364.02 551.36C364.61 550.77 378.52 536.81 378.52 525C378.523 522.961 378.123 520.941 377.344 519.056C376.565 517.171 375.422 515.459 373.981 514.016C372.539 512.574 370.827 511.43 368.943 510.65C367.059 509.87 365.039 509.469 363 509.47Z" fill="white" stroke="#0000FF" stroke-miterlimit="10"/>
<path d="M1338.03 142.73V132.708H1339.35V141.547H1344.29V142.73H1338.03Z" fill="#0000FF"/>
<path d="M1350.45 141.834C1350 142.222 1349.56 142.495 1349.13 142.655C1348.71 142.814 1348.26 142.894 1347.78 142.894C1346.98 142.894 1346.37 142.7 1345.94 142.313C1345.51 141.921 1345.3 141.422 1345.3 140.816C1345.3 140.46 1345.38 140.137 1345.54 139.845C1345.7 139.549 1345.91 139.312 1346.17 139.134C1346.44 138.957 1346.73 138.822 1347.06 138.731C1347.3 138.667 1347.67 138.606 1348.16 138.546C1349.15 138.428 1349.88 138.287 1350.35 138.123C1350.36 137.954 1350.36 137.847 1350.36 137.801C1350.36 137.3 1350.24 136.947 1350.01 136.742C1349.69 136.464 1349.23 136.325 1348.61 136.325C1348.03 136.325 1347.6 136.427 1347.32 136.632C1347.05 136.833 1346.85 137.191 1346.71 137.706L1345.51 137.542C1345.62 137.027 1345.8 136.612 1346.05 136.297C1346.3 135.978 1346.66 135.735 1347.14 135.566C1347.61 135.393 1348.16 135.306 1348.79 135.306C1349.4 135.306 1349.91 135.379 1350.3 135.525C1350.68 135.671 1350.97 135.855 1351.15 136.079C1351.33 136.297 1351.46 136.575 1351.53 136.913C1351.57 137.122 1351.59 137.5 1351.59 138.047V139.688C1351.59 140.832 1351.62 141.556 1351.67 141.862C1351.72 142.163 1351.83 142.452 1351.98 142.73H1350.7C1350.57 142.475 1350.49 142.176 1350.45 141.834ZM1350.35 139.086C1349.9 139.269 1349.23 139.424 1348.34 139.551C1347.83 139.624 1347.48 139.706 1347.27 139.797C1347.06 139.889 1346.9 140.023 1346.78 140.201C1346.67 140.374 1346.61 140.568 1346.61 140.782C1346.61 141.11 1346.73 141.383 1346.98 141.602C1347.23 141.821 1347.6 141.93 1348.07 141.93C1348.55 141.93 1348.97 141.828 1349.34 141.623C1349.71 141.413 1349.98 141.128 1350.15 140.768C1350.28 140.49 1350.35 140.08 1350.35 139.538V139.086Z" fill="#0000FF"/>
<path d="M1353.02 140.563L1354.23 140.372C1354.3 140.859 1354.49 141.233 1354.8 141.493C1355.12 141.752 1355.55 141.882 1356.11 141.882C1356.68 141.882 1357.1 141.768 1357.37 141.541C1357.64 141.308 1357.78 141.037 1357.78 140.727C1357.78 140.449 1357.66 140.23 1357.42 140.071C1357.25 139.961 1356.83 139.822 1356.16 139.654C1355.26 139.426 1354.63 139.23 1354.28 139.066C1353.93 138.897 1353.67 138.667 1353.49 138.375C1353.31 138.079 1353.22 137.753 1353.22 137.398C1353.22 137.074 1353.29 136.776 1353.44 136.502C1353.59 136.224 1353.79 135.994 1354.05 135.812C1354.24 135.671 1354.5 135.552 1354.83 135.457C1355.16 135.356 1355.52 135.306 1355.89 135.306C1356.46 135.306 1356.96 135.388 1357.39 135.552C1357.82 135.716 1358.14 135.94 1358.35 136.222C1358.55 136.5 1358.69 136.874 1358.77 137.343L1357.57 137.507C1357.51 137.134 1357.36 136.842 1357.09 136.632C1356.83 136.423 1356.46 136.318 1355.98 136.318C1355.42 136.318 1355.01 136.411 1354.77 136.598C1354.53 136.785 1354.41 137.004 1354.41 137.254C1354.41 137.414 1354.46 137.557 1354.56 137.685C1354.66 137.817 1354.82 137.927 1355.03 138.013C1355.16 138.059 1355.52 138.164 1356.12 138.328C1356.99 138.56 1357.6 138.751 1357.94 138.902C1358.28 139.048 1358.56 139.262 1358.75 139.544C1358.95 139.827 1359.05 140.178 1359.05 140.597C1359.05 141.007 1358.93 141.395 1358.68 141.759C1358.45 142.119 1358.1 142.4 1357.65 142.6C1357.2 142.796 1356.69 142.894 1356.12 142.894C1355.18 142.894 1354.46 142.698 1353.96 142.306C1353.47 141.914 1353.15 141.333 1353.02 140.563Z" fill="#0000FF"/>
<path d="M1371.71 139.216L1373.04 139.551C1372.76 140.64 1372.26 141.472 1371.54 142.046C1370.82 142.616 1369.93 142.901 1368.89 142.901C1367.81 142.901 1366.93 142.682 1366.25 142.245C1365.58 141.803 1365.06 141.165 1364.71 140.331C1364.36 139.497 1364.18 138.601 1364.18 137.644C1364.18 136.6 1364.38 135.691 1364.77 134.917C1365.18 134.137 1365.74 133.547 1366.48 133.146C1367.21 132.74 1368.03 132.538 1368.91 132.538C1369.91 132.538 1370.76 132.793 1371.44 133.303C1372.12 133.814 1372.6 134.531 1372.87 135.457L1371.56 135.764C1371.33 135.035 1370.99 134.504 1370.55 134.171C1370.11 133.839 1369.55 133.672 1368.88 133.672C1368.11 133.672 1367.47 133.857 1366.95 134.226C1366.43 134.595 1366.07 135.092 1365.86 135.716C1365.65 136.336 1365.55 136.976 1365.55 137.637C1365.55 138.489 1365.67 139.235 1365.92 139.873C1366.17 140.506 1366.55 140.98 1367.08 141.294C1367.6 141.609 1368.17 141.766 1368.78 141.766C1369.52 141.766 1370.15 141.552 1370.67 141.124C1371.18 140.695 1371.53 140.059 1371.71 139.216Z" fill="#0000FF"/>
<path d="M1374.51 142.73V135.47H1375.62V136.571C1375.9 136.056 1376.16 135.716 1376.4 135.552C1376.64 135.388 1376.9 135.306 1377.19 135.306C1377.6 135.306 1378.02 135.438 1378.45 135.703L1378.03 136.844C1377.73 136.667 1377.43 136.578 1377.13 136.578C1376.86 136.578 1376.62 136.66 1376.4 136.824C1376.19 136.983 1376.04 137.207 1375.94 137.494C1375.81 137.931 1375.74 138.41 1375.74 138.929V142.73H1374.51Z" fill="#0000FF"/>
<path d="M1383.94 142.73V141.664C1383.38 142.484 1382.61 142.894 1381.64 142.894C1381.21 142.894 1380.81 142.812 1380.44 142.648C1380.07 142.484 1379.79 142.279 1379.61 142.033C1379.43 141.782 1379.31 141.477 1379.23 141.117C1379.18 140.875 1379.16 140.492 1379.16 139.968V135.47H1380.39V139.497C1380.39 140.139 1380.41 140.572 1380.46 140.795C1380.54 141.119 1380.7 141.374 1380.96 141.561C1381.21 141.743 1381.52 141.834 1381.88 141.834C1382.25 141.834 1382.6 141.741 1382.92 141.554C1383.25 141.363 1383.48 141.105 1383.61 140.782C1383.74 140.454 1383.81 139.98 1383.81 139.36V135.47H1385.04V142.73H1383.94Z" fill="#0000FF"/>
<path d="M1391.71 140.071L1392.92 140.228C1392.79 141.062 1392.45 141.716 1391.91 142.19C1391.36 142.659 1390.7 142.894 1389.9 142.894C1388.91 142.894 1388.11 142.57 1387.5 141.923C1386.9 141.272 1386.6 140.34 1386.6 139.127C1386.6 138.344 1386.73 137.658 1386.99 137.07C1387.25 136.482 1387.65 136.042 1388.17 135.75C1388.71 135.454 1389.29 135.306 1389.91 135.306C1390.7 135.306 1391.34 135.507 1391.84 135.908C1392.35 136.304 1392.67 136.869 1392.81 137.603L1391.61 137.788C1391.5 137.3 1391.3 136.933 1391 136.687C1390.72 136.441 1390.37 136.318 1389.96 136.318C1389.34 136.318 1388.83 136.541 1388.45 136.988C1388.06 137.43 1387.87 138.132 1387.87 139.093C1387.87 140.069 1388.05 140.777 1388.43 141.219C1388.8 141.661 1389.29 141.882 1389.89 141.882C1390.37 141.882 1390.78 141.734 1391.1 141.438C1391.42 141.142 1391.63 140.686 1391.71 140.071Z" fill="#0000FF"/>
<path d="M1398.95 140.392L1400.22 140.549C1400.02 141.292 1399.65 141.869 1399.1 142.279C1398.56 142.689 1397.87 142.894 1397.03 142.894C1395.96 142.894 1395.12 142.568 1394.5 141.917C1393.88 141.26 1393.57 140.342 1393.57 139.162C1393.57 137.94 1393.88 136.992 1394.51 136.318C1395.14 135.643 1395.96 135.306 1396.96 135.306C1397.93 135.306 1398.72 135.637 1399.34 136.297C1399.95 136.958 1400.26 137.888 1400.26 139.086C1400.26 139.159 1400.26 139.269 1400.25 139.415H1394.84C1394.88 140.212 1395.11 140.823 1395.52 141.247C1395.92 141.67 1396.43 141.882 1397.03 141.882C1397.48 141.882 1397.87 141.764 1398.19 141.527C1398.51 141.29 1398.76 140.912 1398.95 140.392ZM1394.91 138.403H1398.96C1398.91 137.792 1398.75 137.334 1398.5 137.029C1398.1 136.555 1397.6 136.318 1396.97 136.318C1396.41 136.318 1395.93 136.507 1395.54 136.885C1395.16 137.264 1394.95 137.769 1394.91 138.403Z" fill="#0000FF"/>
<path d="M1401.28 140.563L1402.5 140.372C1402.56 140.859 1402.75 141.233 1403.06 141.493C1403.38 141.752 1403.81 141.882 1404.38 141.882C1404.94 141.882 1405.36 141.768 1405.63 141.541C1405.91 141.308 1406.04 141.037 1406.04 140.727C1406.04 140.449 1405.92 140.23 1405.68 140.071C1405.51 139.961 1405.09 139.822 1404.42 139.654C1403.52 139.426 1402.89 139.23 1402.54 139.066C1402.2 138.897 1401.93 138.667 1401.75 138.375C1401.57 138.079 1401.48 137.753 1401.48 137.398C1401.48 137.074 1401.56 136.776 1401.7 136.502C1401.85 136.224 1402.06 135.994 1402.31 135.812C1402.5 135.671 1402.76 135.552 1403.09 135.457C1403.42 135.356 1403.78 135.306 1404.16 135.306C1404.73 135.306 1405.22 135.388 1405.65 135.552C1406.09 135.716 1406.41 135.94 1406.61 136.222C1406.82 136.5 1406.96 136.874 1407.03 137.343L1405.83 137.507C1405.78 137.134 1405.62 136.842 1405.35 136.632C1405.09 136.423 1404.72 136.318 1404.25 136.318C1403.68 136.318 1403.28 136.411 1403.04 136.598C1402.79 136.785 1402.67 137.004 1402.67 137.254C1402.67 137.414 1402.72 137.557 1402.82 137.685C1402.92 137.817 1403.08 137.927 1403.29 138.013C1403.42 138.059 1403.78 138.164 1404.38 138.328C1405.25 138.56 1405.86 138.751 1406.2 138.902C1406.55 139.048 1406.82 139.262 1407.01 139.544C1407.21 139.827 1407.31 140.178 1407.31 140.597C1407.31 141.007 1407.19 141.395 1406.95 141.759C1406.71 142.119 1406.36 142.4 1405.91 142.6C1405.46 142.796 1404.95 142.894 1404.38 142.894C1403.44 142.894 1402.72 142.698 1402.22 142.306C1401.73 141.914 1401.42 141.333 1401.28 140.563Z" fill="#0000FF"/>
<path d="M1372.73 77.78C1368.62 77.7853 1364.69 79.419 1361.78 82.3228C1358.88 85.2266 1357.25 89.1635 1357.24 93.27C1357.24 105.08 1371.15 119.04 1371.74 119.63C1371.87 119.763 1372.03 119.869 1372.2 119.941C1372.37 120.013 1372.55 120.05 1372.74 120.05C1372.93 120.05 1373.11 120.013 1373.28 119.941C1373.45 119.869 1373.61 119.763 1373.74 119.63C1374.34 119.04 1388.25 105.08 1388.25 93.27C1388.24 89.1583 1386.61 85.2169 1383.7 82.3122C1380.79 79.4075 1376.84 77.7774 1372.73 77.78V77.78Z" fill="white" stroke="#0000FF" stroke-miterlimit="10"/>
<path d="M774 780.52L777.849 770.499H779.277L783.379 780.52H781.868L780.699 777.485H776.509L775.408 780.52H774ZM776.892 776.405H780.289L779.243 773.629C778.924 772.786 778.687 772.094 778.532 771.551C778.405 772.194 778.225 772.832 777.992 773.465L776.892 776.405Z" fill="#0000FF"/>
<path d="M784.056 781.122L785.252 781.299C785.302 781.668 785.441 781.937 785.669 782.106C785.974 782.334 786.391 782.448 786.92 782.448C787.49 782.448 787.929 782.334 788.239 782.106C788.549 781.878 788.759 781.559 788.868 781.149C788.932 780.898 788.962 780.372 788.957 779.57C788.419 780.203 787.749 780.52 786.947 780.52C785.949 780.52 785.177 780.16 784.63 779.44C784.083 778.72 783.81 777.856 783.81 776.849C783.81 776.156 783.935 775.518 784.186 774.935C784.436 774.347 784.799 773.894 785.272 773.575C785.751 773.256 786.312 773.096 786.954 773.096C787.811 773.096 788.517 773.443 789.073 774.135V773.26H790.208V779.536C790.208 780.666 790.092 781.466 789.859 781.935C789.632 782.409 789.267 782.783 788.766 783.056C788.269 783.33 787.656 783.466 786.927 783.466C786.061 783.466 785.361 783.27 784.828 782.878C784.295 782.491 784.037 781.905 784.056 781.122ZM785.074 776.76C785.074 777.713 785.263 778.408 785.642 778.845C786.02 779.283 786.494 779.501 787.063 779.501C787.629 779.501 788.103 779.285 788.485 778.852C788.868 778.415 789.06 777.731 789.06 776.801C789.06 775.913 788.861 775.243 788.465 774.792C788.073 774.34 787.599 774.115 787.043 774.115C786.496 774.115 786.031 774.338 785.648 774.785C785.266 775.227 785.074 775.885 785.074 776.76Z" fill="#0000FF"/>
<path d="M796.832 780.52V779.454C796.267 780.274 795.499 780.684 794.528 780.684C794.1 780.684 793.699 780.602 793.325 780.438C792.956 780.274 792.68 780.069 792.498 779.823C792.32 779.572 792.195 779.267 792.122 778.907C792.072 778.665 792.047 778.282 792.047 777.758V773.26H793.277V777.287C793.277 777.929 793.302 778.362 793.353 778.585C793.43 778.909 793.594 779.164 793.845 779.351C794.095 779.533 794.405 779.625 794.774 779.625C795.144 779.625 795.49 779.531 795.813 779.344C796.137 779.153 796.365 778.895 796.497 778.572C796.634 778.244 796.702 777.77 796.702 777.15V773.26H797.933V780.52H796.832Z" fill="#0000FF"/>
<path d="M804.604 779.625C804.149 780.012 803.709 780.285 803.285 780.445C802.866 780.604 802.415 780.684 801.932 780.684C801.134 780.684 800.521 780.49 800.093 780.103C799.664 779.711 799.45 779.212 799.45 778.606C799.45 778.25 799.53 777.927 799.689 777.635C799.854 777.339 800.065 777.102 800.325 776.924C800.59 776.747 800.886 776.612 801.214 776.521C801.455 776.457 801.82 776.396 802.308 776.336C803.301 776.218 804.033 776.077 804.502 775.913C804.507 775.744 804.509 775.637 804.509 775.591C804.509 775.09 804.393 774.737 804.16 774.532C803.846 774.254 803.379 774.115 802.759 774.115C802.18 774.115 801.752 774.217 801.474 774.422C801.2 774.623 800.997 774.981 800.865 775.496L799.662 775.332C799.771 774.817 799.951 774.402 800.202 774.087C800.453 773.768 800.815 773.525 801.289 773.356C801.763 773.183 802.312 773.096 802.937 773.096C803.556 773.096 804.06 773.169 804.447 773.315C804.835 773.461 805.119 773.645 805.302 773.869C805.484 774.087 805.612 774.365 805.685 774.703C805.726 774.912 805.746 775.291 805.746 775.837V777.478C805.746 778.622 805.771 779.347 805.821 779.652C805.876 779.953 805.981 780.242 806.136 780.52H804.851C804.723 780.265 804.641 779.966 804.604 779.625ZM804.502 776.876C804.055 777.059 803.385 777.214 802.492 777.341C801.986 777.414 801.629 777.496 801.419 777.587C801.209 777.679 801.048 777.813 800.934 777.991C800.82 778.164 800.763 778.358 800.763 778.572C800.763 778.9 800.886 779.173 801.132 779.392C801.382 779.611 801.747 779.72 802.226 779.72C802.7 779.72 803.121 779.618 803.49 779.413C803.859 779.203 804.131 778.918 804.304 778.558C804.436 778.28 804.502 777.87 804.502 777.328V776.876Z" fill="#0000FF"/>
<path d="M807.168 778.353L808.385 778.162C808.453 778.649 808.642 779.023 808.952 779.283C809.267 779.542 809.704 779.672 810.265 779.672C810.83 779.672 811.249 779.558 811.522 779.331C811.796 779.098 811.933 778.827 811.933 778.517C811.933 778.239 811.812 778.02 811.57 777.861C811.402 777.751 810.982 777.612 810.312 777.444C809.41 777.216 808.784 777.02 808.433 776.856C808.086 776.687 807.822 776.457 807.64 776.166C807.462 775.869 807.373 775.543 807.373 775.188C807.373 774.864 807.446 774.566 807.592 774.292C807.742 774.014 807.945 773.784 808.2 773.602C808.392 773.461 808.651 773.342 808.979 773.247C809.312 773.146 809.668 773.096 810.046 773.096C810.616 773.096 811.115 773.178 811.543 773.342C811.976 773.506 812.295 773.73 812.5 774.012C812.705 774.29 812.846 774.664 812.924 775.133L811.721 775.297C811.666 774.924 811.507 774.632 811.242 774.422C810.982 774.213 810.613 774.108 810.135 774.108C809.57 774.108 809.166 774.201 808.925 774.388C808.683 774.575 808.562 774.794 808.562 775.044C808.562 775.204 808.613 775.347 808.713 775.475C808.813 775.607 808.97 775.717 809.185 775.803C809.308 775.849 809.67 775.954 810.271 776.118C811.142 776.35 811.748 776.542 812.09 776.692C812.436 776.838 812.707 777.052 812.903 777.334C813.099 777.617 813.197 777.968 813.197 778.387C813.197 778.797 813.076 779.185 812.835 779.549C812.598 779.909 812.254 780.19 811.803 780.39C811.352 780.586 810.841 780.684 810.271 780.684C809.328 780.684 808.608 780.488 808.111 780.096C807.619 779.704 807.305 779.123 807.168 778.353Z" fill="#0000FF"/>
<path d="M794 715.56C789.891 715.565 785.951 717.2 783.046 720.106C780.14 723.011 778.505 726.951 778.5 731.06C778.5 742.87 792.41 756.83 793 757.42C793.268 757.679 793.627 757.822 794 757.82C794.185 757.823 794.369 757.79 794.54 757.721C794.712 757.652 794.868 757.55 795 757.42C795.59 756.83 809.5 742.87 809.5 731.06C809.495 726.951 807.86 723.011 804.954 720.106C802.049 717.2 798.109 715.565 794 715.56Z" fill="white" stroke="#0000FF" stroke-miterlimit="10"/>
<path d="M1200.53 849.856L1201.86 850.191C1201.58 851.28 1201.08 852.112 1200.36 852.686C1199.64 853.256 1198.75 853.541 1197.71 853.541C1196.63 853.541 1195.75 853.322 1195.07 852.885C1194.4 852.443 1193.88 851.805 1193.53 850.971C1193.18 850.137 1193 849.241 1193 848.284C1193 847.24 1193.2 846.331 1193.59 845.557C1194 844.777 1194.56 844.187 1195.3 843.786C1196.04 843.38 1196.85 843.178 1197.73 843.178C1198.73 843.178 1199.58 843.433 1200.26 843.943C1200.94 844.454 1201.42 845.171 1201.69 846.097L1200.38 846.404C1200.15 845.675 1199.81 845.144 1199.37 844.811C1198.93 844.479 1198.37 844.312 1197.7 844.312C1196.93 844.312 1196.29 844.497 1195.77 844.866C1195.25 845.235 1194.89 845.732 1194.68 846.356C1194.47 846.976 1194.37 847.616 1194.37 848.277C1194.37 849.129 1194.49 849.875 1194.74 850.513C1194.99 851.146 1195.37 851.62 1195.9 851.934C1196.42 852.249 1196.99 852.406 1197.6 852.406C1198.34 852.406 1198.97 852.192 1199.49 851.764C1200 851.335 1200.35 850.699 1200.53 849.856Z" fill="#0000FF"/>
<path d="M1208.08 852.474C1207.62 852.862 1207.18 853.135 1206.76 853.295C1206.34 853.454 1205.89 853.534 1205.41 853.534C1204.61 853.534 1204 853.34 1203.57 852.953C1203.14 852.561 1202.93 852.062 1202.93 851.456C1202.93 851.1 1203.01 850.777 1203.17 850.485C1203.33 850.189 1203.54 849.952 1203.8 849.774C1204.07 849.597 1204.36 849.462 1204.69 849.371C1204.93 849.307 1205.3 849.246 1205.78 849.186C1206.78 849.068 1207.51 848.927 1207.98 848.763C1207.98 848.594 1207.98 848.487 1207.98 848.441C1207.98 847.94 1207.87 847.587 1207.64 847.382C1207.32 847.104 1206.85 846.965 1206.23 846.965C1205.66 846.965 1205.23 847.067 1204.95 847.272C1204.68 847.473 1204.47 847.831 1204.34 848.346L1203.14 848.182C1203.25 847.667 1203.43 847.252 1203.68 846.937C1203.93 846.618 1204.29 846.375 1204.76 846.206C1205.24 846.033 1205.79 845.946 1206.41 845.946C1207.03 845.946 1207.54 846.019 1207.92 846.165C1208.31 846.311 1208.6 846.495 1208.78 846.719C1208.96 846.937 1209.09 847.215 1209.16 847.553C1209.2 847.762 1209.22 848.141 1209.22 848.687V850.328C1209.22 851.472 1209.25 852.196 1209.3 852.502C1209.35 852.803 1209.46 853.092 1209.61 853.37H1208.33C1208.2 853.115 1208.12 852.816 1208.08 852.474ZM1207.98 849.726C1207.53 849.909 1206.86 850.064 1205.97 850.191C1205.46 850.264 1205.1 850.346 1204.89 850.437C1204.68 850.529 1204.52 850.663 1204.41 850.841C1204.3 851.014 1204.24 851.208 1204.24 851.422C1204.24 851.75 1204.36 852.023 1204.61 852.242C1204.86 852.461 1205.22 852.57 1205.7 852.57C1206.18 852.57 1206.6 852.468 1206.97 852.263C1207.33 852.053 1207.61 851.768 1207.78 851.408C1207.91 851.13 1207.98 850.72 1207.98 850.178V849.726Z" fill="#0000FF"/>
<path d="M1211.14 853.37V846.11H1212.24V847.142C1212.78 846.345 1213.55 845.946 1214.55 845.946C1214.99 845.946 1215.39 846.026 1215.76 846.185C1216.13 846.34 1216.4 846.545 1216.58 846.801C1216.77 847.056 1216.89 847.359 1216.97 847.71C1217.01 847.938 1217.04 848.336 1217.04 848.906V853.37H1215.8V848.954C1215.8 848.453 1215.76 848.079 1215.66 847.833C1215.57 847.582 1215.39 847.384 1215.15 847.238C1214.91 847.088 1214.62 847.013 1214.29 847.013C1213.77 847.013 1213.32 847.179 1212.93 847.512C1212.56 847.844 1212.37 848.475 1212.37 849.405V853.37H1211.14Z" fill="#0000FF"/>
<path d="M1223.64 853.37V852.454C1223.18 853.174 1222.5 853.534 1221.61 853.534C1221.03 853.534 1220.5 853.375 1220.01 853.056C1219.53 852.737 1219.15 852.292 1218.88 851.723C1218.62 851.148 1218.48 850.49 1218.48 849.747C1218.48 849.022 1218.61 848.366 1218.85 847.778C1219.09 847.186 1219.45 846.732 1219.93 846.418C1220.42 846.103 1220.96 845.946 1221.55 845.946C1221.99 845.946 1222.38 846.04 1222.72 846.226C1223.06 846.409 1223.34 846.648 1223.56 846.944V843.349H1224.78V853.37H1223.64ZM1219.75 849.747C1219.75 850.677 1219.94 851.372 1220.34 851.832C1220.73 852.292 1221.19 852.522 1221.72 852.522C1222.26 852.522 1222.72 852.304 1223.09 851.866C1223.47 851.424 1223.66 850.752 1223.66 849.849C1223.66 848.856 1223.47 848.127 1223.08 847.662C1222.7 847.197 1222.23 846.965 1221.67 846.965C1221.12 846.965 1220.67 847.188 1220.3 847.635C1219.93 848.081 1219.75 848.785 1219.75 849.747Z" fill="#0000FF"/>
<path d="M1231.69 851.032L1232.96 851.189C1232.76 851.932 1232.39 852.509 1231.85 852.919C1231.31 853.329 1230.61 853.534 1229.77 853.534C1228.71 853.534 1227.87 853.208 1227.24 852.557C1226.62 851.9 1226.31 850.982 1226.31 849.802C1226.31 848.58 1226.63 847.632 1227.25 846.958C1227.88 846.283 1228.7 845.946 1229.7 845.946C1230.67 845.946 1231.47 846.277 1232.08 846.937C1232.7 847.598 1233 848.528 1233 849.726C1233 849.799 1233 849.909 1233 850.055H1227.58C1227.63 850.852 1227.85 851.463 1228.26 851.887C1228.67 852.31 1229.17 852.522 1229.78 852.522C1230.23 852.522 1230.61 852.404 1230.93 852.167C1231.25 851.93 1231.5 851.552 1231.69 851.032ZM1227.65 849.043H1231.71C1231.65 848.432 1231.5 847.974 1231.24 847.669C1230.85 847.195 1230.34 846.958 1229.72 846.958C1229.15 846.958 1228.67 847.147 1228.29 847.525C1227.9 847.904 1227.69 848.409 1227.65 849.043Z" fill="#0000FF"/>
<path d="M1234.49 853.37V843.349H1235.72V853.37H1234.49Z" fill="#0000FF"/>
<path d="M1242.37 852.474C1241.91 852.862 1241.47 853.135 1241.05 853.295C1240.63 853.454 1240.18 853.534 1239.7 853.534C1238.9 853.534 1238.29 853.34 1237.86 852.953C1237.43 852.561 1237.21 852.062 1237.21 851.456C1237.21 851.1 1237.29 850.777 1237.45 850.485C1237.62 850.189 1237.83 849.952 1238.09 849.774C1238.35 849.597 1238.65 849.462 1238.98 849.371C1239.22 849.307 1239.58 849.246 1240.07 849.186C1241.07 849.068 1241.8 848.927 1242.27 848.763C1242.27 848.594 1242.27 848.487 1242.27 848.441C1242.27 847.94 1242.16 847.587 1241.92 847.382C1241.61 847.104 1241.14 846.965 1240.52 846.965C1239.94 846.965 1239.52 847.067 1239.24 847.272C1238.96 847.473 1238.76 847.831 1238.63 848.346L1237.43 848.182C1237.54 847.667 1237.72 847.252 1237.97 846.937C1238.22 846.618 1238.58 846.375 1239.05 846.206C1239.53 846.033 1240.08 845.946 1240.7 845.946C1241.32 845.946 1241.82 846.019 1242.21 846.165C1242.6 846.311 1242.88 846.495 1243.07 846.719C1243.25 846.937 1243.38 847.215 1243.45 847.553C1243.49 847.762 1243.51 848.141 1243.51 848.687V850.328C1243.51 851.472 1243.54 852.196 1243.59 852.502C1243.64 852.803 1243.75 853.092 1243.9 853.37H1242.62C1242.49 853.115 1242.41 852.816 1242.37 852.474ZM1242.27 849.726C1241.82 849.909 1241.15 850.064 1240.26 850.191C1239.75 850.264 1239.39 850.346 1239.18 850.437C1238.97 850.529 1238.81 850.663 1238.7 850.841C1238.58 851.014 1238.53 851.208 1238.53 851.422C1238.53 851.75 1238.65 852.023 1238.9 852.242C1239.15 852.461 1239.51 852.57 1239.99 852.57C1240.46 852.57 1240.89 852.468 1241.25 852.263C1241.62 852.053 1241.9 851.768 1242.07 851.408C1242.2 851.13 1242.27 850.72 1242.27 850.178V849.726Z" fill="#0000FF"/>
<path d="M1245.41 853.37V846.11H1246.52V847.211C1246.8 846.696 1247.06 846.356 1247.3 846.192C1247.54 846.028 1247.8 845.946 1248.09 845.946C1248.51 845.946 1248.93 846.078 1249.36 846.343L1248.93 847.484C1248.63 847.307 1248.33 847.218 1248.03 847.218C1247.76 847.218 1247.52 847.3 1247.3 847.464C1247.09 847.623 1246.94 847.847 1246.85 848.134C1246.71 848.571 1246.64 849.05 1246.64 849.569V853.37H1245.41Z" fill="#0000FF"/>
<path d="M1250.09 844.764V843.349H1251.32V844.764H1250.09ZM1250.09 853.37V846.11H1251.32V853.37H1250.09Z" fill="#0000FF"/>
<path d="M1257.94 852.474C1257.49 852.862 1257.05 853.135 1256.62 853.295C1256.2 853.454 1255.75 853.534 1255.27 853.534C1254.47 853.534 1253.86 853.34 1253.43 852.953C1253 852.561 1252.79 852.062 1252.79 851.456C1252.79 851.1 1252.87 850.777 1253.03 850.485C1253.19 850.189 1253.4 849.952 1253.66 849.774C1253.93 849.597 1254.22 849.462 1254.55 849.371C1254.79 849.307 1255.16 849.246 1255.64 849.186C1256.64 849.068 1257.37 848.927 1257.84 848.763C1257.84 848.594 1257.85 848.487 1257.85 848.441C1257.85 847.94 1257.73 847.587 1257.5 847.382C1257.18 847.104 1256.72 846.965 1256.1 846.965C1255.52 846.965 1255.09 847.067 1254.81 847.272C1254.54 847.473 1254.33 847.831 1254.2 848.346L1253 848.182C1253.11 847.667 1253.29 847.252 1253.54 846.937C1253.79 846.618 1254.15 846.375 1254.63 846.206C1255.1 846.033 1255.65 845.946 1256.27 845.946C1256.89 845.946 1257.4 846.019 1257.78 846.165C1258.17 846.311 1258.46 846.495 1258.64 846.719C1258.82 846.937 1258.95 847.215 1259.02 847.553C1259.06 847.762 1259.08 848.141 1259.08 848.687V850.328C1259.08 851.472 1259.11 852.196 1259.16 852.502C1259.21 852.803 1259.32 853.092 1259.47 853.37H1258.19C1258.06 853.115 1257.98 852.816 1257.94 852.474ZM1257.84 849.726C1257.39 849.909 1256.72 850.064 1255.83 850.191C1255.32 850.264 1254.97 850.346 1254.76 850.437C1254.55 850.529 1254.38 850.663 1254.27 850.841C1254.16 851.014 1254.1 851.208 1254.1 851.422C1254.1 851.75 1254.22 852.023 1254.47 852.242C1254.72 852.461 1255.08 852.57 1255.56 852.57C1256.04 852.57 1256.46 852.468 1256.83 852.263C1257.2 852.053 1257.47 851.768 1257.64 851.408C1257.77 851.13 1257.84 850.72 1257.84 850.178V849.726Z" fill="#0000FF"/>
<path d="M1226 788.41C1221.89 788.418 1217.96 790.054 1215.05 792.959C1212.15 795.865 1210.52 799.802 1210.51 803.91C1210.51 815.72 1224.42 829.68 1225.01 830.27C1225.28 830.533 1225.64 830.68 1226.01 830.68C1226.38 830.678 1226.74 830.531 1227.01 830.27C1227.6 829.68 1241.51 815.72 1241.51 803.91C1241.5 799.799 1239.87 795.858 1236.96 792.952C1234.05 790.046 1230.11 788.413 1226 788.41Z" fill="white" stroke="#0000FF" stroke-miterlimit="10"/>
<path d="M775.126 17.2792L777.095 17.0878C777.213 17.7486 777.452 18.234 777.812 18.5439C778.177 18.8538 778.667 19.0087 779.282 19.0087C779.934 19.0087 780.424 18.872 780.752 18.5986C781.085 18.3206 781.251 17.997 781.251 17.6279C781.251 17.3909 781.18 17.1904 781.039 17.0263C780.902 16.8577 780.661 16.7119 780.314 16.5888C780.077 16.5068 779.537 16.3609 778.694 16.1513C777.61 15.8824 776.849 15.552 776.411 15.1601C775.796 14.6087 775.488 13.9365 775.488 13.1435C775.488 12.6331 775.632 12.1568 775.919 11.7148C776.21 11.2682 776.627 10.9286 777.17 10.6962C777.717 10.4638 778.375 10.3476 779.145 10.3476C780.403 10.3476 781.349 10.6233 781.982 11.1747C782.62 11.7262 782.955 12.4622 782.987 13.3828L780.964 13.4716C780.877 12.9566 780.69 12.5875 780.403 12.3642C780.121 12.1363 779.695 12.0224 779.125 12.0224C778.537 12.0224 778.077 12.1432 777.744 12.3847C777.53 12.5397 777.423 12.747 777.423 13.0068C777.423 13.2438 777.523 13.4466 777.724 13.6152C777.979 13.8294 778.599 14.0527 779.583 14.2851C780.567 14.5175 781.294 14.7591 781.764 15.0097C782.238 15.2558 782.607 15.5953 782.871 16.0283C783.14 16.4566 783.274 16.9876 783.274 17.621C783.274 18.1953 783.115 18.733 782.796 19.2343C782.477 19.7356 782.026 20.1093 781.442 20.3554C780.859 20.5969 780.132 20.7177 779.262 20.7177C777.995 20.7177 777.022 20.426 776.343 19.8427C775.664 19.2548 775.258 18.4003 775.126 17.2792Z" fill="#0000FF"/>
<path d="M784.963 10.5185H786.986V15.9462C786.986 16.8076 787.011 17.3658 787.061 17.621C787.148 18.0312 787.353 18.3616 787.677 18.6122C788.005 18.8583 788.451 18.9814 789.016 18.9814C789.591 18.9814 790.024 18.8652 790.315 18.6328C790.607 18.3958 790.782 18.1064 790.842 17.7646C790.901 17.4228 790.931 16.8554 790.931 16.0624V10.5185H792.954V15.7822C792.954 16.9853 792.899 17.8352 792.79 18.332C792.681 18.8287 792.478 19.248 792.182 19.5898C791.89 19.9316 791.498 20.205 791.006 20.4101C790.514 20.6106 789.871 20.7109 789.078 20.7109C788.121 20.7109 787.394 20.6015 786.897 20.3828C786.405 20.1594 786.016 19.8723 785.728 19.5214C785.441 19.166 785.252 18.7945 785.161 18.4072C785.029 17.8329 784.963 16.9853 784.963 15.8642V10.5185Z" fill="#0000FF"/>
<path d="M795.1 20.54V10.5185H799.359C800.43 10.5185 801.207 10.6096 801.69 10.7919C802.178 10.9697 802.568 11.2887 802.859 11.749C803.151 12.2092 803.297 12.7356 803.297 13.3281C803.297 14.08 803.076 14.7021 802.634 15.1943C802.192 15.6819 801.531 15.9895 800.651 16.1171C801.089 16.3723 801.449 16.6526 801.731 16.9579C802.018 17.2633 802.404 17.8056 802.887 18.5849L804.11 20.54H801.69L800.227 18.3593C799.708 17.58 799.352 17.0901 799.161 16.8896C798.97 16.6845 798.767 16.5455 798.553 16.4726C798.338 16.3951 797.999 16.3564 797.534 16.3564H797.124V20.54H795.1ZM797.124 14.7568H798.621C799.592 14.7568 800.198 14.7158 800.439 14.6337C800.681 14.5517 800.87 14.4104 801.007 14.2099C801.143 14.0094 801.212 13.7587 801.212 13.4579C801.212 13.1207 801.121 12.8495 800.938 12.6445C800.761 12.4348 800.508 12.3027 800.18 12.248C800.016 12.2252 799.523 12.2138 798.703 12.2138H797.124V14.7568Z" fill="#0000FF"/>
<path d="M913.969 885.07V875.049H915.938L920.039 881.741V875.049H921.919V885.07H919.889L915.849 878.535V885.07H913.969Z" fill="#0000FF"/>
<path d="M923.656 880.121C923.656 879.1 923.808 878.243 924.114 877.551C924.341 877.04 924.651 876.582 925.043 876.177C925.44 875.771 925.873 875.47 926.342 875.274C926.966 875.01 927.686 874.878 928.502 874.878C929.979 874.878 931.159 875.336 932.043 876.252C932.932 877.168 933.376 878.441 933.376 880.073C933.376 881.691 932.936 882.958 932.057 883.874C931.177 884.785 930.002 885.241 928.53 885.241C927.039 885.241 925.854 884.788 924.975 883.881C924.095 882.969 923.656 881.716 923.656 880.121ZM925.74 880.052C925.74 881.187 926.003 882.049 926.527 882.636C927.051 883.22 927.716 883.511 928.523 883.511C929.329 883.511 929.99 883.222 930.505 882.643C931.025 882.06 931.284 881.187 931.284 880.025C931.284 878.877 931.031 878.02 930.526 877.455C930.024 876.89 929.357 876.607 928.523 876.607C927.689 876.607 927.017 876.894 926.506 877.469C925.996 878.038 925.74 878.899 925.74 880.052Z" fill="#0000FF"/>
<path d="M934.969 885.07V875.049H939.228C940.299 875.049 941.076 875.14 941.559 875.322C942.046 875.5 942.436 875.819 942.728 876.279C943.019 876.739 943.165 877.266 943.165 877.858C943.165 878.61 942.944 879.232 942.502 879.724C942.06 880.212 941.399 880.52 940.52 880.647C940.957 880.902 941.317 881.183 941.6 881.488C941.887 881.793 942.272 882.336 942.755 883.115L943.979 885.07H941.559L940.096 882.889C939.576 882.11 939.221 881.62 939.03 881.42C938.838 881.215 938.635 881.076 938.421 881.003C938.207 880.925 937.867 880.886 937.403 880.886H936.992V885.07H934.969ZM936.992 879.287H938.49C939.46 879.287 940.066 879.246 940.308 879.164C940.549 879.082 940.739 878.941 940.875 878.74C941.012 878.539 941.08 878.289 941.08 877.988C941.08 877.651 940.989 877.38 940.807 877.175C940.629 876.965 940.376 876.833 940.048 876.778C939.884 876.755 939.392 876.744 938.572 876.744H936.992V879.287Z" fill="#0000FF"/>
<path d="M947.335 885.07V876.744H944.362V875.049H952.325V876.744H949.359V885.07H947.335Z" fill="#0000FF"/>
<path d="M953.638 885.07V875.049H961.069V876.744H955.661V878.966H960.693V880.654H955.661V883.382H961.26V885.07H953.638Z" fill="#0000FF"/>
<path d="M1396.75 443.31V433.289H1404.18V434.984H1398.77V437.206H1403.8V438.894H1398.77V441.622H1404.37V443.31H1396.75Z" fill="#0000FF"/>
<path d="M1405.57 440.049L1407.54 439.858C1407.66 440.519 1407.9 441.004 1408.26 441.314C1408.62 441.624 1409.11 441.779 1409.73 441.779C1410.38 441.779 1410.87 441.642 1411.2 441.369C1411.53 441.091 1411.7 440.767 1411.7 440.398C1411.7 440.161 1411.63 439.96 1411.49 439.796C1411.35 439.628 1411.11 439.482 1410.76 439.359C1410.53 439.277 1409.99 439.131 1409.14 438.921C1408.06 438.653 1407.3 438.322 1406.86 437.93C1406.24 437.379 1405.94 436.707 1405.94 435.914C1405.94 435.403 1406.08 434.927 1406.37 434.485C1406.66 434.038 1407.08 433.699 1407.62 433.466C1408.16 433.234 1408.82 433.118 1409.59 433.118C1410.85 433.118 1411.8 433.393 1412.43 433.945C1413.07 434.496 1413.4 435.232 1413.44 436.153L1411.41 436.242C1411.33 435.727 1411.14 435.358 1410.85 435.134C1410.57 434.906 1410.14 434.792 1409.57 434.792C1408.98 434.792 1408.52 434.913 1408.19 435.155C1407.98 435.31 1407.87 435.517 1407.87 435.777C1407.87 436.014 1407.97 436.217 1408.17 436.385C1408.43 436.599 1409.05 436.823 1410.03 437.055C1411.02 437.288 1411.74 437.529 1412.21 437.78C1412.69 438.026 1413.05 438.365 1413.32 438.798C1413.59 439.227 1413.72 439.758 1413.72 440.391C1413.72 440.965 1413.56 441.503 1413.24 442.004C1412.92 442.506 1412.47 442.879 1411.89 443.125C1411.31 443.367 1410.58 443.488 1409.71 443.488C1408.44 443.488 1407.47 443.196 1406.79 442.613C1406.11 442.025 1405.71 441.17 1405.57 440.049Z" fill="#0000FF"/>
<path d="M1417.68 443.31V434.984H1414.71V433.289H1422.67V434.984H1419.7V443.31H1417.68Z" fill="#0000FF"/>
<path d="M1423.98 443.31V433.289H1431.41V434.984H1426.01V437.206H1431.04V438.894H1426.01V441.622H1431.6V443.31H1423.98Z" fill="#0000FF"/>
<path d="M15.9984 209.243C15.9984 208.222 16.1511 207.366 16.4564 206.673C16.6843 206.162 16.9942 205.704 17.3861 205.299C17.7826 204.893 18.2155 204.592 18.6849 204.396C19.3093 204.132 20.0293 204 20.8451 204C22.3217 204 23.502 204.458 24.3861 205.374C25.2748 206.29 25.7191 207.564 25.7191 209.195C25.7191 210.813 25.2793 212.08 24.3998 212.996C23.5202 213.908 22.3444 214.363 20.8724 214.363C19.3822 214.363 18.1973 213.91 17.3177 213.003C16.4382 212.091 15.9984 210.838 15.9984 209.243ZM18.0834 209.175C18.0834 210.31 18.3454 211.171 18.8695 211.759C19.3936 212.342 20.059 212.634 20.8656 212.634C21.6722 212.634 22.333 212.344 22.848 211.766C23.3676 211.182 23.6273 210.31 23.6273 209.147C23.6273 207.999 23.3744 207.142 22.8685 206.577C22.3672 206.012 21.6996 205.729 20.8656 205.729C20.0316 205.729 19.3594 206.017 18.849 206.591C18.3386 207.16 18.0834 208.022 18.0834 209.175Z" fill="#0000FF"/>
<path d="M27.3051 214.192V204.171H34.7357V205.866H29.3285V208.088H34.3597V209.776H29.3285V212.504H34.9271V214.192H27.3051Z" fill="#0000FF"/>
<path d="M36.1302 210.932L38.099 210.74C38.2175 211.401 38.4567 211.886 38.8168 212.196C39.1814 212.506 39.6713 212.661 40.2865 212.661C40.9382 212.661 41.4281 212.524 41.7562 212.251C42.0889 211.973 42.2552 211.649 42.2552 211.28C42.2552 211.043 42.1846 210.843 42.0433 210.679C41.9066 210.51 41.6651 210.364 41.3187 210.241C41.0817 210.159 40.5417 210.013 39.6986 209.804C38.614 209.535 37.8529 209.204 37.4154 208.812C36.8002 208.261 36.4926 207.589 36.4926 206.796C36.4926 206.285 36.6361 205.809 36.9232 205.367C37.2149 204.921 37.6319 204.581 38.1742 204.349C38.7211 204.116 39.3796 204 40.1498 204C41.4076 204 42.3532 204.276 42.9867 204.827C43.6247 205.379 43.9597 206.115 43.9916 207.035L41.9681 207.124C41.8816 206.609 41.6947 206.24 41.4076 206.017C41.125 205.789 40.6989 205.675 40.1293 205.675C39.5414 205.675 39.0811 205.796 38.7484 206.037C38.5342 206.192 38.4271 206.399 38.4271 206.659C38.4271 206.896 38.5274 207.099 38.7279 207.268C38.9831 207.482 39.6029 207.705 40.5873 207.938C41.5717 208.17 42.2985 208.411 42.7679 208.662C43.2419 208.908 43.611 209.248 43.8754 209.681C44.1442 210.109 44.2787 210.64 44.2787 211.273C44.2787 211.848 44.1192 212.385 43.8002 212.887C43.4812 213.388 43.03 213.762 42.4467 214.008C41.8633 214.249 41.1364 214.37 40.266 214.37C38.9991 214.37 38.0261 214.078 37.347 213.495C36.668 212.907 36.2624 212.053 36.1302 210.932Z" fill="#0000FF"/>
<path d="M48.2367 214.192V205.866H45.2631V204.171H53.2269V205.866H50.2601V214.192H48.2367Z" fill="#0000FF"/>
<path d="M54.5394 214.192V204.171H61.9701V205.866H56.5629V208.088H61.5941V209.776H56.5629V212.504H62.1615V214.192H54.5394Z" fill="#0000FF"/>
<path d="M1011.38 828.88V786.41M1032.61 807.65H990.15" stroke="#0000FF" stroke-width="3" stroke-miterlimit="10" stroke-linecap="round"/>
<path d="M1375.13 842.722C1375.21 842.736 1375.29 842.75 1375.37 842.758C1375.4 842.758 1375.42 842.767 1375.45 842.768C1375.51 842.768 1375.57 842.768 1375.64 842.768C1375.7 842.768 1375.76 842.776 1375.83 842.768C1375.85 842.768 1375.88 842.759 1375.9 842.758C1375.99 842.75 1376.07 842.736 1376.15 842.722C1376.23 842.71 1376.31 842.694 1376.39 842.673C1376.45 842.655 1376.51 842.634 1376.57 842.609C1376.64 842.584 1376.71 842.555 1376.77 842.521C1376.81 842.498 1376.85 842.471 1376.88 842.44C1376.93 842.404 1376.98 842.36 1377.02 842.31C1377.02 842.302 1377.04 842.295 1377.04 842.286C1377.05 842.277 1380.21 836.925 1384.31 831.145C1388.33 825.397 1393.61 819.109 1396.85 817.717C1397.42 817.461 1397.42 817.043 1396.84 816.789C1396.18 816.533 1395.45 816.533 1394.78 816.789C1390.54 818.759 1385.73 824.901 1381.53 830.747C1379.85 833.127 1378.32 835.434 1377.1 837.329V784.657C1377.1 784.293 1376.44 784 1375.64 784C1374.83 784 1374.17 784.293 1374.17 784.657V837.329C1372.95 835.429 1371.42 833.129 1369.74 830.747C1365.54 824.901 1360.73 818.759 1356.49 816.789C1355.83 816.533 1355.09 816.533 1354.43 816.789C1353.85 817.043 1353.85 817.461 1354.42 817.717C1357.66 819.109 1362.94 825.397 1366.96 831.145C1371.06 836.925 1374.22 842.275 1374.23 842.286C1374.24 842.297 1374.25 842.302 1374.25 842.31C1374.29 842.36 1374.34 842.404 1374.39 842.44C1374.42 842.471 1374.46 842.498 1374.5 842.521C1374.56 842.555 1374.63 842.584 1374.7 842.609C1374.76 842.633 1374.82 842.655 1374.88 842.673C1374.96 842.694 1375.04 842.71 1375.13 842.722Z" fill="#0000FF"/>
<path d="M866.9 107.59V65.12M888.13 86.35H845.66" stroke="#0000FF" stroke-width="3" stroke-miterlimit="10" stroke-linecap="round"/>
</svg>
