<svg width="377" height="667" viewBox="0 0 377 667" fill="none" xmlns="http://www.w3.org/2000/svg">
<path d="M323.22 614.983C323.259 614.99 323.295 614.996 323.335 614.999C323.347 614.999 323.358 614.999 323.37 615.004C323.4 615.004 323.428 615.004 323.458 615.004C323.488 615.004 323.516 615.004 323.546 615.004C323.558 615.004 323.569 615.004 323.58 614.999C323.619 614.999 323.656 614.989 323.695 614.983C323.733 614.978 323.77 614.97 323.807 614.961C323.835 614.953 323.863 614.943 323.89 614.931C323.922 614.919 323.953 614.906 323.983 614.89C324.001 614.879 324.018 614.867 324.034 614.853C324.058 614.836 324.079 614.816 324.097 614.793C324.097 614.793 324.106 614.786 324.109 614.782C324.112 614.778 325.575 612.3 327.473 609.625C329.334 606.964 331.773 604.054 333.273 603.41C333.537 603.291 333.537 603.098 333.273 602.981C332.966 602.863 332.627 602.863 332.32 602.981C330.356 603.893 328.131 606.735 326.188 609.441C325.408 610.541 324.699 611.61 324.135 612.488V588.109C324.135 587.94 323.835 587.809 323.459 587.809C323.083 587.809 322.782 587.944 322.782 588.109V612.488C322.218 611.611 321.51 610.543 320.729 609.441C318.787 606.735 316.56 603.893 314.597 602.981C314.29 602.863 313.95 602.863 313.643 602.981C313.377 603.098 313.377 603.292 313.643 603.41C315.143 604.054 317.585 606.964 319.443 609.625C321.343 612.3 322.802 614.776 322.807 614.782C322.812 614.788 322.816 614.789 322.819 614.793C322.837 614.816 322.859 614.836 322.883 614.853C322.898 614.867 322.915 614.879 322.933 614.89C322.963 614.906 322.995 614.919 323.027 614.931C323.054 614.943 323.082 614.953 323.11 614.961C323.146 614.97 323.183 614.978 323.22 614.983Z" fill="#0000FF"/>
<path d="M376.445 601.615H0.588989M376.445 534.742H0.588989M376.445 467.868H0.588989M376.445 400.995H0.588989M376.445 334.121H0.588989M376.445 267.247H0.588989M376.445 200.374H0.588989M376.445 133.5H0.588989M376.445 66.627H0.588989M75.682 0V666.5M150.872 0V666.5M226.063 0V666.5M301.253 0V666.5" stroke="#0000FF" stroke-width="0.982" stroke-miterlimit="10"/>
<path d="M166.319 100.015V95.7202H167.939C168.224 95.7202 168.442 95.7339 168.592 95.7612C168.803 95.7964 168.98 95.8638 169.123 95.9634C169.265 96.061 169.379 96.1987 169.465 96.3765C169.553 96.5542 169.597 96.7495 169.597 96.9624C169.597 97.3276 169.481 97.6372 169.249 97.8911C169.016 98.1431 168.596 98.269 167.989 98.269H166.887V100.015H166.319ZM166.887 97.7622H167.998C168.365 97.7622 168.626 97.6938 168.78 97.5571C168.934 97.4204 169.011 97.228 169.011 96.98C169.011 96.8003 168.965 96.647 168.874 96.52C168.784 96.3911 168.665 96.3062 168.516 96.2651C168.42 96.2397 168.244 96.2271 167.986 96.2271H166.887V97.7622Z" fill="#0000FF"/>
<path d="M170.242 100.015V95.7202H170.769V100.015H170.242Z" fill="#0000FF"/>
<path d="M173.62 99.6313C173.424 99.7974 173.236 99.9146 173.054 99.9829C172.875 100.051 172.681 100.085 172.474 100.085C172.132 100.085 171.87 100.002 171.686 99.8364C171.503 99.6685 171.411 99.4546 171.411 99.1948C171.411 99.0425 171.445 98.9038 171.513 98.7788C171.584 98.6519 171.674 98.5503 171.786 98.4741C171.899 98.3979 172.026 98.3403 172.167 98.3013C172.27 98.2739 172.426 98.2476 172.635 98.2222C173.061 98.1714 173.375 98.1108 173.576 98.0405C173.578 97.9683 173.579 97.9224 173.579 97.9028C173.579 97.688 173.529 97.5366 173.429 97.4487C173.294 97.3296 173.094 97.27 172.829 97.27C172.581 97.27 172.397 97.314 172.278 97.4019C172.161 97.4878 172.074 97.6411 172.017 97.8618L171.502 97.7915C171.548 97.5708 171.626 97.3931 171.733 97.2583C171.84 97.1216 171.996 97.0171 172.199 96.9448C172.402 96.8706 172.637 96.8335 172.905 96.8335C173.17 96.8335 173.386 96.8647 173.552 96.9272C173.718 96.9897 173.84 97.0688 173.919 97.1646C173.997 97.2583 174.051 97.3774 174.083 97.522C174.1 97.6118 174.109 97.7739 174.109 98.0083V98.7114C174.109 99.2017 174.12 99.5122 174.141 99.6431C174.165 99.772 174.21 99.896 174.276 100.015H173.725C173.67 99.9058 173.635 99.7778 173.62 99.6313ZM173.576 98.4536C173.384 98.5317 173.097 98.5981 172.714 98.6528C172.498 98.6841 172.344 98.7192 172.254 98.7583C172.165 98.7974 172.095 98.855 172.046 98.9312C171.998 99.0054 171.973 99.0884 171.973 99.1802C171.973 99.3208 172.026 99.438 172.131 99.5317C172.239 99.6255 172.395 99.6724 172.6 99.6724C172.803 99.6724 172.984 99.6284 173.142 99.5405C173.3 99.4507 173.417 99.3286 173.491 99.1743C173.547 99.0552 173.576 98.8794 173.576 98.647V98.4536Z" fill="#0000FF"/>
<path d="M174.651 100.015V99.5874L176.631 97.314C176.407 97.3257 176.209 97.3315 176.037 97.3315H174.768V96.9038H177.311V97.2524L175.627 99.2271L175.301 99.5874C175.538 99.5698 175.759 99.561 175.966 99.561H177.405V100.015H174.651Z" fill="#0000FF"/>
<path d="M179.96 99.6313C179.764 99.7974 179.576 99.9146 179.394 99.9829C179.214 100.051 179.021 100.085 178.814 100.085C178.472 100.085 178.21 100.002 178.026 99.8364C177.842 99.6685 177.751 99.4546 177.751 99.1948C177.751 99.0425 177.785 98.9038 177.853 98.7788C177.923 98.6519 178.014 98.5503 178.126 98.4741C178.239 98.3979 178.366 98.3403 178.506 98.3013C178.61 98.2739 178.766 98.2476 178.975 98.2222C179.401 98.1714 179.714 98.1108 179.916 98.0405C179.918 97.9683 179.919 97.9224 179.919 97.9028C179.919 97.688 179.869 97.5366 179.769 97.4487C179.634 97.3296 179.434 97.27 179.169 97.27C178.92 97.27 178.737 97.314 178.618 97.4019C178.501 97.4878 178.414 97.6411 178.357 97.8618L177.841 97.7915C177.888 97.5708 177.965 97.3931 178.073 97.2583C178.18 97.1216 178.336 97.0171 178.539 96.9448C178.742 96.8706 178.977 96.8335 179.245 96.8335C179.51 96.8335 179.726 96.8647 179.892 96.9272C180.058 96.9897 180.18 97.0688 180.258 97.1646C180.336 97.2583 180.391 97.3774 180.422 97.522C180.44 97.6118 180.449 97.7739 180.449 98.0083V98.7114C180.449 99.2017 180.46 99.5122 180.481 99.6431C180.504 99.772 180.549 99.896 180.616 100.015H180.065C180.01 99.9058 179.975 99.7778 179.96 99.6313ZM179.916 98.4536C179.724 98.5317 179.437 98.5981 179.054 98.6528C178.837 98.6841 178.684 98.7192 178.594 98.7583C178.504 98.7974 178.435 98.855 178.386 98.9312C178.337 99.0054 178.313 99.0884 178.313 99.1802C178.313 99.3208 178.366 99.438 178.471 99.5317C178.579 99.6255 178.735 99.6724 178.94 99.6724C179.143 99.6724 179.324 99.6284 179.482 99.5405C179.64 99.4507 179.756 99.3286 179.831 99.1743C179.887 99.0552 179.916 98.8794 179.916 98.647V98.4536Z" fill="#0000FF"/>
<path d="M184.958 100.015V99.6226C184.76 99.9312 184.47 100.085 184.087 100.085C183.839 100.085 183.611 100.017 183.402 99.8804C183.195 99.7437 183.034 99.5532 182.919 99.3091C182.805 99.063 182.749 98.7808 182.749 98.4624C182.749 98.1519 182.8 97.8706 182.904 97.6187C183.007 97.3647 183.163 97.1704 183.37 97.0356C183.577 96.9009 183.808 96.8335 184.064 96.8335C184.252 96.8335 184.419 96.8735 184.565 96.9536C184.711 97.0317 184.831 97.1343 184.922 97.2612V95.7202H185.447V100.015H184.958ZM183.291 98.4624C183.291 98.8608 183.375 99.1587 183.543 99.356C183.711 99.5532 183.909 99.6519 184.137 99.6519C184.368 99.6519 184.563 99.5581 184.723 99.3706C184.885 99.1812 184.966 98.8931 184.966 98.5063C184.966 98.0806 184.884 97.7681 184.72 97.5688C184.556 97.3696 184.354 97.27 184.114 97.27C183.879 97.27 183.683 97.3657 183.525 97.5571C183.369 97.7485 183.291 98.0503 183.291 98.4624Z" fill="#0000FF"/>
<path d="M188.409 99.0132L188.954 99.0806C188.868 99.3989 188.709 99.646 188.476 99.8218C188.244 99.9976 187.947 100.085 187.586 100.085C187.13 100.085 186.769 99.9458 186.502 99.6665C186.236 99.3853 186.103 98.9917 186.103 98.4858C186.103 97.9624 186.238 97.5562 186.507 97.2671C186.777 96.978 187.127 96.8335 187.556 96.8335C187.972 96.8335 188.312 96.9751 188.576 97.2583C188.839 97.5415 188.971 97.9399 188.971 98.4536C188.971 98.4849 188.97 98.5317 188.968 98.5942H186.648C186.668 98.936 186.764 99.1978 186.938 99.3794C187.112 99.561 187.329 99.6519 187.588 99.6519C187.782 99.6519 187.947 99.6011 188.084 99.4995C188.22 99.3979 188.329 99.2358 188.409 99.0132ZM186.677 98.1606H188.415C188.391 97.8989 188.325 97.7026 188.215 97.5718C188.047 97.3687 187.83 97.2671 187.562 97.2671C187.32 97.2671 187.116 97.3481 186.95 97.5103C186.786 97.6724 186.695 97.8892 186.677 98.1606Z" fill="#0000FF"/>
<path d="M191.333 100.015V95.7202H192.944C193.272 95.7202 193.535 95.7642 193.732 95.8521C193.931 95.938 194.086 96.0718 194.198 96.2534C194.311 96.4331 194.368 96.6216 194.368 96.8188C194.368 97.0024 194.318 97.1753 194.218 97.3374C194.119 97.4995 193.968 97.6304 193.767 97.73C194.027 97.8062 194.226 97.936 194.365 98.1196C194.505 98.3032 194.576 98.52 194.576 98.77C194.576 98.9712 194.533 99.1587 194.447 99.3325C194.363 99.5044 194.258 99.6372 194.133 99.731C194.008 99.8247 193.851 99.896 193.662 99.9448C193.474 99.9917 193.244 100.015 192.97 100.015H191.333ZM191.901 97.5249H192.83C193.082 97.5249 193.262 97.5083 193.372 97.4751C193.516 97.4321 193.625 97.3608 193.697 97.2612C193.771 97.1616 193.808 97.0366 193.808 96.8862C193.808 96.7437 193.774 96.6187 193.706 96.5112C193.637 96.4019 193.54 96.3276 193.413 96.2886C193.286 96.2476 193.068 96.2271 192.759 96.2271H191.901V97.5249ZM191.901 99.5083H192.97C193.154 99.5083 193.283 99.5015 193.357 99.4878C193.488 99.4644 193.597 99.4253 193.685 99.3706C193.773 99.3159 193.845 99.2368 193.902 99.1333C193.959 99.0278 193.987 98.9067 193.987 98.77C193.987 98.6099 193.946 98.4712 193.864 98.354C193.782 98.2349 193.668 98.1519 193.521 98.105C193.377 98.0562 193.168 98.0317 192.894 98.0317H191.901V99.5083Z" fill="#0000FF"/>
<path d="M195.094 98.4595C195.094 97.8833 195.254 97.4565 195.575 97.1792C195.842 96.9487 196.169 96.8335 196.553 96.8335C196.981 96.8335 197.331 96.9741 197.602 97.2554C197.874 97.5347 198.009 97.9214 198.009 98.4155C198.009 98.8159 197.949 99.1313 197.828 99.3618C197.709 99.5903 197.534 99.7681 197.303 99.895C197.075 100.022 196.825 100.085 196.553 100.085C196.118 100.085 195.765 99.9458 195.496 99.6665C195.228 99.3872 195.094 98.9849 195.094 98.4595ZM195.636 98.4595C195.636 98.8579 195.723 99.1567 195.897 99.356C196.071 99.5532 196.29 99.6519 196.553 99.6519C196.815 99.6519 197.033 99.5522 197.207 99.353C197.38 99.1538 197.467 98.8501 197.467 98.4419C197.467 98.0571 197.379 97.7661 197.204 97.5688C197.03 97.3696 196.813 97.27 196.553 97.27C196.29 97.27 196.071 97.3687 195.897 97.5659C195.723 97.7632 195.636 98.061 195.636 98.4595Z" fill="#0000FF"/>
<path d="M198.619 100.015V95.7202H199.146V100.015H198.619Z" fill="#0000FF"/>
<path d="M200.151 100.015V96.9038H200.678V100.015H200.151ZM200.125 96.5171L200.514 95.6968H201.206L200.561 96.5171H200.125Z" fill="#0000FF"/>
<path d="M202.501 100.015L201.317 96.9038H201.874L202.542 98.7671C202.614 98.9683 202.68 99.1772 202.741 99.394C202.788 99.23 202.853 99.0327 202.937 98.8022L203.628 96.9038H204.17L202.993 100.015H202.501Z" fill="#0000FF"/>
<path d="M206.667 99.6313C206.471 99.7974 206.283 99.9146 206.101 99.9829C205.921 100.051 205.728 100.085 205.521 100.085C205.179 100.085 204.917 100.002 204.733 99.8364C204.549 99.6685 204.458 99.4546 204.458 99.1948C204.458 99.0425 204.492 98.9038 204.56 98.7788C204.63 98.6519 204.721 98.5503 204.833 98.4741C204.946 98.3979 205.073 98.3403 205.213 98.3013C205.317 98.2739 205.473 98.2476 205.682 98.2222C206.108 98.1714 206.421 98.1108 206.623 98.0405C206.625 97.9683 206.626 97.9224 206.626 97.9028C206.626 97.688 206.576 97.5366 206.476 97.4487C206.341 97.3296 206.141 97.27 205.876 97.27C205.628 97.27 205.444 97.314 205.325 97.4019C205.208 97.4878 205.121 97.6411 205.064 97.8618L204.548 97.7915C204.595 97.5708 204.672 97.3931 204.78 97.2583C204.887 97.1216 205.043 97.0171 205.246 96.9448C205.449 96.8706 205.684 96.8335 205.952 96.8335C206.217 96.8335 206.433 96.8647 206.599 96.9272C206.765 96.9897 206.887 97.0688 206.965 97.1646C207.044 97.2583 207.098 97.3774 207.129 97.522C207.147 97.6118 207.156 97.7739 207.156 98.0083V98.7114C207.156 99.2017 207.167 99.5122 207.188 99.6431C207.211 99.772 207.256 99.896 207.323 100.015H206.772C206.717 99.9058 206.682 99.7778 206.667 99.6313ZM206.623 98.4536C206.431 98.5317 206.144 98.5981 205.761 98.6528C205.544 98.6841 205.391 98.7192 205.301 98.7583C205.211 98.7974 205.142 98.855 205.093 98.9312C205.044 99.0054 205.02 99.0884 205.02 99.1802C205.02 99.3208 205.073 99.438 205.178 99.5317C205.286 99.6255 205.442 99.6724 205.647 99.6724C205.85 99.6724 206.031 99.6284 206.189 99.5405C206.347 99.4507 206.463 99.3286 206.538 99.1743C206.594 99.0552 206.623 98.8794 206.623 98.647V98.4536Z" fill="#0000FF"/>
<path d="M207.97 100.015V96.9038H208.445V97.3755C208.566 97.1548 208.677 97.0093 208.779 96.939C208.882 96.8687 208.996 96.8335 209.119 96.8335C209.296 96.8335 209.477 96.8901 209.661 97.0034L209.479 97.4927C209.35 97.4165 209.221 97.3784 209.092 97.3784C208.977 97.3784 208.874 97.4136 208.782 97.4839C208.69 97.5522 208.625 97.6479 208.586 97.771C208.527 97.9585 208.498 98.1636 208.498 98.3862V100.015H207.97Z" fill="#0000FF"/>
<path d="M145.972 379.654L146.116 379.085C146.583 379.205 146.939 379.419 147.185 379.73C147.429 380.039 147.551 380.417 147.551 380.864C147.551 381.327 147.458 381.704 147.27 381.995C147.081 382.284 146.807 382.504 146.45 382.657C146.092 382.807 145.708 382.882 145.298 382.882C144.851 382.882 144.461 382.797 144.129 382.627C143.795 382.456 143.542 382.212 143.371 381.898C143.197 381.582 143.11 381.234 143.11 380.855C143.11 380.425 143.219 380.064 143.438 379.771C143.657 379.478 143.964 379.274 144.361 379.159L144.493 379.718C144.18 379.818 143.953 379.962 143.81 380.152C143.667 380.341 143.596 380.58 143.596 380.867C143.596 381.197 143.675 381.473 143.833 381.696C143.992 381.917 144.205 382.072 144.472 382.162C144.738 382.251 145.012 382.296 145.295 382.296C145.661 382.296 145.98 382.244 146.253 382.138C146.525 382.031 146.728 381.865 146.863 381.64C146.998 381.416 147.065 381.172 147.065 380.911C147.065 380.592 146.973 380.323 146.79 380.102C146.606 379.881 146.333 379.732 145.972 379.654Z" fill="#0000FF"/>
<path d="M147.094 376.419C147.26 376.615 147.377 376.803 147.446 376.985C147.514 377.165 147.548 377.358 147.548 377.565C147.548 377.907 147.465 378.169 147.299 378.353C147.131 378.537 146.917 378.628 146.658 378.628C146.505 378.628 146.367 378.594 146.242 378.526C146.115 378.456 146.013 378.365 145.937 378.253C145.861 378.14 145.803 378.013 145.764 377.873C145.737 377.769 145.71 377.613 145.685 377.404C145.634 376.978 145.574 376.665 145.503 376.463C145.431 376.461 145.385 376.46 145.366 376.46C145.151 376.46 145 376.51 144.912 376.61C144.792 376.745 144.733 376.945 144.733 377.21C144.733 377.458 144.777 377.642 144.865 377.761C144.951 377.878 145.104 377.965 145.325 378.022L145.254 378.538C145.034 378.491 144.856 378.414 144.721 378.306C144.584 378.199 144.48 378.043 144.408 377.84C144.333 377.637 144.296 377.402 144.296 377.134C144.296 376.869 144.328 376.653 144.39 376.487C144.453 376.321 144.532 376.199 144.627 376.121C144.721 376.042 144.84 375.988 144.985 375.957C145.075 375.939 145.237 375.93 145.471 375.93H146.174C146.665 375.93 146.975 375.919 147.106 375.898C147.235 375.875 147.359 375.83 147.478 375.763V376.314C147.369 376.369 147.241 376.404 147.094 376.419ZM145.917 376.463C145.995 376.655 146.061 376.942 146.116 377.325C146.147 377.542 146.182 377.695 146.221 377.785C146.26 377.875 146.318 377.944 146.394 377.993C146.468 378.042 146.551 378.066 146.643 378.066C146.784 378.066 146.901 378.013 146.995 377.908C147.088 377.8 147.135 377.644 147.135 377.439C147.135 377.236 147.091 377.055 147.003 376.897C146.914 376.739 146.792 376.623 146.637 376.548C146.518 376.492 146.342 376.463 146.11 376.463H145.917Z" fill="#0000FF"/>
<path d="M147.478 375.122H143.183V374.594H147.478V375.122Z" fill="#0000FF"/>
<path d="M147.478 373.786H143.183V373.258H147.478V373.786Z" fill="#0000FF"/>
<path d="M146.476 370.308L146.543 369.763C146.862 369.849 147.109 370.008 147.285 370.241C147.46 370.473 147.548 370.77 147.548 371.131C147.548 371.586 147.409 371.948 147.129 372.215C146.848 372.481 146.455 372.614 145.949 372.614C145.425 372.614 145.019 372.479 144.73 372.209C144.441 371.94 144.296 371.59 144.296 371.161C144.296 370.745 144.438 370.405 144.721 370.141C145.004 369.877 145.403 369.746 145.917 369.746C145.948 369.746 145.995 369.747 146.057 369.749V372.069C146.399 372.049 146.661 371.953 146.842 371.779C147.024 371.605 147.115 371.388 147.115 371.128C147.115 370.935 147.064 370.77 146.962 370.633C146.861 370.497 146.699 370.388 146.476 370.308ZM145.624 372.04V370.302C145.362 370.326 145.166 370.392 145.035 370.501C144.832 370.669 144.73 370.887 144.73 371.155C144.73 371.397 144.811 371.601 144.973 371.767C145.135 371.931 145.352 372.022 145.624 372.04Z" fill="#0000FF"/>
<path d="M147.478 365.588V366.116H144.118C144.239 366.243 144.36 366.41 144.481 366.617C144.602 366.822 144.693 367.006 144.753 367.17H144.244C144.105 366.875 143.937 366.618 143.74 366.397C143.542 366.176 143.351 366.02 143.166 365.928V365.588H147.478Z" fill="#0000FF"/>
<path d="M146.485 364.156L146.438 363.649C146.676 363.606 146.849 363.524 146.957 363.403C147.064 363.282 147.118 363.126 147.118 362.937C147.118 362.775 147.081 362.633 147.006 362.512C146.932 362.389 146.833 362.289 146.71 362.21C146.585 362.132 146.417 362.067 146.207 362.014C145.996 361.961 145.781 361.935 145.562 361.935C145.539 361.935 145.503 361.936 145.457 361.938C145.625 362.043 145.761 362.188 145.867 362.372C145.97 362.553 146.022 362.75 146.022 362.963C146.022 363.319 145.893 363.62 145.635 363.866C145.377 364.112 145.038 364.235 144.616 364.235C144.18 364.235 143.83 364.107 143.564 363.851C143.298 363.593 143.166 363.271 143.166 362.884C143.166 362.605 143.241 362.35 143.391 362.12C143.542 361.887 143.756 361.711 144.036 361.592C144.313 361.471 144.715 361.411 145.243 361.411C145.792 361.411 146.229 361.47 146.555 361.589C146.879 361.708 147.126 361.886 147.296 362.123C147.466 362.357 147.551 362.632 147.551 362.949C147.551 363.285 147.458 363.559 147.273 363.772C147.085 363.985 146.823 364.113 146.485 364.156ZM144.589 361.997C144.287 361.997 144.046 362.078 143.869 362.24C143.691 362.4 143.602 362.593 143.602 362.82C143.602 363.054 143.698 363.258 143.889 363.432C144.081 363.606 144.329 363.693 144.633 363.693C144.907 363.693 145.129 363.611 145.301 363.447C145.471 363.281 145.556 363.077 145.556 362.834C145.556 362.59 145.471 362.39 145.301 362.234C145.129 362.076 144.892 361.997 144.589 361.997Z" fill="#0000FF"/>
<path d="M32.8384 382.249V377.954H34.4498C34.7779 377.954 35.0406 377.998 35.2379 378.086C35.4371 378.172 35.5923 378.306 35.7037 378.487C35.817 378.667 35.8736 378.855 35.8736 379.053C35.8736 379.236 35.8238 379.409 35.7242 379.571C35.6246 379.733 35.4742 379.864 35.273 379.964C35.5328 380.04 35.732 380.17 35.8707 380.354C36.0113 380.537 36.0816 380.754 36.0816 381.004C36.0816 381.205 36.0386 381.393 35.9527 381.566C35.8687 381.738 35.7642 381.871 35.6392 381.965C35.5142 382.059 35.357 382.13 35.1675 382.179C34.98 382.226 34.7496 382.249 34.4761 382.249H32.8384ZM33.4068 379.759H34.3355C34.5875 379.759 34.7681 379.742 34.8775 379.709C35.022 379.666 35.1304 379.595 35.2027 379.495C35.2769 379.396 35.314 379.271 35.314 379.12C35.314 378.978 35.2798 378.853 35.2115 378.745C35.1431 378.636 35.0455 378.562 34.9185 378.522C34.7916 378.481 34.5738 378.461 34.2652 378.461H33.4068V379.759ZM33.4068 381.742H34.4761C34.6597 381.742 34.7886 381.735 34.8629 381.722C34.9937 381.698 35.1031 381.659 35.191 381.604C35.2789 381.55 35.3511 381.471 35.4078 381.367C35.4644 381.262 35.4927 381.141 35.4927 381.004C35.4927 380.844 35.4517 380.705 35.3697 380.588C35.2877 380.469 35.1734 380.386 35.0269 380.339C34.8824 380.29 34.6734 380.266 34.4 380.266H33.4068V381.742Z" fill="#0000FF"/>
<path d="M38.8267 381.865C38.6314 382.031 38.4429 382.148 38.2613 382.217C38.0816 382.285 37.8882 382.319 37.6812 382.319C37.3394 382.319 37.0767 382.236 36.8931 382.07C36.7095 381.902 36.6177 381.688 36.6177 381.429C36.6177 381.276 36.6519 381.138 36.7203 381.013C36.7906 380.886 36.8814 380.784 36.9927 380.708C37.106 380.632 37.233 380.574 37.3736 380.535C37.4771 380.508 37.6334 380.481 37.8423 380.456C38.2681 380.405 38.5816 380.345 38.7828 380.274C38.7847 380.202 38.7857 380.156 38.7857 380.137C38.7857 379.922 38.7359 379.771 38.6363 379.683C38.5015 379.563 38.3013 379.504 38.0357 379.504C37.7877 379.504 37.6041 379.548 37.4849 379.636C37.3677 379.722 37.2808 379.875 37.2242 380.096L36.7086 380.025C36.7554 379.805 36.8326 379.627 36.94 379.492C37.0474 379.355 37.2027 379.251 37.4058 379.179C37.6089 379.104 37.8443 379.067 38.1119 379.067C38.3775 379.067 38.5933 379.099 38.7593 379.161C38.9254 379.224 39.0474 379.303 39.1255 379.398C39.2037 379.492 39.2584 379.611 39.2896 379.756C39.3072 379.846 39.316 380.008 39.316 380.242V380.945C39.316 381.436 39.3267 381.746 39.3482 381.877C39.3716 382.006 39.4166 382.13 39.483 382.249H38.9322C38.8775 382.14 38.8423 382.012 38.8267 381.865ZM38.7828 380.688C38.5914 380.766 38.3043 380.832 37.9214 380.887C37.7047 380.918 37.5513 380.953 37.4615 380.992C37.3716 381.031 37.3023 381.089 37.2535 381.165C37.2047 381.239 37.1802 381.322 37.1802 381.414C37.1802 381.555 37.233 381.672 37.3384 381.766C37.4459 381.859 37.6021 381.906 37.8072 381.906C38.0103 381.906 38.191 381.862 38.3492 381.774C38.5074 381.685 38.6236 381.562 38.6978 381.408C38.7545 381.289 38.7828 381.113 38.7828 380.881V380.688Z" fill="#0000FF"/>
<path d="M40.1304 382.249V379.138H40.605V379.609C40.7261 379.389 40.8375 379.243 40.939 379.173C41.0425 379.103 41.1558 379.067 41.2789 379.067C41.4566 379.067 41.6373 379.124 41.8209 379.237L41.6392 379.727C41.5103 379.65 41.3814 379.612 41.2525 379.612C41.1373 379.612 41.0338 379.647 40.942 379.718C40.8502 379.786 40.7847 379.882 40.7457 380.005C40.6871 380.192 40.6578 380.397 40.6578 380.62V382.249H40.1304Z" fill="#0000FF"/>
<path d="M42.1285 382.249V379.138H42.6031V379.609C42.7242 379.389 42.8355 379.243 42.9371 379.173C43.0406 379.103 43.1539 379.067 43.2769 379.067C43.4547 379.067 43.6353 379.124 43.8189 379.237L43.6373 379.727C43.5084 379.65 43.3795 379.612 43.2505 379.612C43.1353 379.612 43.0318 379.647 42.94 379.718C42.8482 379.786 42.7828 379.882 42.7437 380.005C42.6851 380.192 42.6558 380.397 42.6558 380.62V382.249H42.1285Z" fill="#0000FF"/>
<path d="M44.1353 378.561V377.954H44.6627V378.561H44.1353ZM44.1353 382.249V379.138H44.6627V382.249H44.1353Z" fill="#0000FF"/>
<path d="M45.272 380.693C45.272 380.117 45.4322 379.69 45.7525 379.413C46.0201 379.183 46.3463 379.067 46.731 379.067C47.1588 379.067 47.5084 379.208 47.7798 379.489C48.0513 379.769 48.1871 380.155 48.1871 380.649C48.1871 381.05 48.1265 381.365 48.0054 381.596C47.8863 381.824 47.7115 382.002 47.481 382.129C47.2525 382.256 47.0025 382.319 46.731 382.319C46.2955 382.319 45.9429 382.18 45.6734 381.9C45.4058 381.621 45.272 381.219 45.272 380.693ZM45.814 380.693C45.814 381.092 45.9009 381.391 46.0748 381.59C46.2486 381.787 46.4673 381.886 46.731 381.886C46.9927 381.886 47.2105 381.786 47.3843 381.587C47.5582 381.388 47.6451 381.084 47.6451 380.676C47.6451 380.291 47.5572 380 47.3814 379.803C47.2076 379.604 46.9908 379.504 46.731 379.504C46.4673 379.504 46.2486 379.603 46.0748 379.8C45.9009 379.997 45.814 380.295 45.814 380.693Z" fill="#0000FF"/>
<path d="M50.3521 380.869L50.8882 380.822C50.9136 381.037 50.9722 381.214 51.064 381.353C51.1578 381.489 51.3023 381.601 51.4976 381.687C51.6929 381.771 51.9127 381.812 52.1568 381.812C52.3736 381.812 52.565 381.78 52.731 381.716C52.897 381.651 53.0201 381.563 53.1002 381.452C53.1822 381.339 53.2232 381.216 53.2232 381.083C53.2232 380.948 53.1841 380.831 53.106 380.731C53.0279 380.63 52.899 380.545 52.7193 380.477C52.6041 380.432 52.3492 380.362 51.9547 380.269C51.5601 380.173 51.2838 380.083 51.1255 379.999C50.9205 379.892 50.7672 379.759 50.6656 379.601C50.566 379.44 50.5162 379.262 50.5162 379.064C50.5162 378.848 50.5777 378.646 50.7007 378.458C50.8238 378.269 51.0035 378.125 51.2398 378.027C51.4761 377.93 51.7388 377.881 52.0279 377.881C52.3463 377.881 52.6265 377.933 52.8687 378.036C53.1129 378.138 53.3004 378.288 53.4312 378.487C53.5621 378.687 53.6324 378.912 53.6422 379.164L53.0972 379.205C53.0679 378.934 52.9683 378.729 52.7984 378.59C52.6304 378.451 52.3814 378.382 52.0513 378.382C51.7076 378.382 51.4566 378.445 51.2984 378.572C51.1422 378.697 51.064 378.849 51.064 379.026C51.064 379.181 51.1197 379.308 51.231 379.407C51.3404 379.507 51.6255 379.609 52.0865 379.715C52.5494 379.818 52.8668 379.909 53.0386 379.987C53.2886 380.103 53.4732 380.249 53.5923 380.427C53.7115 380.603 53.7711 380.806 53.7711 381.036C53.7711 381.265 53.7056 381.48 53.5748 381.684C53.4439 381.885 53.2554 382.042 53.0093 382.155C52.7652 382.267 52.4898 382.322 52.1832 382.322C51.7945 382.322 51.4683 382.266 51.2047 382.152C50.9429 382.039 50.7369 381.869 50.5865 381.643C50.438 381.414 50.3599 381.156 50.3521 380.869Z" fill="#0000FF"/>
<path d="M56.5103 381.865C56.315 382.031 56.1265 382.148 55.9449 382.217C55.7652 382.285 55.5718 382.319 55.3648 382.319C55.023 382.319 54.7603 382.236 54.5767 382.07C54.3931 381.902 54.3013 381.688 54.3013 381.429C54.3013 381.276 54.3355 381.138 54.4039 381.013C54.4742 380.886 54.565 380.784 54.6763 380.708C54.7896 380.632 54.9166 380.574 55.0572 380.535C55.1607 380.508 55.317 380.481 55.5259 380.456C55.9517 380.405 56.2652 380.345 56.4664 380.274C56.4683 380.202 56.4693 380.156 56.4693 380.137C56.4693 379.922 56.4195 379.771 56.3199 379.683C56.1851 379.563 55.9849 379.504 55.7193 379.504C55.4713 379.504 55.2877 379.548 55.1685 379.636C55.0513 379.722 54.9644 379.875 54.9078 380.096L54.3922 380.025C54.439 379.805 54.5162 379.627 54.6236 379.492C54.731 379.355 54.8863 379.251 55.0894 379.179C55.2925 379.104 55.5279 379.067 55.7955 379.067C56.0611 379.067 56.2769 379.099 56.4429 379.161C56.6089 379.224 56.731 379.303 56.8091 379.398C56.8873 379.492 56.942 379.611 56.9732 379.756C56.9908 379.846 56.9996 380.008 56.9996 380.242V380.945C56.9996 381.436 57.0103 381.746 57.0318 381.877C57.0552 382.006 57.1002 382.13 57.1666 382.249H56.6158C56.5611 382.14 56.5259 382.012 56.5103 381.865ZM56.4664 380.688C56.275 380.766 55.9879 380.832 55.605 380.887C55.3882 380.918 55.2349 380.953 55.1451 380.992C55.0552 381.031 54.9859 381.089 54.9371 381.165C54.8882 381.239 54.8638 381.322 54.8638 381.414C54.8638 381.555 54.9166 381.672 55.022 381.766C55.1295 381.859 55.2857 381.906 55.4908 381.906C55.6939 381.906 55.8746 381.862 56.0328 381.774C56.191 381.685 56.3072 381.562 56.3814 381.408C56.438 381.289 56.4664 381.113 56.4664 380.881V380.688Z" fill="#0000FF"/>
<path d="M57.8199 382.249V379.138H58.2945V379.58C58.523 379.238 58.8531 379.067 59.2847 379.067C59.4722 379.067 59.6441 379.102 59.8004 379.17C59.9586 379.236 60.0767 379.324 60.1548 379.434C60.233 379.543 60.2877 379.673 60.3189 379.823C60.3384 379.921 60.3482 380.092 60.3482 380.336V382.249H59.8209V380.356C59.8209 380.142 59.8004 379.981 59.7593 379.876C59.7183 379.769 59.6451 379.684 59.5396 379.621C59.4361 379.557 59.314 379.524 59.1734 379.524C58.9488 379.524 58.7545 379.596 58.5904 379.738C58.4283 379.881 58.3472 380.151 58.3472 380.55V382.249H57.8199Z" fill="#0000FF"/>
<path d="M62.3111 381.777L62.3873 382.243C62.2388 382.274 62.106 382.29 61.9888 382.29C61.7974 382.29 61.649 382.26 61.5435 382.199C61.438 382.139 61.3638 382.06 61.3209 381.962C61.2779 381.862 61.2564 381.654 61.2564 381.338V379.548H60.8697V379.138H61.2564V378.367L61.7808 378.051V379.138H62.3111V379.548H61.7808V381.367C61.7808 381.518 61.7896 381.614 61.8072 381.657C61.8267 381.7 61.857 381.734 61.898 381.76C61.941 381.785 62.0015 381.798 62.0797 381.798C62.1382 381.798 62.2154 381.791 62.3111 381.777Z" fill="#0000FF"/>
<path d="M64.8599 381.865C64.6646 382.031 64.4761 382.148 64.2945 382.217C64.1148 382.285 63.9214 382.319 63.7144 382.319C63.3726 382.319 63.1099 382.236 62.9263 382.07C62.7427 381.902 62.6509 381.688 62.6509 381.429C62.6509 381.276 62.6851 381.138 62.7535 381.013C62.8238 380.886 62.9146 380.784 63.0259 380.708C63.1392 380.632 63.2662 380.574 63.4068 380.535C63.5103 380.508 63.6666 380.481 63.8755 380.456C64.3013 380.405 64.6148 380.345 64.816 380.274C64.8179 380.202 64.8189 380.156 64.8189 380.137C64.8189 379.922 64.7691 379.771 64.6695 379.683C64.5347 379.563 64.3345 379.504 64.0689 379.504C63.8209 379.504 63.6373 379.548 63.5181 379.636C63.4009 379.722 63.314 379.875 63.2574 380.096L62.7418 380.025C62.7886 379.805 62.8658 379.627 62.9732 379.492C63.0806 379.355 63.2359 379.251 63.439 379.179C63.6422 379.104 63.8775 379.067 64.1451 379.067C64.4107 379.067 64.6265 379.099 64.7925 379.161C64.9586 379.224 65.0806 379.303 65.1588 379.398C65.2369 379.492 65.2916 379.611 65.3228 379.756C65.3404 379.846 65.3492 380.008 65.3492 380.242V380.945C65.3492 381.436 65.3599 381.746 65.3814 381.877C65.4048 382.006 65.4498 382.13 65.5162 382.249H64.9654C64.9107 382.14 64.8755 382.012 64.8599 381.865ZM64.816 380.688C64.6246 380.766 64.3375 380.832 63.9547 380.887C63.7379 380.918 63.5845 380.953 63.4947 380.992C63.4048 381.031 63.3355 381.089 63.2867 381.165C63.2379 381.239 63.2134 381.322 63.2134 381.414C63.2134 381.555 63.2662 381.672 63.3716 381.766C63.4791 381.859 63.6353 381.906 63.8404 381.906C64.0435 381.906 64.2242 381.862 64.3824 381.774C64.5406 381.685 64.6568 381.562 64.731 381.408C64.7877 381.289 64.816 381.113 64.816 380.881V380.688Z" fill="#0000FF"/>
<path d="M66.2955 382.249V379.548H65.8297V379.138H66.2955V378.807C66.2955 378.598 66.314 378.442 66.3511 378.341C66.4019 378.204 66.4908 378.094 66.6177 378.01C66.7466 377.924 66.9263 377.881 67.1568 377.881C67.3052 377.881 67.4693 377.898 67.649 377.934L67.5699 378.394C67.4605 378.374 67.357 378.364 67.2593 378.364C67.0992 378.364 66.9859 378.398 66.9195 378.467C66.8531 378.535 66.8199 378.663 66.8199 378.851V379.138H67.4263V379.548H66.8199V382.249H66.2955Z" fill="#0000FF"/>
<path d="M69.9693 381.247L70.5142 381.314C70.4283 381.633 70.2691 381.88 70.0367 382.056C69.8043 382.231 69.5074 382.319 69.1461 382.319C68.691 382.319 68.3297 382.18 68.0621 381.9C67.7964 381.619 67.6636 381.226 67.6636 380.72C67.6636 380.196 67.7984 379.79 68.0679 379.501C68.3375 379.212 68.6871 379.067 69.1168 379.067C69.5328 379.067 69.8726 379.209 70.1363 379.492C70.4 379.775 70.5318 380.174 70.5318 380.688C70.5318 380.719 70.5308 380.766 70.5289 380.828H68.2086C68.2281 381.17 68.3248 381.432 68.4986 381.613C68.6724 381.795 68.8892 381.886 69.149 381.886C69.3423 381.886 69.5074 381.835 69.6441 381.733C69.7808 381.632 69.8892 381.47 69.9693 381.247ZM68.2379 380.395H69.9752C69.9517 380.133 69.8853 379.937 69.7759 379.806C69.608 379.603 69.3902 379.501 69.1226 379.501C68.8804 379.501 68.6763 379.582 68.5103 379.744C68.3463 379.906 68.2554 380.123 68.2379 380.395ZM68.8062 378.751L69.1959 377.931H69.8873L69.2427 378.751H68.8062Z" fill="#0000FF"/>
<path d="M53.825 352.722C51.9235 352.724 50.1005 353.48 48.756 354.825C47.4114 356.169 46.6551 357.992 46.653 359.894C46.653 365.359 53.092 371.821 53.365 372.094C53.487 372.215 53.6523 372.284 53.8245 372.284C53.9968 372.284 54.162 372.215 54.284 372.094C54.558 371.822 60.997 365.361 60.997 359.894C60.9949 357.992 60.2386 356.169 58.8941 354.825C57.5495 353.48 55.7265 352.724 53.825 352.722Z" fill="white" stroke="#0000FF" stroke-width="0.926" stroke-miterlimit="10"/>
<path d="M306.014 88.8818V84.5869H306.583V88.375H308.698V88.8818H306.014Z" fill="#0000FF"/>
<path d="M311.341 88.498C311.145 88.6641 310.957 88.7812 310.775 88.8496C310.595 88.918 310.402 88.9521 310.195 88.9521C309.853 88.9521 309.591 88.8691 309.407 88.7031C309.223 88.5352 309.132 88.3213 309.132 88.0615C309.132 87.9092 309.166 87.7705 309.234 87.6455C309.304 87.5186 309.395 87.417 309.507 87.3408C309.62 87.2646 309.747 87.207 309.887 87.168C309.991 87.1406 310.147 87.1143 310.356 87.0889C310.782 87.0381 311.095 86.9775 311.297 86.9072C311.299 86.835 311.3 86.7891 311.3 86.7695C311.3 86.5547 311.25 86.4033 311.15 86.3154C311.015 86.1963 310.815 86.1367 310.55 86.1367C310.302 86.1367 310.118 86.1807 309.999 86.2686C309.882 86.3545 309.795 86.5078 309.738 86.7285L309.222 86.6582C309.269 86.4375 309.346 86.2598 309.454 86.125C309.561 85.9883 309.717 85.8838 309.92 85.8115C310.123 85.7373 310.358 85.7002 310.626 85.7002C310.891 85.7002 311.107 85.7314 311.273 85.7939C311.439 85.8564 311.561 85.9355 311.639 86.0312C311.718 86.125 311.772 86.2441 311.803 86.3887C311.821 86.4785 311.83 86.6406 311.83 86.875V87.5781C311.83 88.0684 311.841 88.3789 311.862 88.5098C311.886 88.6387 311.93 88.7627 311.997 88.8818H311.446C311.391 88.7725 311.356 88.6445 311.341 88.498ZM311.297 87.3203C311.105 87.3984 310.818 87.4648 310.435 87.5195C310.219 87.5508 310.065 87.5859 309.975 87.625C309.886 87.6641 309.816 87.7217 309.767 87.7979C309.719 87.8721 309.694 87.9551 309.694 88.0469C309.694 88.1875 309.747 88.3047 309.852 88.3984C309.96 88.4922 310.116 88.5391 310.321 88.5391C310.524 88.5391 310.705 88.4951 310.863 88.4072C311.021 88.3174 311.137 88.1953 311.212 88.041C311.268 87.9219 311.297 87.7461 311.297 87.5137V87.3203Z" fill="#0000FF"/>
<path d="M312.439 87.9531L312.961 87.8711C312.99 88.0801 313.071 88.2402 313.204 88.3516C313.339 88.4629 313.526 88.5186 313.766 88.5186C314.009 88.5186 314.188 88.4697 314.305 88.3721C314.423 88.2725 314.481 88.1562 314.481 88.0234C314.481 87.9043 314.429 87.8105 314.326 87.7422C314.254 87.6953 314.074 87.6357 313.787 87.5635C313.4 87.4658 313.132 87.3818 312.981 87.3115C312.833 87.2393 312.72 87.1406 312.641 87.0156C312.565 86.8887 312.527 86.749 312.527 86.5967C312.527 86.458 312.558 86.3301 312.621 86.2129C312.685 86.0938 312.772 85.9951 312.882 85.917C312.964 85.8564 313.075 85.8057 313.216 85.7646C313.358 85.7217 313.511 85.7002 313.673 85.7002C313.917 85.7002 314.131 85.7354 314.314 85.8057C314.5 85.876 314.637 85.9717 314.724 86.0928C314.812 86.2119 314.873 86.3721 314.906 86.5732L314.39 86.6436C314.367 86.4834 314.299 86.3584 314.185 86.2686C314.074 86.1787 313.916 86.1338 313.711 86.1338C313.469 86.1338 313.296 86.1738 313.192 86.2539C313.089 86.334 313.037 86.4277 313.037 86.5352C313.037 86.6035 313.058 86.665 313.101 86.7197C313.144 86.7764 313.212 86.8232 313.303 86.8604C313.356 86.8799 313.512 86.9248 313.769 86.9951C314.142 87.0947 314.402 87.1768 314.549 87.2412C314.697 87.3037 314.813 87.3955 314.897 87.5166C314.981 87.6377 315.023 87.7881 315.023 87.9678C315.023 88.1436 314.971 88.3096 314.868 88.4658C314.766 88.6201 314.619 88.7402 314.426 88.8262C314.232 88.9102 314.013 88.9521 313.769 88.9521C313.365 88.9521 313.056 88.8682 312.844 88.7002C312.633 88.5322 312.498 88.2832 312.439 87.9531Z" fill="#0000FF"/>
<path d="M320.452 87.376L321.02 87.5195C320.901 87.9863 320.686 88.3428 320.376 88.5889C320.067 88.833 319.689 88.9551 319.242 88.9551C318.779 88.9551 318.402 88.8613 318.111 88.6738C317.822 88.4844 317.601 88.2109 317.449 87.8535C317.299 87.4961 317.223 87.1123 317.223 86.7021C317.223 86.2549 317.308 85.8652 317.478 85.5332C317.65 85.1992 317.893 84.9463 318.208 84.7744C318.524 84.6006 318.872 84.5137 319.251 84.5137C319.68 84.5137 320.042 84.623 320.335 84.8418C320.628 85.0605 320.832 85.3682 320.947 85.7646L320.387 85.8965C320.288 85.584 320.143 85.3564 319.954 85.2139C319.764 85.0713 319.526 85 319.239 85C318.909 85 318.633 85.0791 318.41 85.2373C318.189 85.3955 318.034 85.6084 317.944 85.876C317.854 86.1416 317.809 86.416 317.809 86.6992C317.809 87.0645 317.862 87.3838 317.968 87.6572C318.075 87.9287 318.241 88.1318 318.466 88.2666C318.69 88.4014 318.933 88.4688 319.195 88.4688C319.513 88.4688 319.783 88.377 320.004 88.1934C320.224 88.0098 320.374 87.7373 320.452 87.376Z" fill="#0000FF"/>
<path d="M321.65 88.8818V85.7705H322.125V86.2422C322.246 86.0215 322.357 85.876 322.459 85.8057C322.562 85.7354 322.676 85.7002 322.799 85.7002C322.976 85.7002 323.157 85.7568 323.341 85.8701L323.159 86.3594C323.03 86.2832 322.901 86.2451 322.772 86.2451C322.657 86.2451 322.553 86.2803 322.462 86.3506C322.37 86.4189 322.304 86.5146 322.265 86.6377C322.207 86.8252 322.178 87.0303 322.178 87.2529V88.8818H321.65Z" fill="#0000FF"/>
<path d="M325.693 88.8818V88.4248C325.451 88.7764 325.122 88.9521 324.706 88.9521C324.522 88.9521 324.35 88.917 324.19 88.8467C324.032 88.7764 323.914 88.6885 323.836 88.583C323.76 88.4756 323.706 88.3447 323.675 88.1904C323.653 88.0869 323.642 87.9229 323.642 87.6982V85.7705H324.17V87.4961C324.17 87.7715 324.18 87.957 324.202 88.0527C324.235 88.1914 324.305 88.3008 324.413 88.3809C324.52 88.459 324.653 88.498 324.811 88.498C324.97 88.498 325.118 88.458 325.257 88.3779C325.395 88.2959 325.493 88.1855 325.55 88.0469C325.608 87.9062 325.637 87.7031 325.637 87.4375V85.7705H326.165V88.8818H325.693Z" fill="#0000FF"/>
<path d="M329.024 87.7422L329.543 87.8096C329.486 88.167 329.341 88.4473 329.106 88.6504C328.874 88.8516 328.588 88.9521 328.248 88.9521C327.822 88.9521 327.479 88.8135 327.22 88.5361C326.962 88.2568 326.833 87.8574 326.833 87.3379C326.833 87.002 326.888 86.708 327 86.4561C327.111 86.2041 327.28 86.0156 327.507 85.8906C327.735 85.7637 327.983 85.7002 328.251 85.7002C328.589 85.7002 328.865 85.7861 329.08 85.958C329.295 86.1279 329.432 86.3701 329.493 86.6846L328.98 86.7637C328.931 86.5547 328.845 86.3975 328.72 86.292C328.596 86.1865 328.447 86.1338 328.271 86.1338C328.006 86.1338 327.79 86.2295 327.624 86.4209C327.458 86.6104 327.375 86.9111 327.375 87.3232C327.375 87.7412 327.455 88.0449 327.615 88.2344C327.775 88.4238 327.984 88.5186 328.242 88.5186C328.449 88.5186 328.622 88.4551 328.761 88.3281C328.899 88.2012 328.987 88.0059 329.024 87.7422Z" fill="#0000FF"/>
<path d="M332.124 87.8799L332.669 87.9473C332.583 88.2656 332.424 88.5127 332.191 88.6885C331.959 88.8643 331.662 88.9521 331.301 88.9521C330.845 88.9521 330.484 88.8125 330.217 88.5332C329.951 88.252 329.818 87.8584 329.818 87.3525C329.818 86.8291 329.953 86.4229 330.222 86.1338C330.492 85.8447 330.842 85.7002 331.271 85.7002C331.687 85.7002 332.027 85.8418 332.291 86.125C332.554 86.4082 332.686 86.8066 332.686 87.3203C332.686 87.3516 332.685 87.3984 332.683 87.4609H330.363C330.383 87.8027 330.479 88.0645 330.653 88.2461C330.827 88.4277 331.044 88.5186 331.303 88.5186C331.497 88.5186 331.662 88.4678 331.799 88.3662C331.935 88.2646 332.044 88.1025 332.124 87.8799ZM330.392 87.0273H332.13C332.106 86.7656 332.04 86.5693 331.93 86.4385C331.762 86.2354 331.545 86.1338 331.277 86.1338C331.035 86.1338 330.831 86.2148 330.665 86.377C330.501 86.5391 330.41 86.7559 330.392 87.0273Z" fill="#0000FF"/>
<path d="M333.123 87.9531L333.644 87.8711C333.674 88.0801 333.755 88.2402 333.887 88.3516C334.022 88.4629 334.21 88.5186 334.45 88.5186C334.692 88.5186 334.872 88.4697 334.989 88.3721C335.106 88.2725 335.165 88.1562 335.165 88.0234C335.165 87.9043 335.113 87.8105 335.01 87.7422C334.937 87.6953 334.758 87.6357 334.47 87.5635C334.084 87.4658 333.815 87.3818 333.665 87.3115C333.516 87.2393 333.403 87.1406 333.325 87.0156C333.249 86.8887 333.211 86.749 333.211 86.5967C333.211 86.458 333.242 86.3301 333.304 86.2129C333.369 86.0938 333.456 85.9951 333.565 85.917C333.647 85.8564 333.759 85.8057 333.899 85.7646C334.042 85.7217 334.194 85.7002 334.356 85.7002C334.6 85.7002 334.814 85.7354 334.998 85.8057C335.183 85.876 335.32 85.9717 335.408 86.0928C335.496 86.2119 335.556 86.3721 335.59 86.5732L335.074 86.6436C335.051 86.4834 334.982 86.3584 334.869 86.2686C334.758 86.1787 334.599 86.1338 334.394 86.1338C334.152 86.1338 333.979 86.1738 333.876 86.2539C333.772 86.334 333.72 86.4277 333.72 86.5352C333.72 86.6035 333.742 86.665 333.785 86.7197C333.828 86.7764 333.895 86.8232 333.987 86.8604C334.04 86.8799 334.195 86.9248 334.453 86.9951C334.826 87.0947 335.086 87.1768 335.232 87.2412C335.381 87.3037 335.497 87.3955 335.581 87.5166C335.665 87.6377 335.707 87.7881 335.707 87.9678C335.707 88.1436 335.655 88.3096 335.552 88.4658C335.45 88.6201 335.303 88.7402 335.109 88.8262C334.916 88.9102 334.697 88.9521 334.453 88.9521C334.049 88.9521 333.74 88.8682 333.527 88.7002C333.316 88.5322 333.181 88.2832 333.123 87.9531Z" fill="#0000FF"/>
<path d="M323.459 59.355C321.558 59.3571 319.735 60.1134 318.39 61.458C317.045 62.8025 316.289 64.6255 316.287 66.527C316.287 71.992 322.726 78.454 323 78.727C323.122 78.8486 323.287 78.9168 323.459 78.9168C323.632 78.9168 323.797 78.8486 323.919 78.727C324.192 78.455 330.631 71.994 330.631 66.527C330.629 64.6256 329.872 62.8027 328.528 61.4582C327.183 60.1137 325.36 59.3574 323.459 59.355Z" fill="white" stroke="#0000FF" stroke-width="0.926" stroke-miterlimit="10"/>
<path d="M104.438 582.219V577.924H105.007V581.712H107.122V582.219H104.438Z" fill="#0000FF"/>
<path d="M109.765 581.835C109.569 582.001 109.381 582.118 109.199 582.187C109.02 582.255 108.826 582.289 108.619 582.289C108.277 582.289 108.015 582.206 107.831 582.04C107.647 581.872 107.556 581.658 107.556 581.398C107.556 581.246 107.59 581.107 107.658 580.982C107.729 580.855 107.819 580.754 107.931 580.678C108.044 580.602 108.171 580.544 108.312 580.505C108.415 580.478 108.571 580.451 108.78 580.426C109.206 580.375 109.52 580.314 109.721 580.244C109.723 580.172 109.724 580.126 109.724 580.106C109.724 579.892 109.674 579.74 109.574 579.652C109.439 579.533 109.239 579.474 108.974 579.474C108.726 579.474 108.542 579.518 108.423 579.605C108.306 579.691 108.219 579.845 108.162 580.065L107.646 579.995C107.693 579.774 107.771 579.597 107.878 579.462C107.985 579.325 108.141 579.221 108.344 579.148C108.547 579.074 108.782 579.037 109.05 579.037C109.315 579.037 109.531 579.068 109.697 579.131C109.863 579.193 109.985 579.272 110.063 579.368C110.142 579.462 110.196 579.581 110.228 579.726C110.245 579.815 110.254 579.978 110.254 580.212V580.915C110.254 581.405 110.265 581.716 110.286 581.847C110.31 581.976 110.354 582.1 110.421 582.219H109.87C109.815 582.109 109.78 581.981 109.765 581.835ZM109.721 580.657C109.529 580.735 109.242 580.802 108.859 580.856C108.643 580.888 108.489 580.923 108.399 580.962C108.31 581.001 108.24 581.059 108.191 581.135C108.143 581.209 108.118 581.292 108.118 581.384C108.118 581.524 108.171 581.642 108.276 581.735C108.384 581.829 108.54 581.876 108.745 581.876C108.948 581.876 109.129 581.832 109.287 581.744C109.445 581.654 109.562 581.532 109.636 581.378C109.692 581.259 109.721 581.083 109.721 580.851V580.657Z" fill="#0000FF"/>
<path d="M110.863 581.29L111.385 581.208C111.414 581.417 111.495 581.577 111.628 581.688C111.763 581.8 111.95 581.855 112.19 581.855C112.433 581.855 112.612 581.807 112.729 581.709C112.847 581.609 112.905 581.493 112.905 581.36C112.905 581.241 112.854 581.147 112.75 581.079C112.678 581.032 112.498 580.973 112.211 580.9C111.824 580.803 111.556 580.719 111.405 580.648C111.257 580.576 111.144 580.478 111.065 580.353C110.989 580.226 110.951 580.086 110.951 579.934C110.951 579.795 110.982 579.667 111.045 579.55C111.109 579.431 111.196 579.332 111.306 579.254C111.388 579.193 111.499 579.143 111.64 579.102C111.782 579.059 111.935 579.037 112.097 579.037C112.341 579.037 112.555 579.072 112.738 579.143C112.924 579.213 113.061 579.309 113.148 579.43C113.236 579.549 113.297 579.709 113.33 579.91L112.814 579.98C112.791 579.82 112.723 579.695 112.609 579.605C112.498 579.516 112.34 579.471 112.135 579.471C111.893 579.471 111.72 579.511 111.616 579.591C111.513 579.671 111.461 579.765 111.461 579.872C111.461 579.94 111.482 580.002 111.525 580.057C111.568 580.113 111.636 580.16 111.728 580.197C111.78 580.217 111.936 580.262 112.193 580.332C112.566 580.432 112.826 580.514 112.973 580.578C113.121 580.641 113.237 580.732 113.321 580.854C113.405 580.975 113.447 581.125 113.447 581.305C113.447 581.48 113.396 581.646 113.292 581.803C113.19 581.957 113.043 582.077 112.85 582.163C112.656 582.247 112.438 582.289 112.193 582.289C111.789 582.289 111.48 582.205 111.268 582.037C111.057 581.869 110.922 581.62 110.863 581.29Z" fill="#0000FF"/>
<path d="M115.006 582.219L116.655 577.924H117.268L119.025 582.219H118.378L117.877 580.918H116.081L115.609 582.219H115.006ZM116.245 580.455H117.701L117.253 579.266C117.116 578.904 117.015 578.607 116.948 578.375C116.894 578.65 116.816 578.924 116.717 579.195L116.245 580.455Z" fill="#0000FF"/>
<path d="M119.315 582.477L119.828 582.553C119.85 582.711 119.909 582.826 120.007 582.898C120.138 582.996 120.316 583.045 120.543 583.045C120.787 583.045 120.976 582.996 121.108 582.898C121.241 582.801 121.331 582.664 121.378 582.488C121.405 582.381 121.418 582.155 121.416 581.812C121.186 582.083 120.898 582.219 120.555 582.219C120.127 582.219 119.796 582.064 119.562 581.756C119.327 581.447 119.21 581.077 119.21 580.646C119.21 580.349 119.264 580.075 119.371 579.825C119.479 579.573 119.634 579.379 119.837 579.242C120.042 579.105 120.282 579.037 120.558 579.037C120.925 579.037 121.228 579.186 121.466 579.482V579.107H121.952V581.797C121.952 582.281 121.902 582.624 121.803 582.825C121.705 583.028 121.549 583.188 121.334 583.306C121.121 583.423 120.858 583.481 120.546 583.481C120.175 583.481 119.875 583.397 119.646 583.229C119.418 583.063 119.308 582.812 119.315 582.477ZM119.752 580.607C119.752 581.016 119.833 581.313 119.995 581.501C120.157 581.688 120.36 581.782 120.604 581.782C120.847 581.782 121.05 581.689 121.214 581.504C121.378 581.316 121.46 581.023 121.46 580.625C121.46 580.244 121.375 579.957 121.205 579.764C121.037 579.57 120.834 579.474 120.596 579.474C120.361 579.474 120.162 579.569 119.998 579.761C119.834 579.95 119.752 580.232 119.752 580.607Z" fill="#0000FF"/>
<path d="M124.791 582.219V581.762C124.549 582.113 124.22 582.289 123.804 582.289C123.62 582.289 123.448 582.254 123.288 582.184C123.13 582.113 123.012 582.025 122.934 581.92C122.857 581.812 122.804 581.682 122.772 581.527C122.751 581.424 122.74 581.26 122.74 581.035V579.107H123.268V580.833C123.268 581.108 123.278 581.294 123.3 581.39C123.333 581.528 123.403 581.638 123.511 581.718C123.618 581.796 123.751 581.835 123.909 581.835C124.067 581.835 124.216 581.795 124.354 581.715C124.493 581.633 124.591 581.522 124.647 581.384C124.706 581.243 124.735 581.04 124.735 580.774V579.107H125.263V582.219H124.791Z" fill="#0000FF"/>
<path d="M128.122 581.835C127.927 582.001 127.738 582.118 127.557 582.187C127.377 582.255 127.184 582.289 126.977 582.289C126.635 582.289 126.372 582.206 126.188 582.04C126.005 581.872 125.913 581.658 125.913 581.398C125.913 581.246 125.947 581.107 126.016 580.982C126.086 580.855 126.177 580.754 126.288 580.678C126.401 580.602 126.528 580.544 126.669 580.505C126.772 580.478 126.929 580.451 127.138 580.426C127.563 580.375 127.877 580.314 128.078 580.244C128.08 580.172 128.081 580.126 128.081 580.106C128.081 579.892 128.031 579.74 127.932 579.652C127.797 579.533 127.597 579.474 127.331 579.474C127.083 579.474 126.899 579.518 126.78 579.605C126.663 579.691 126.576 579.845 126.52 580.065L126.004 579.995C126.051 579.774 126.128 579.597 126.235 579.462C126.343 579.325 126.498 579.221 126.701 579.148C126.904 579.074 127.14 579.037 127.407 579.037C127.673 579.037 127.889 579.068 128.055 579.131C128.221 579.193 128.343 579.272 128.421 579.368C128.499 579.462 128.554 579.581 128.585 579.726C128.603 579.815 128.611 579.978 128.611 580.212V580.915C128.611 581.405 128.622 581.716 128.644 581.847C128.667 581.976 128.712 582.1 128.778 582.219H128.228C128.173 582.109 128.138 581.981 128.122 581.835ZM128.078 580.657C127.887 580.735 127.6 580.802 127.217 580.856C127 580.888 126.847 580.923 126.757 580.962C126.667 581.001 126.598 581.059 126.549 581.135C126.5 581.209 126.476 581.292 126.476 581.384C126.476 581.524 126.528 581.642 126.634 581.735C126.741 581.829 126.897 581.876 127.103 581.876C127.306 581.876 127.486 581.832 127.645 581.744C127.803 581.654 127.919 581.532 127.993 581.378C128.05 581.259 128.078 581.083 128.078 580.851V580.657Z" fill="#0000FF"/>
<path d="M129.221 581.29L129.742 581.208C129.771 581.417 129.853 581.577 129.985 581.688C130.12 581.8 130.308 581.855 130.548 581.855C130.79 581.855 130.97 581.807 131.087 581.709C131.204 581.609 131.263 581.493 131.263 581.36C131.263 581.241 131.211 581.147 131.107 581.079C131.035 581.032 130.855 580.973 130.568 580.9C130.182 580.803 129.913 580.719 129.763 580.648C129.614 580.576 129.501 580.478 129.423 580.353C129.347 580.226 129.309 580.086 129.309 579.934C129.309 579.795 129.34 579.667 129.402 579.55C129.467 579.431 129.554 579.332 129.663 579.254C129.745 579.193 129.856 579.143 129.997 579.102C130.14 579.059 130.292 579.037 130.454 579.037C130.698 579.037 130.912 579.072 131.096 579.143C131.281 579.213 131.418 579.309 131.506 579.43C131.594 579.549 131.654 579.709 131.688 579.91L131.172 579.98C131.148 579.82 131.08 579.695 130.967 579.605C130.855 579.516 130.697 579.471 130.492 579.471C130.25 579.471 130.077 579.511 129.974 579.591C129.87 579.671 129.818 579.765 129.818 579.872C129.818 579.94 129.84 580.002 129.883 580.057C129.926 580.113 129.993 580.16 130.085 580.197C130.138 580.217 130.293 580.262 130.551 580.332C130.924 580.432 131.184 580.514 131.33 580.578C131.479 580.641 131.595 580.732 131.679 580.854C131.763 580.975 131.805 581.125 131.805 581.305C131.805 581.48 131.753 581.646 131.649 581.803C131.548 581.957 131.4 582.077 131.207 582.163C131.014 582.247 130.795 582.289 130.551 582.289C130.146 582.289 129.838 582.205 129.625 582.037C129.414 581.869 129.279 581.62 129.221 581.29Z" fill="#0000FF"/>
<path d="M120.221 552.692C118.32 552.694 116.497 553.451 115.152 554.795C113.808 556.14 113.051 557.962 113.049 559.864C113.049 565.329 119.488 571.791 119.762 572.064C119.884 572.185 120.049 572.253 120.222 572.253C120.394 572.253 120.559 572.185 120.681 572.064C120.954 571.792 127.393 565.33 127.393 559.864C127.391 557.962 126.634 556.14 125.29 554.795C123.945 553.451 122.122 552.694 120.221 552.692Z" fill="white" stroke="#0000FF" stroke-width="0.926" stroke-miterlimit="10"/>
<path d="M247.063 614.505L247.537 614.625C247.438 615.014 247.259 615.311 247 615.516C246.743 615.719 246.428 615.821 246.055 615.821C245.669 615.821 245.355 615.743 245.113 615.586C244.872 615.429 244.688 615.201 244.561 614.903C244.436 614.605 244.373 614.285 244.373 613.943C244.373 613.571 244.444 613.246 244.585 612.969C244.729 612.691 244.931 612.48 245.193 612.337C245.457 612.192 245.747 612.12 246.062 612.12C246.421 612.12 246.722 612.211 246.966 612.393C247.21 612.575 247.38 612.832 247.476 613.162L247.01 613.272C246.927 613.012 246.806 612.822 246.648 612.703C246.491 612.584 246.292 612.525 246.053 612.525C245.778 612.525 245.547 612.591 245.362 612.723C245.178 612.854 245.049 613.032 244.974 613.255C244.899 613.476 244.861 613.705 244.861 613.941C244.861 614.245 244.905 614.511 244.993 614.739C245.083 614.965 245.221 615.135 245.408 615.247C245.595 615.359 245.798 615.416 246.016 615.416C246.281 615.416 246.506 615.339 246.69 615.186C246.874 615.033 246.998 614.806 247.063 614.505Z" fill="#0000FF"/>
<path d="M249.759 615.44C249.596 615.578 249.439 615.676 249.288 615.733C249.138 615.79 248.977 615.818 248.804 615.818C248.519 615.818 248.3 615.749 248.147 615.611C247.994 615.471 247.918 615.293 247.918 615.076C247.918 614.949 247.946 614.834 248.003 614.729C248.062 614.624 248.138 614.539 248.23 614.476C248.325 614.412 248.431 614.364 248.548 614.332C248.634 614.309 248.764 614.287 248.938 614.266C249.293 614.223 249.555 614.173 249.722 614.114C249.724 614.054 249.725 614.016 249.725 614C249.725 613.82 249.683 613.694 249.6 613.621C249.488 613.522 249.321 613.472 249.1 613.472C248.893 613.472 248.74 613.509 248.641 613.582C248.543 613.654 248.471 613.781 248.423 613.965L247.994 613.907C248.033 613.723 248.097 613.575 248.187 613.462C248.276 613.348 248.405 613.261 248.575 613.201C248.744 613.139 248.94 613.108 249.163 613.108C249.384 613.108 249.564 613.134 249.703 613.187C249.841 613.239 249.943 613.305 250.008 613.384C250.073 613.462 250.118 613.562 250.145 613.682C250.159 613.757 250.167 613.892 250.167 614.087V614.673C250.167 615.082 250.175 615.341 250.193 615.45C250.213 615.557 250.25 615.66 250.306 615.76H249.847C249.801 615.669 249.772 615.562 249.759 615.44ZM249.722 614.458C249.563 614.524 249.323 614.579 249.004 614.625C248.824 614.651 248.696 614.68 248.621 614.712C248.546 614.745 248.488 614.793 248.448 614.856C248.407 614.918 248.387 614.987 248.387 615.064C248.387 615.181 248.431 615.279 248.519 615.357C248.608 615.435 248.738 615.474 248.909 615.474C249.078 615.474 249.229 615.438 249.361 615.364C249.493 615.289 249.59 615.188 249.651 615.059C249.699 614.96 249.722 614.813 249.722 614.62V614.458Z" fill="#0000FF"/>
<path d="M250.85 615.76V613.167H251.246V613.536C251.436 613.251 251.711 613.108 252.071 613.108C252.227 613.108 252.37 613.137 252.5 613.194C252.632 613.249 252.731 613.322 252.796 613.414C252.861 613.505 252.907 613.613 252.933 613.738C252.949 613.82 252.957 613.962 252.957 614.166V615.76H252.518V614.183C252.518 614.004 252.5 613.87 252.466 613.782C252.432 613.693 252.371 613.622 252.283 613.57C252.197 613.516 252.095 613.489 251.978 613.489C251.791 613.489 251.629 613.549 251.492 613.667C251.357 613.786 251.29 614.012 251.29 614.344V615.76H250.85Z" fill="#0000FF"/>
<path d="M255.315 615.76V615.433C255.151 615.69 254.909 615.818 254.59 615.818C254.384 615.818 254.193 615.761 254.019 615.647C253.847 615.534 253.712 615.375 253.616 615.171C253.522 614.966 253.475 614.731 253.475 614.466C253.475 614.207 253.518 613.973 253.604 613.763C253.69 613.551 253.82 613.389 253.992 613.277C254.165 613.165 254.358 613.108 254.571 613.108C254.727 613.108 254.866 613.142 254.988 613.208C255.11 613.274 255.21 613.359 255.286 613.465V612.181H255.723V615.76H255.315ZM253.926 614.466C253.926 614.798 253.996 615.046 254.136 615.21C254.276 615.375 254.441 615.457 254.632 615.457C254.824 615.457 254.987 615.379 255.12 615.223C255.255 615.065 255.323 614.825 255.323 614.502C255.323 614.148 255.254 613.887 255.118 613.721C254.981 613.555 254.812 613.472 254.612 613.472C254.417 613.472 254.253 613.552 254.122 613.711C253.991 613.871 253.926 614.122 253.926 614.466Z" fill="#0000FF"/>
<path d="M258.191 614.925L258.646 614.981C258.574 615.246 258.441 615.452 258.248 615.599C258.054 615.745 257.806 615.818 257.505 615.818C257.126 615.818 256.825 615.702 256.602 615.469C256.381 615.235 256.27 614.907 256.27 614.485C256.27 614.049 256.382 613.711 256.607 613.47C256.832 613.229 257.123 613.108 257.481 613.108C257.828 613.108 258.111 613.226 258.331 613.462C258.55 613.698 258.66 614.03 258.66 614.458C258.66 614.485 258.659 614.524 258.658 614.576H256.724C256.74 614.861 256.821 615.079 256.966 615.23C257.111 615.381 257.291 615.457 257.508 615.457C257.669 615.457 257.806 615.415 257.92 615.33C258.034 615.245 258.125 615.11 258.191 614.925ZM256.749 614.214H258.196C258.177 613.996 258.121 613.833 258.03 613.724C257.89 613.554 257.709 613.47 257.486 613.47C257.284 613.47 257.114 613.537 256.976 613.672C256.839 613.807 256.763 613.988 256.749 614.214Z" fill="#0000FF"/>
<path d="M259.19 615.76V612.181H259.629V615.76H259.19Z" fill="#0000FF"/>
<path d="M262.005 615.44C261.842 615.578 261.685 615.676 261.534 615.733C261.384 615.79 261.223 615.818 261.05 615.818C260.765 615.818 260.547 615.749 260.394 615.611C260.241 615.471 260.164 615.293 260.164 615.076C260.164 614.949 260.193 614.834 260.25 614.729C260.308 614.624 260.384 614.539 260.477 614.476C260.571 614.412 260.677 614.364 260.794 614.332C260.88 614.309 261.01 614.287 261.185 614.266C261.539 614.223 261.801 614.173 261.968 614.114C261.97 614.054 261.971 614.016 261.971 614C261.971 613.82 261.929 613.694 261.846 613.621C261.734 613.522 261.567 613.472 261.346 613.472C261.139 613.472 260.986 613.509 260.887 613.582C260.789 613.654 260.717 613.781 260.669 613.965L260.24 613.907C260.279 613.723 260.343 613.575 260.433 613.462C260.522 613.348 260.652 613.261 260.821 613.201C260.99 613.139 261.186 613.108 261.409 613.108C261.631 613.108 261.81 613.134 261.949 613.187C262.087 613.239 262.189 613.305 262.254 613.384C262.319 613.462 262.365 613.562 262.391 613.682C262.405 613.757 262.413 613.892 262.413 614.087V614.673C262.413 615.082 262.422 615.341 262.439 615.45C262.459 615.557 262.496 615.66 262.552 615.76H262.093C262.047 615.669 262.018 615.562 262.005 615.44ZM261.968 614.458C261.809 614.524 261.569 614.579 261.25 614.625C261.07 614.651 260.942 614.68 260.867 614.712C260.792 614.745 260.735 614.793 260.694 614.856C260.653 614.918 260.633 614.987 260.633 615.064C260.633 615.181 260.677 615.279 260.765 615.357C260.854 615.435 260.984 615.474 261.155 615.474C261.325 615.474 261.475 615.438 261.607 615.364C261.739 615.289 261.836 615.188 261.897 615.059C261.945 614.96 261.968 614.813 261.968 614.62V614.458Z" fill="#0000FF"/>
<path d="M263.091 615.76V613.167H263.487V613.56C263.588 613.376 263.681 613.255 263.765 613.196C263.851 613.138 263.946 613.108 264.048 613.108C264.196 613.108 264.347 613.156 264.5 613.25L264.349 613.658C264.241 613.594 264.134 613.562 264.026 613.562C263.93 613.562 263.844 613.592 263.768 613.65C263.691 613.707 263.637 613.787 263.604 613.89C263.555 614.046 263.531 614.217 263.531 614.402V615.76H263.091Z" fill="#0000FF"/>
<path d="M264.764 612.686V612.181H265.203V612.686H264.764ZM264.764 615.76V613.167H265.203V615.76H264.764Z" fill="#0000FF"/>
<path d="M267.566 615.44C267.404 615.578 267.247 615.676 267.095 615.733C266.945 615.79 266.784 615.818 266.612 615.818C266.327 615.818 266.108 615.749 265.955 615.611C265.802 615.471 265.726 615.293 265.726 615.076C265.726 614.949 265.754 614.834 265.811 614.729C265.87 614.624 265.945 614.539 266.038 614.476C266.132 614.412 266.238 614.364 266.355 614.332C266.442 614.309 266.572 614.287 266.746 614.266C267.101 614.223 267.362 614.173 267.53 614.114C267.531 614.054 267.532 614.016 267.532 614C267.532 613.82 267.491 613.694 267.408 613.621C267.295 613.522 267.129 613.472 266.907 613.472C266.701 613.472 266.548 613.509 266.448 613.582C266.351 613.654 266.278 613.781 266.231 613.965L265.801 613.907C265.84 613.723 265.905 613.575 265.994 613.462C266.084 613.348 266.213 613.261 266.382 613.201C266.552 613.139 266.748 613.108 266.971 613.108C267.192 613.108 267.372 613.134 267.51 613.187C267.649 613.239 267.75 613.305 267.815 613.384C267.881 613.462 267.926 613.562 267.952 613.682C267.967 613.757 267.974 613.892 267.974 614.087V614.673C267.974 615.082 267.983 615.341 268.001 615.45C268.021 615.557 268.058 615.66 268.113 615.76H267.654C267.609 615.669 267.579 615.562 267.566 615.44ZM267.53 614.458C267.37 614.524 267.131 614.579 266.812 614.625C266.631 614.651 266.504 614.68 266.429 614.712C266.354 614.745 266.296 614.793 266.255 614.856C266.215 614.918 266.194 614.987 266.194 615.064C266.194 615.181 266.238 615.279 266.326 615.357C266.416 615.435 266.546 615.474 266.717 615.474C266.886 615.474 267.037 615.438 267.168 615.364C267.3 615.289 267.397 615.188 267.459 615.059C267.506 614.96 267.53 614.813 267.53 614.62V614.458Z" fill="#0000FF"/>
<path d="M260.926 586.233C259.025 586.235 257.202 586.991 255.857 588.336C254.512 589.68 253.756 591.503 253.754 593.405C253.754 598.87 260.192 605.332 260.466 605.605C260.588 605.726 260.753 605.795 260.926 605.795C261.098 605.795 261.263 605.726 261.385 605.605C261.659 605.334 268.098 598.872 268.098 593.405C268.096 591.503 267.34 589.68 265.995 588.336C264.651 586.991 262.828 586.235 260.926 586.233Z" fill="white" stroke="#0000FF" stroke-width="0.926" stroke-miterlimit="10"/>
<path d="M27.9578 233.349C27.9578 232.911 28.0232 232.544 28.1541 232.247C28.2517 232.029 28.3845 231.832 28.5525 231.659C28.7224 231.485 28.908 231.356 29.1091 231.272C29.3767 231.159 29.6853 231.102 30.0349 231.102C30.6677 231.102 31.1736 231.298 31.5525 231.691C31.9333 232.083 32.1238 232.629 32.1238 233.328C32.1238 234.022 31.9353 234.565 31.5583 234.957C31.1814 235.348 30.6775 235.543 30.0466 235.543C29.408 235.543 28.9001 235.349 28.5232 234.96C28.1462 234.57 27.9578 234.033 27.9578 233.349ZM28.8513 233.32C28.8513 233.806 28.9636 234.175 29.1882 234.427C29.4128 234.677 29.698 234.802 30.0437 234.802C30.3894 234.802 30.6726 234.678 30.8933 234.43C31.116 234.18 31.2273 233.806 31.2273 233.308C31.2273 232.816 31.1189 232.449 30.9021 232.206C30.6873 231.964 30.4011 231.843 30.0437 231.843C29.6863 231.843 29.3982 231.966 29.1794 232.212C28.9607 232.456 28.8513 232.826 28.8513 233.32Z" fill="#0000FF"/>
<path d="M32.8035 235.47V231.175H35.988V231.902H33.6707V232.854H35.8269V233.577H33.6707V234.746H36.0701V235.47H32.8035Z" fill="#0000FF"/>
<path d="M36.5857 234.073L37.4294 233.991C37.4802 234.274 37.5828 234.482 37.7371 234.615C37.8933 234.747 38.1033 234.814 38.3669 234.814C38.6462 234.814 38.8562 234.755 38.9968 234.638C39.1394 234.519 39.2107 234.38 39.2107 234.222C39.2107 234.12 39.1804 234.035 39.1199 233.964C39.0613 233.892 38.9578 233.829 38.8093 233.777C38.7078 233.742 38.4763 233.679 38.115 233.589C37.6501 233.474 37.324 233.332 37.1365 233.164C36.8728 232.928 36.741 232.64 36.741 232.3C36.741 232.081 36.8025 231.877 36.9255 231.688C37.0505 231.496 37.2292 231.351 37.4617 231.251C37.696 231.152 37.9783 231.102 38.3083 231.102C38.8474 231.102 39.2527 231.22 39.5242 231.456C39.7976 231.693 39.9412 232.008 39.9548 232.403L39.0876 232.441C39.0505 232.22 38.9705 232.062 38.8474 231.966C38.7263 231.868 38.5437 231.82 38.2996 231.82C38.0476 231.82 37.8503 231.871 37.7078 231.975C37.616 232.041 37.5701 232.13 37.5701 232.242C37.5701 232.343 37.613 232.43 37.699 232.502C37.8083 232.594 38.074 232.69 38.4958 232.789C38.9177 232.889 39.2292 232.993 39.4304 233.1C39.6335 233.205 39.7917 233.351 39.905 233.536C40.0203 233.72 40.0779 233.948 40.0779 234.219C40.0779 234.465 40.0095 234.696 39.8728 234.91C39.7361 235.125 39.5427 235.285 39.2927 235.391C39.0427 235.494 38.7312 235.546 38.3582 235.546C37.8152 235.546 37.3982 235.421 37.1072 235.171C36.8162 234.919 36.6423 234.553 36.5857 234.073Z" fill="#0000FF"/>
<path d="M41.7742 235.47V231.902H40.4998V231.175H43.9128V231.902H42.6414V235.47H41.7742Z" fill="#0000FF"/>
<path d="M44.4753 235.47V231.175H47.6599V231.902H45.3425V232.854H47.4988V233.577H45.3425V234.746H47.7419V235.47H44.4753Z" fill="#0000FF"/>
<path d="M331.096 369.953V365.658H334.28V366.385H331.963V367.337H334.119V368.06H331.963V369.229H334.362V369.953H331.096Z" fill="#0000FF"/>
<path d="M334.878 368.556L335.722 368.474C335.772 368.757 335.875 368.965 336.029 369.098C336.185 369.23 336.395 369.297 336.659 369.297C336.938 369.297 337.148 369.238 337.289 369.121C337.431 369.002 337.503 368.863 337.503 368.705C337.503 368.603 337.473 368.518 337.412 368.447C337.353 368.375 337.25 368.312 337.101 368.26C337 368.225 336.768 368.162 336.407 368.072C335.942 367.957 335.616 367.815 335.429 367.647C335.165 367.411 335.033 367.123 335.033 366.783C335.033 366.564 335.095 366.36 335.218 366.171C335.343 365.979 335.521 365.834 335.754 365.734C335.988 365.635 336.27 365.585 336.6 365.585C337.139 365.585 337.545 365.703 337.816 365.939C338.09 366.176 338.233 366.491 338.247 366.886L337.38 366.924C337.343 366.703 337.263 366.545 337.139 366.449C337.018 366.352 336.836 366.303 336.592 366.303C336.34 366.303 336.142 366.354 336 366.458C335.908 366.524 335.862 366.613 335.862 366.725C335.862 366.826 335.905 366.913 335.991 366.985C336.1 367.077 336.366 367.173 336.788 367.272C337.21 367.372 337.521 367.476 337.723 367.583C337.926 367.688 338.084 367.834 338.197 368.019C338.312 368.203 338.37 368.431 338.37 368.702C338.37 368.948 338.302 369.179 338.165 369.393C338.028 369.608 337.835 369.768 337.585 369.874C337.335 369.977 337.023 370.029 336.65 370.029C336.107 370.029 335.69 369.904 335.399 369.654C335.108 369.402 334.934 369.036 334.878 368.556Z" fill="#0000FF"/>
<path d="M340.066 369.953V366.385H338.792V365.658H342.205V366.385H340.933V369.953H340.066Z" fill="#0000FF"/>
<path d="M342.767 369.953V365.658H345.952V366.385H343.635V367.337H345.791V368.06H343.635V369.229H346.034V369.953H342.767Z" fill="#0000FF"/>
<path d="M177.809 34.8125L178.512 34.7441C178.554 34.9801 178.64 35.1535 178.768 35.2642C178.898 35.3748 179.073 35.4302 179.293 35.4302C179.526 35.4302 179.701 35.3813 179.818 35.2837C179.937 35.1844 179.996 35.0688 179.996 34.937C179.996 34.8524 179.971 34.7808 179.921 34.7222C179.872 34.6619 179.785 34.6099 179.662 34.5659C179.577 34.5366 179.384 34.4845 179.083 34.4097C178.696 34.3136 178.424 34.1956 178.268 34.0557C178.048 33.8587 177.938 33.6187 177.938 33.3354C177.938 33.1532 177.989 32.9831 178.092 32.8252C178.196 32.6657 178.345 32.5444 178.539 32.4614C178.734 32.3784 178.969 32.3369 179.244 32.3369C179.693 32.3369 180.031 32.4354 180.257 32.6323C180.485 32.8293 180.605 33.0921 180.616 33.4209L179.894 33.4526C179.863 33.2687 179.796 33.1369 179.693 33.0571C179.593 32.9757 179.44 32.9351 179.237 32.9351C179.027 32.9351 178.863 32.9782 178.744 33.0645C178.667 33.1198 178.629 33.1938 178.629 33.2866C178.629 33.3713 178.665 33.4437 178.736 33.5039C178.828 33.5804 179.049 33.6602 179.4 33.7432C179.752 33.8262 180.012 33.9124 180.179 34.002C180.349 34.0898 180.48 34.2111 180.575 34.3657C180.671 34.5187 180.719 34.7083 180.719 34.9346C180.719 35.1396 180.662 35.3317 180.548 35.5107C180.434 35.6898 180.273 35.8232 180.065 35.9111C179.856 35.9974 179.597 36.0405 179.286 36.0405C178.833 36.0405 178.486 35.9364 178.243 35.728C178.001 35.5181 177.856 35.2129 177.809 34.8125Z" fill="#0000FF"/>
<path d="M181.322 32.3979H182.045V34.3364C182.045 34.644 182.053 34.8434 182.071 34.9346C182.102 35.0811 182.176 35.1991 182.291 35.2886C182.408 35.3765 182.568 35.4204 182.77 35.4204C182.975 35.4204 183.129 35.3789 183.233 35.2959C183.338 35.2113 183.4 35.1079 183.421 34.9858C183.443 34.8638 183.453 34.6611 183.453 34.3779V32.3979H184.176V34.2778C184.176 34.7075 184.156 35.0111 184.117 35.1885C184.078 35.3659 184.006 35.5156 183.9 35.6377C183.796 35.7598 183.656 35.8574 183.48 35.9307C183.304 36.0023 183.075 36.0381 182.792 36.0381C182.45 36.0381 182.19 35.999 182.013 35.9209C181.837 35.8411 181.698 35.7386 181.595 35.6133C181.493 35.4863 181.425 35.3537 181.393 35.2153C181.345 35.0103 181.322 34.7075 181.322 34.3071V32.3979Z" fill="#0000FF"/>
<path d="M184.942 35.9771V32.3979H186.463C186.846 32.3979 187.123 32.4305 187.296 32.4956C187.47 32.5591 187.609 32.673 187.713 32.8374C187.818 33.0018 187.87 33.1898 187.87 33.4014C187.87 33.6699 187.791 33.8921 187.633 34.0679C187.475 34.242 187.239 34.3519 186.925 34.3975C187.081 34.4886 187.21 34.5887 187.311 34.6978C187.413 34.8068 187.551 35.0005 187.723 35.2788L188.16 35.9771H187.296L186.774 35.1982C186.588 34.9199 186.461 34.745 186.393 34.6733C186.324 34.6001 186.252 34.5505 186.175 34.5244C186.099 34.4967 185.978 34.4829 185.812 34.4829H185.665V35.9771H184.942ZM185.665 33.9116H186.2C186.546 33.9116 186.763 33.897 186.849 33.8677C186.935 33.8384 187.003 33.7879 187.052 33.7163C187.101 33.6447 187.125 33.5552 187.125 33.4478C187.125 33.3273 187.093 33.2305 187.027 33.1572C186.964 33.0824 186.874 33.0352 186.756 33.0156C186.698 33.0075 186.522 33.0034 186.229 33.0034H185.665V33.9116Z" fill="#0000FF"/>
<path d="M177.414 633.936V629.641H178.258L180.016 632.509V629.641H180.822V633.936H179.951L178.22 631.135V633.936H177.414Z" fill="#0000FF"/>
<path d="M181.566 631.815C181.566 631.377 181.631 631.01 181.762 630.713C181.86 630.495 181.992 630.298 182.16 630.125C182.33 629.951 182.516 629.822 182.717 629.738C182.985 629.625 183.293 629.568 183.643 629.568C184.276 629.568 184.782 629.764 185.16 630.157C185.541 630.549 185.732 631.095 185.732 631.794C185.732 632.488 185.543 633.031 185.166 633.423C184.789 633.814 184.285 634.009 183.655 634.009C183.016 634.009 182.508 633.815 182.131 633.426C181.754 633.036 181.566 632.499 181.566 631.815ZM182.459 631.786C182.459 632.272 182.572 632.641 182.796 632.893C183.021 633.143 183.306 633.268 183.652 633.268C183.997 633.268 184.281 633.144 184.501 632.896C184.724 632.646 184.835 632.272 184.835 631.774C184.835 631.282 184.727 630.915 184.51 630.672C184.295 630.43 184.009 630.309 183.652 630.309C183.294 630.309 183.006 630.432 182.787 630.678C182.569 630.922 182.459 631.292 182.459 631.786Z" fill="#0000FF"/>
<path d="M186.414 633.936V629.641H188.24C188.699 629.641 189.032 629.68 189.239 629.758C189.448 629.834 189.615 629.971 189.74 630.168C189.865 630.366 189.927 630.591 189.927 630.845C189.927 631.167 189.832 631.434 189.643 631.645C189.453 631.854 189.17 631.986 188.793 632.041C188.981 632.15 189.135 632.27 189.256 632.401C189.379 632.532 189.544 632.764 189.751 633.098L190.276 633.936H189.239L188.612 633.001C188.389 632.667 188.237 632.458 188.155 632.372C188.073 632.284 187.986 632.224 187.894 632.193C187.802 632.16 187.657 632.143 187.457 632.143H187.282V633.936H186.414ZM187.282 631.458H187.923C188.339 631.458 188.599 631.44 188.702 631.405C188.806 631.37 188.887 631.309 188.946 631.223C189.004 631.137 189.033 631.03 189.033 630.901C189.033 630.756 188.994 630.64 188.916 630.552C188.84 630.462 188.732 630.406 188.591 630.382C188.521 630.373 188.31 630.368 187.958 630.368H187.282V631.458Z" fill="#0000FF"/>
<path d="M191.714 633.936V630.368H190.44V629.641H193.853V630.368H192.581V633.936H191.714Z" fill="#0000FF"/>
<path d="M194.415 633.936V629.641H197.6V630.368H195.283V631.32H197.439V632.043H195.283V633.212H197.682V633.936H194.415Z" fill="#0000FF"/>
<path d="M363.88 200.374H344.225M354.053 190.546V210.201" stroke="#0000FF" stroke-width="2.777" stroke-miterlimit="10" stroke-linecap="round"/>
<path d="M97.022 267.248H77.367M87.195 257.42V277.075" stroke="#0000FF" stroke-width="2.777" stroke-miterlimit="10" stroke-linecap="round"/>
<path d="M236.005 601.706H216.35M226.178 591.878V611.533" stroke="#0000FF" stroke-width="2.777" stroke-miterlimit="10" stroke-linecap="round"/>
</svg>
