<svg id="icons_Q2" data-name="icons Q2" xmlns="http://www.w3.org/2000/svg" width="22.992" height="17.883" viewBox="0 0 22.992 17.883">
  <g id="Grupo_133" data-name="Grupo 133">
    <path id="Trazado_67" data-name="Trazado 67" d="M28.992,11.277a1.277,1.277,0,0,1-1.277,1.277H7.277A1.277,1.277,0,0,1,6,11.277H6A1.277,1.277,0,0,1,7.277,10H27.715A1.277,1.277,0,0,1,28.992,11.277Z" transform="translate(-6 -10)" fill="#fff"/>
    <path id="Trazado_68" data-name="Trazado 68" d="M28.992,23.277a1.277,1.277,0,0,1-1.277,1.277H7.277A1.277,1.277,0,0,1,6,23.277H6A1.277,1.277,0,0,1,7.277,22H27.715A1.277,1.277,0,0,1,28.992,23.277Z" transform="translate(-6 -14.336)" fill="#fff"/>
    <path id="Trazado_69" data-name="Trazado 69" d="M28.992,35.277a1.277,1.277,0,0,1-1.277,1.277H7.277A1.277,1.277,0,0,1,6,35.277H6A1.277,1.277,0,0,1,7.277,34H27.715A1.277,1.277,0,0,1,28.992,35.277Z" transform="translate(-6 -18.672)" fill="#fff"/>
  </g>
</svg>
