<svg width="669" height="669" viewBox="0 0 669 669" fill="none" xmlns="http://www.w3.org/2000/svg">
<path d="M334.5 669C519.239 669 669 519.239 669 334.5C669 149.761 519.239 0 334.5 0C149.761 0 0 149.761 0 334.5C0 519.239 149.761 669 334.5 669Z" fill="#FFF64D"/>
<path d="M251.73 71.77L250.63 67.68L272 61.96L273.1 66.05L251.73 71.77ZM266.53 93.65L259.87 68.77L264.51 67.52L271.17 92.41L266.53 93.65Z" fill="black"/>
<path d="M283.73 89.4L278.86 60.61L283.55 59.81L288.43 88.6L283.73 89.4ZM283.46 64.05L282.77 59.95L295.9 57.72L296.59 61.82L283.46 64.05ZM285.51 76.15L284.82 72.05L297.2 69.96L297.89 74.06L285.51 76.15ZM287.64 88.74L286.94 84.63L300.43 82.35L301.13 86.45L287.64 88.74Z" fill="black"/>
<path d="M306.62 85.77L304.73 56.43L309.52 56.12L311.44 85.46L306.62 85.77ZM309.19 75.42L308.92 71.42L316.51 70.92C317.541 70.8824 318.544 70.5756 319.42 70.03C320.194 69.5288 320.806 68.813 321.18 67.97C321.582 67.0522 321.743 66.0474 321.65 65.05C321.604 64.0651 321.315 63.1069 320.81 62.26C320.332 61.4716 319.638 60.8366 318.81 60.43C317.875 59.9906 316.839 59.8077 315.81 59.9L308.23 60.4L307.96 56.25L314.9 55.79C316.89 55.6203 318.893 55.8377 320.8 56.43C322.386 56.9367 323.781 57.9131 324.8 59.23C325.863 60.7371 326.455 62.5261 326.5 64.37V65.01C326.71 66.8436 326.362 68.6979 325.5 70.33C324.65 71.766 323.385 72.9099 321.87 73.61C320.062 74.442 318.109 74.9109 316.12 74.99L309.19 75.42ZM324.5 84.6L314.4 72.39L319.83 72.04L330.21 84.22L324.5 84.6Z" fill="black"/>
<path d="M334.22 84.35L335.53 54.98L340.33 55.19L339.01 84.57L334.22 84.35ZM337.91 74.35L338.09 70.35L345.68 70.69C346.713 70.7647 347.747 70.5682 348.68 70.12C349.516 69.7163 350.213 69.0721 350.68 68.27C351.154 67.4005 351.424 66.4344 351.469 65.445C351.514 64.4557 351.333 63.469 350.94 62.56C350.535 61.7374 349.908 61.0446 349.13 60.56C348.249 60.0233 347.241 59.73 346.21 59.71L338.61 59.37L338.73 55.16L345.68 55.47C347.675 55.5114 349.643 55.9464 351.47 56.75C353.002 57.4266 354.293 58.5531 355.17 59.98C356.061 61.5926 356.451 63.4345 356.29 65.27V65.91C356.294 67.7406 355.751 69.5305 354.73 71.05C353.721 72.3929 352.325 73.3945 350.73 73.92C348.842 74.5407 346.853 74.792 344.87 74.66L337.91 74.35ZM352.12 85.16L343.42 71.92L348.86 72.16L357.86 85.42L352.12 85.16Z" fill="black"/>
<path d="M362.07 86.21L365.7 57.21L370.47 57.8L366.84 86.8L362.07 86.21Z" fill="black"/>
<path d="M376.2 62.74L377.02 58.58L398.73 62.89L397.9 67.04L376.2 62.74ZM379.81 88.9L384.81 63.64L389.51 64.57L384.51 89.84L379.81 88.9Z" fill="black"/>
<path d="M408.81 96.95C406.552 96.299 404.471 95.1471 402.72 93.58C401.239 92.2078 400.075 90.5287 399.31 88.66C397.93 85.3005 397.746 81.5688 398.79 78.09L399.05 77.25C399.599 75.5347 400.442 73.9276 401.54 72.5C402.687 70.9993 404.109 69.7302 405.73 68.76C407.44 67.7352 409.349 67.0874 411.33 66.86C415.941 66.4665 420.521 67.9034 424.08 70.86C425.561 72.1914 426.749 73.8157 427.57 75.63C428.335 77.3532 428.766 79.206 428.84 81.09C428.921 82.8907 428.684 84.6915 428.14 86.41L427.88 87.25C427.344 88.8775 426.536 90.4024 425.49 91.76C424.349 93.2692 422.951 94.5656 421.36 95.59C419.663 96.6864 417.743 97.3902 415.74 97.65C413.407 97.9447 411.037 97.7054 408.81 96.95ZM410.15 92.71C411.558 93.1851 413.053 93.3456 414.53 93.18C415.889 93.0147 417.199 92.5723 418.38 91.88C419.545 91.1823 420.564 90.2654 421.38 89.18C423.1 86.8655 423.997 84.0428 423.93 81.16C423.878 79.7999 423.566 78.4623 423.01 77.22C422.452 75.989 421.633 74.8937 420.61 74.01C418.307 72.1016 415.352 71.1654 412.37 71.4C411.019 71.535 409.713 71.9578 408.54 72.64C407.37 73.3314 406.35 74.2494 405.54 75.34C404.657 76.5137 403.981 77.8292 403.54 79.23C403.105 80.5793 402.906 81.9932 402.95 83.41C402.996 84.7708 403.309 86.1094 403.87 87.35C404.434 88.5952 405.251 89.7089 406.27 90.62C407.396 91.5911 408.72 92.3044 410.15 92.71Z" fill="black"/>
<path d="M428.22 102.97L440.43 76.23L444.8 78.23L432.58 104.97L428.22 102.97ZM435.39 95.08L437.06 91.4L443.98 94.56C444.909 95.0229 445.945 95.2267 446.98 95.15C447.903 95.0722 448.783 94.7244 449.51 94.15C450.275 93.5201 450.886 92.7248 451.299 91.8239C451.711 90.9231 451.913 89.9404 451.89 88.95C451.836 88.0215 451.52 87.1272 450.98 86.37C450.361 85.5419 449.532 84.8931 448.58 84.49L441.67 81.33L443.4 77.55L449.73 80.44C451.562 81.2279 453.224 82.3659 454.62 83.79C455.786 84.9919 456.56 86.5191 456.84 88.17C457.068 90.0007 456.74 91.8576 455.9 93.5L455.63 94.09C454.935 95.8004 453.739 97.2609 452.2 98.28C450.766 99.138 449.108 99.5456 447.44 99.45C445.461 99.3163 443.526 98.8037 441.74 97.94L435.39 95.08ZM444.52 110.42L441.41 94.88L446.36 97.14L449.73 112.8L444.52 110.42Z" fill="black"/>
<path d="M453.37 115.16L467.6 89.66L471.79 92L457.56 117.5L453.37 115.16Z" fill="black"/>
<path d="M474.65 129.06C472.677 127.783 471.022 126.073 469.81 124.06C468.793 122.315 468.165 120.37 467.97 118.36C467.794 116.476 467.956 114.576 468.45 112.75C468.892 111.094 469.605 109.523 470.56 108.1L471.05 107.37C472.078 105.89 473.353 104.598 474.82 103.55C476.346 102.451 478.066 101.65 479.89 101.19C481.82 100.704 483.832 100.64 485.79 101C490.309 101.979 494.261 104.699 496.79 108.57C497.82 110.277 498.481 112.182 498.73 114.16C498.971 116.03 498.845 117.928 498.36 119.75C497.913 121.496 497.165 123.15 496.15 124.64L495.65 125.36C494.662 126.761 493.445 127.984 492.05 128.98C490.52 130.092 488.808 130.928 486.99 131.45C485.04 132.006 482.99 132.119 480.99 131.78C478.7 131.359 476.533 130.43 474.65 129.06ZM477.16 125.4C478.371 126.263 479.757 126.85 481.22 127.12C482.567 127.361 483.95 127.32 485.28 127C486.603 126.681 487.851 126.103 488.95 125.3C490.092 124.473 491.086 123.458 491.89 122.3C492.726 121.099 493.348 119.763 493.73 118.35C494.072 117.046 494.164 115.688 494 114.35C493.822 113.009 493.354 111.723 492.63 110.58C490.985 108.084 488.43 106.329 485.51 105.69C484.187 105.432 482.824 105.456 481.51 105.76C480.186 106.079 478.939 106.657 477.84 107.46C476.672 108.336 475.658 109.401 474.84 110.61C474.032 111.774 473.433 113.07 473.07 114.44C472.717 115.742 472.622 117.101 472.79 118.44C472.972 119.799 473.432 121.106 474.14 122.28C474.912 123.524 475.942 124.588 477.16 125.4Z" fill="black"/>
<path d="M493.86 153.29L518.73 125.66L521.79 128.42L496.88 156.05L493.86 153.29Z" fill="black"/>
<path d="M514.92 161.94L537.25 143.16L541.43 148.11L532.43 166.11L532.87 166.63L552.07 160.81L556.3 165.81L533.96 184.62L530.9 180.98L549.96 164.92L550.21 165.34L530.59 171.34L527.19 167.34L536.34 148.96L536.76 149.34L517.7 165.34L514.92 161.94Z" fill="black"/>
<path d="M537.88 190.47L562.27 174.42L564.89 178.42L540.5 194.48L537.88 190.47ZM540.06 193.78L543.53 191.49L551.06 202.92L547.58 205.21L540.06 193.78ZM550.72 186.78L554.19 184.5L561.1 194.99L557.62 197.28L550.72 186.78ZM560.98 180.03L564.45 177.75L571.73 188.85L568.3 191.16L560.98 180.03Z" fill="black"/>
<path d="M550.59 209.79L576.71 196.79L579.6 202.58L566.73 217.93L567.04 218.54L587.04 217.38L589.98 223.25L563.86 236.31L561.73 232.05L584.02 220.91L584.16 221.37L563.73 222.57L561.37 217.84L574.52 202.16L574.85 202.63L552.55 213.77L550.59 209.79Z" fill="black"/>
<path d="M569.95 255.64C569.148 253.434 568.854 251.075 569.09 248.74C569.338 246.73 570.02 244.799 571.09 243.08C572.083 241.467 573.361 240.048 574.86 238.89C576.207 237.832 577.721 237.008 579.34 236.45L580.17 236.17C581.881 235.604 583.678 235.34 585.48 235.39C587.361 235.425 589.217 235.819 590.95 236.55C592.766 237.336 594.396 238.498 595.73 239.96C598.754 243.47 600.277 248.027 599.97 252.65C599.762 254.628 599.146 256.542 598.16 258.27C597.219 259.905 595.973 261.344 594.49 262.51C593.079 263.63 591.485 264.499 589.78 265.08L588.95 265.36C587.315 265.878 585.605 266.118 583.89 266.07C581.998 266.036 580.126 265.671 578.36 264.99C576.464 264.265 574.756 263.124 573.36 261.65C571.783 259.931 570.617 257.876 569.95 255.64ZM574.16 254.23C574.603 255.65 575.354 256.954 576.36 258.05C577.288 259.059 578.42 259.86 579.68 260.4C580.928 260.942 582.27 261.234 583.63 261.26C585.048 261.281 586.458 261.058 587.8 260.6C589.19 260.162 590.493 259.486 591.65 258.6C592.718 257.755 593.617 256.717 594.3 255.54C594.966 254.364 595.369 253.057 595.48 251.71C595.599 250.229 595.405 248.74 594.91 247.34C594.461 245.926 593.721 244.622 592.74 243.51C591.841 242.495 590.732 241.686 589.49 241.14C588.228 240.589 586.867 240.3 585.49 240.29C584.027 240.279 582.574 240.515 581.19 240.99C579.842 241.433 578.583 242.11 577.47 242.99C576.396 243.828 575.496 244.867 574.82 246.05C574.143 247.24 573.721 248.558 573.58 249.92C573.461 251.382 573.659 252.852 574.16 254.23Z" fill="black"/>
<path d="M576.49 274.92L605.31 269.16L606.26 273.86L577.44 279.67L576.49 274.92ZM580.03 292.48L590.78 280.85L591.86 286.18L581.16 298.09L580.03 292.48ZM587.09 276.09L591.09 275.29L592.59 282.74C592.77 283.754 593.207 284.704 593.86 285.5C594.46 286.205 595.252 286.719 596.14 286.98C597.117 287.26 598.149 287.288 599.14 287.06C600.111 286.887 601.023 286.471 601.79 285.85C602.513 285.265 603.051 284.484 603.34 283.6C603.646 282.629 603.688 281.593 603.46 280.6L601.96 273.15L606.04 272.33L607.41 279.15C607.853 281.094 607.907 283.105 607.57 285.07C607.285 286.721 606.504 288.245 605.33 289.44C603.978 290.697 602.283 291.522 600.46 291.81L599.83 291.94C598.035 292.378 596.15 292.267 594.42 291.62C592.884 290.967 591.581 289.865 590.68 288.46C589.621 286.778 588.898 284.907 588.55 282.95L587.09 276.09Z" fill="black"/>
<path d="M581.4 302.4L610.4 298.96L610.96 303.72L581.96 307.17L581.4 302.4Z" fill="black"/>
<path d="M582.8 311.43L612.33 320.67L612.6 328.62L583.73 340.16L583.56 335.16L609.24 325.05L608.38 327.05L608.22 322.21L609.22 324.26L582.93 316.18L582.8 311.43ZM591.26 317.78L595.47 319.16L595.88 331.39L591.78 333.09L591.26 317.78Z" fill="black"/>
<path d="M575.18 345.49L612.32 347.49L612.1 351.61L574.95 349.61L575.18 345.49Z" fill="black"/>
<path d="M579.06 376.86C579.37 374.69 580.152 372.615 581.35 370.78C582.326 369.296 583.717 368.131 585.35 367.43C586.933 366.781 588.669 366.604 590.35 366.92L589.55 371.57C588.702 371.435 587.833 371.525 587.03 371.83C586.1 372.201 585.3 372.837 584.73 373.66C583.939 374.833 583.435 376.176 583.26 377.58C582.982 378.899 582.982 380.261 583.26 381.58C583.472 382.548 583.954 383.436 584.65 384.14C585.292 384.745 586.1 385.146 586.97 385.29C587.505 385.382 588.054 385.339 588.567 385.164C589.081 384.989 589.542 384.689 589.91 384.29C590.921 383.159 591.611 381.778 591.91 380.29L592.68 377.46C593.164 375.141 594.418 373.054 596.24 371.54C597.087 370.88 598.069 370.413 599.116 370.173C600.163 369.933 601.25 369.925 602.3 370.15C603.942 370.371 605.482 371.07 606.73 372.16C607.927 373.282 608.786 374.716 609.21 376.3C609.694 378.129 609.759 380.043 609.4 381.9C609.117 383.794 608.409 385.599 607.33 387.18C606.387 388.539 605.075 389.6 603.55 390.24C601.945 390.871 600.192 391.027 598.5 390.69L599.31 386.04C600.143 386.189 601.001 386.12 601.8 385.84C602.648 385.536 603.393 384.999 603.95 384.29C604.583 383.373 605.012 382.33 605.209 381.233C605.405 380.136 605.365 379.01 605.09 377.93C604.831 377.087 604.343 376.332 603.68 375.75C603.056 375.227 602.303 374.881 601.5 374.75C601.018 374.666 600.523 374.682 600.047 374.795C599.571 374.909 599.123 375.118 598.73 375.41C597.735 376.2 597.057 377.322 596.82 378.57L596.1 381.37C595.671 383.153 594.929 384.846 593.91 386.37C593.06 387.644 591.896 388.677 590.53 389.37C589.158 390.003 587.622 390.185 586.14 389.89C584.445 389.629 582.877 388.838 581.66 387.63C580.419 386.368 579.553 384.786 579.16 383.06C578.695 381.023 578.661 378.911 579.06 376.86Z" fill="black"/>
<path d="M572.19 406.09C572.808 403.823 573.929 401.724 575.47 399.95C576.82 398.45 578.477 397.26 580.33 396.46C582.071 395.719 583.93 395.292 585.82 395.2C587.531 395.112 589.244 395.308 590.89 395.78L591.73 396.03C593.454 396.55 595.075 397.365 596.52 398.44C598.04 399.555 599.333 400.95 600.33 402.55C601.385 404.24 602.067 406.136 602.33 408.11C602.602 410.398 602.377 412.717 601.67 414.91C601.063 417.119 599.977 419.168 598.49 420.91C597.183 422.414 595.575 423.627 593.77 424.47C592.064 425.267 590.22 425.725 588.34 425.82C586.541 425.929 584.737 425.723 583.01 425.21L582.17 424.96C580.533 424.451 578.994 423.666 577.62 422.64C576.091 421.523 574.771 420.145 573.72 418.57C572.599 416.889 571.865 414.979 571.57 412.98C571.258 410.666 571.47 408.311 572.19 406.09ZM576.44 407.36C575.99 408.781 575.857 410.282 576.05 411.76C576.231 413.114 576.695 414.416 577.41 415.58C578.117 416.751 579.048 417.77 580.15 418.58C581.297 419.414 582.579 420.043 583.94 420.44C585.338 420.87 586.8 421.053 588.26 420.98C589.622 420.903 590.957 420.564 592.19 419.98C593.415 419.408 594.498 418.571 595.36 417.53C596.293 416.385 596.975 415.056 597.36 413.63C597.802 412.215 597.949 410.724 597.79 409.25C597.633 407.902 597.189 406.603 596.49 405.44C595.784 404.266 594.849 403.245 593.74 402.44C592.554 401.589 591.232 400.946 589.83 400.54C588.474 400.123 587.056 399.947 585.64 400.02C584.28 400.089 582.947 400.429 581.72 401.02C580.477 401.604 579.37 402.442 578.47 403.48C577.526 404.615 576.834 405.937 576.44 407.36Z" fill="black"/>
<path d="M561.92 434.16C562.743 432.127 563.995 430.295 565.59 428.79C566.893 427.588 568.514 426.786 570.26 426.48C571.959 426.223 573.697 426.466 575.26 427.18L573.37 431.51C572.578 431.176 571.714 431.052 570.86 431.15C569.862 431.288 568.927 431.716 568.17 432.38C567.124 433.337 566.316 434.525 565.81 435.85C565.239 437.056 564.923 438.366 564.88 439.7C564.849 440.685 565.106 441.658 565.62 442.5C566.101 443.248 566.799 443.83 567.62 444.17C568.113 444.391 568.654 444.486 569.193 444.448C569.732 444.409 570.253 444.238 570.71 443.95C571.973 443.083 572.979 441.891 573.62 440.5L575.04 437.94C576.06 435.799 577.777 434.068 579.91 433.03C580.89 432.59 581.955 432.37 583.03 432.386C584.105 432.401 585.163 432.652 586.13 433.12C587.673 433.748 588.998 434.816 589.94 436.19C590.828 437.567 591.319 439.162 591.36 440.8C591.351 442.699 590.955 444.577 590.197 446.318C589.438 448.06 588.334 449.629 586.95 450.93C585.714 452.027 584.192 452.749 582.56 453.01C580.854 453.237 579.119 452.969 577.56 452.24L579.45 447.92C580.223 448.259 581.07 448.393 581.91 448.31C582.813 448.223 583.671 447.876 584.38 447.31C585.214 446.57 585.878 445.659 586.328 444.639C586.779 443.619 587.004 442.515 586.99 441.4C586.937 440.524 586.643 439.679 586.14 438.96C585.663 438.294 585.013 437.772 584.26 437.45C583.81 437.257 583.325 437.157 582.835 437.157C582.345 437.157 581.86 437.257 581.41 437.45C580.257 437.984 579.335 438.913 578.81 440.07L577.44 442.61C576.609 444.26 575.484 445.744 574.12 446.99C572.992 448.026 571.613 448.75 570.12 449.09C568.638 449.392 567.098 449.206 565.73 448.56C564.146 447.901 562.809 446.761 561.91 445.3C561.012 443.788 560.548 442.058 560.57 440.3C560.586 438.182 561.046 436.09 561.92 434.16Z" fill="black"/>
<path d="M553.02 454.08L575.53 466.6L573.2 470.79L550.73 458.27L553.02 454.08ZM579.02 458.66L582.73 460.72L571.97 480.05L568.27 477.99L579.02 458.66Z" fill="black"/>
<path d="M541.87 472.65L545.3 475.01L537.56 486.29L534.13 483.93L541.87 472.65ZM544.11 469.39L568.19 485.91L565.49 489.84L541.42 473.31L544.11 469.39ZM552.39 479.87L555.82 482.23L548.73 492.58L545.3 490.23L552.39 479.87ZM562.51 486.87L565.94 489.22L558.41 500.22L554.98 497.87L562.51 486.87Z" fill="black"/>
<path d="M530.93 488.4L552.93 507.56L547.78 513.48L519.96 507.26L519.09 508.26V507.19L538.58 524.16L535.58 527.6L513.58 508.44L518.77 502.44L546.6 508.66L547.46 507.66V508.73L527.99 491.8L530.93 488.4Z" fill="black"/>
<path d="M508.18 513.3L528.35 534.41L524.89 537.73L504.73 516.62L508.18 513.3Z" fill="black"/>
<path d="M496.19 524.16L498.72 527.26L492.72 532.14C492.221 532.497 491.8 532.953 491.484 533.479C491.168 534.005 490.964 534.591 490.883 535.199C490.802 535.807 490.846 536.426 491.014 537.016C491.181 537.607 491.468 538.157 491.856 538.632C492.245 539.107 492.726 539.498 493.271 539.78C493.817 540.062 494.414 540.229 495.026 540.271C495.638 540.313 496.253 540.229 496.831 540.024C497.41 539.819 497.94 539.498 498.39 539.08L504.39 534.2L506.31 536.55L500.73 541.08C499.416 542.192 497.938 543.096 496.35 543.76C495.039 544.309 493.594 544.455 492.2 544.18C490.695 543.773 489.373 542.867 488.45 541.61L488.1 541.17C487.096 540.013 486.431 538.601 486.18 537.09C485.991 535.634 486.271 534.156 486.98 532.87C487.9 531.249 489.134 529.828 490.61 528.69L496.19 524.16ZM504.92 534.85L506.81 537.17L501.67 541.38C501.163 541.724 500.738 542.176 500.425 542.703C500.112 543.23 499.919 543.82 499.86 544.43C499.846 545.575 500.26 546.684 501.02 547.54C501.713 548.462 502.72 549.099 503.85 549.33C504.462 549.393 505.079 549.321 505.66 549.118C506.241 548.916 506.77 548.589 507.21 548.16L512.36 543.96L514.89 547.06L510.21 550.88C507.69 552.94 505.35 553.95 503.21 553.94C502.102 553.905 501.016 553.616 500.037 553.096C499.057 552.576 498.21 551.838 497.56 550.94L497.21 550.5C496.169 549.436 495.547 548.032 495.457 546.546C495.367 545.061 495.815 543.592 496.72 542.41C497.708 540.998 498.898 539.738 500.25 538.67L504.92 534.85ZM499.25 521.66L517.95 544.55L514.27 547.55L495.57 524.66L499.25 521.66Z" fill="black"/>
<path d="M478.21 538.24L495.15 562.02L491.24 564.81L474.3 541.02L478.21 538.24Z" fill="black"/>
<path d="M464.63 547.28L466.83 550.95L455.73 557.64L453.53 553.97L464.63 547.28ZM468.06 545.22L483.06 570.22L478.94 572.69L463.94 547.69L468.06 545.22Z" fill="black"/>
<path d="M449.36 555.98L462.68 581.98L458.41 584.16L445.09 558.16L449.36 555.98Z" fill="black"/>
<path d="M434.84 562.96L436.52 567.07L430.33 569.59C428.939 570.126 427.668 570.931 426.59 571.96C425.629 572.879 424.873 573.989 424.37 575.22C423.882 576.436 423.658 577.741 423.71 579.05C423.771 580.445 424.076 581.819 424.61 583.11C425.13 584.457 425.893 585.698 426.86 586.77C427.728 587.731 428.796 588.489 429.99 588.99C431.201 589.497 432.507 589.739 433.82 589.7C435.31 589.638 436.775 589.299 438.14 588.7L444.32 586.18L446 590.29L440.18 592.66C438.019 593.6 435.696 594.11 433.34 594.16C431.36 594.18 429.398 593.785 427.58 593C425.899 592.267 424.387 591.195 423.14 589.85C421.912 588.528 420.936 586.993 420.26 585.32L419.93 584.51C419.272 582.877 418.913 581.14 418.87 579.38C418.835 577.534 419.175 575.7 419.87 573.99C420.613 572.139 421.73 570.461 423.15 569.06C424.845 567.417 426.856 566.135 429.06 565.29L434.84 562.96ZM438.54 561.45L449.73 588.82L445.29 590.63L434.1 563.26L438.54 561.45Z" fill="black"/>
<path d="M413.85 571.66L411.73 602.53L404.06 604.65L386.06 579.31L390.84 577.99L406.73 600.59L404.59 600.23L409.26 598.94L407.5 600.38L409.22 572.93L413.85 571.66ZM409.65 581.37L409.29 585.78L397.49 589.04L394.88 585.44L409.65 581.37Z" fill="black"/>
<path d="M378.2 580.41L378.85 584.81L372.25 585.81C370.772 586.005 369.346 586.484 368.05 587.22C366.906 587.89 365.912 588.789 365.13 589.86C364.365 590.926 363.837 592.143 363.58 593.43C363.299 594.8 363.268 596.209 363.49 597.59C363.682 599.02 364.125 600.405 364.8 601.68C365.422 602.817 366.281 603.806 367.32 604.58C368.378 605.357 369.587 605.902 370.87 606.18C372.326 606.48 373.824 606.507 375.29 606.26L381.9 605.26L382.55 609.65L376.34 610.58C374.018 610.977 371.64 610.919 369.34 610.41C367.411 609.966 365.597 609.117 364.02 607.92C362.557 606.809 361.342 605.406 360.45 603.8C359.571 602.226 358.989 600.504 358.73 598.72L358.59 597.85C358.343 596.112 358.411 594.344 358.79 592.63C359.174 590.831 359.923 589.129 360.99 587.63C362.157 586.015 363.64 584.654 365.35 583.63C367.388 582.436 369.647 581.667 371.99 581.37L378.2 580.41ZM382.2 579.83L386.55 609.07L381.8 609.77L377.45 580.53L382.2 579.83Z" fill="black"/>
<path d="M349.56 575.94L351.67 613.08L347.56 613.31L345.44 576.16L349.56 575.94Z" fill="black"/>
<path d="M323.92 593.87L323.73 598.06L317.66 597.72C316.56 597.612 315.451 597.802 314.45 598.27C313.595 598.707 312.881 599.376 312.39 600.2C311.878 601.084 311.589 602.079 311.55 603.1C311.466 604.127 311.642 605.158 312.06 606.1C312.446 606.972 313.079 607.712 313.88 608.23C314.826 608.801 315.906 609.111 317.01 609.13L323.08 609.48L322.84 613.67L317.33 613.35C315.222 613.299 313.152 612.78 311.27 611.83C309.742 611.034 308.485 609.802 307.66 608.29C306.852 606.697 306.505 604.91 306.66 603.13V602.49C306.719 600.709 307.269 598.978 308.25 597.49C309.238 596.07 310.632 594.983 312.25 594.37C314.228 593.643 316.341 593.363 318.44 593.55L323.92 593.87ZM328.46 584.55L326.79 613.91L321.99 613.63L323.67 584.28L328.46 584.55Z" fill="black"/>
<path d="M295.48 606.85L294.84 610.97L281.68 608.97L282.32 604.86L295.48 606.85ZM297.36 594.72L296.72 598.83L284.31 596.91L284.95 592.8L297.36 594.72ZM299.31 582.16L298.67 586.27L285.16 584.16L285.79 580.05L299.31 582.16ZM303.22 582.76L298.73 611.57L294.02 610.84L298.49 581.99L303.22 582.76Z" fill="black"/>
<path d="M276.54 577.81L275.4 582.1L268.95 580.38C267.514 579.973 266.013 579.847 264.53 580.01C263.212 580.163 261.941 580.592 260.8 581.27C259.678 581.944 258.71 582.847 257.96 583.92C257.16 585.069 256.574 586.353 256.23 587.71C255.832 589.096 255.69 590.543 255.81 591.98C255.922 593.269 256.315 594.518 256.96 595.64C257.627 596.772 258.523 597.753 259.59 598.52C260.798 599.375 262.155 599.999 263.59 600.36L270.05 602.08L268.9 606.37L262.83 604.75C260.541 604.195 258.384 603.196 256.48 601.81C254.882 600.641 253.553 599.144 252.58 597.42C251.683 595.817 251.125 594.047 250.94 592.22C250.76 590.425 250.909 588.612 251.38 586.87L251.6 586.02C252.066 584.324 252.831 582.726 253.86 581.3C254.928 579.799 256.289 578.53 257.86 577.57C259.575 576.549 261.481 575.889 263.46 575.63C265.807 575.338 268.189 575.528 270.46 576.19L276.54 577.81ZM280.41 578.81L272.79 607.37L268.15 606.16L275.73 577.6L280.41 578.81Z" fill="black"/>
<path d="M254.53 572.07L234.25 595.44L226.85 592.51L227.79 561.51L232.4 563.34L231.4 590.91L229.92 589.33L234.42 591.12L232.14 591.21L250.05 570.34L254.53 572.07ZM245.32 577.28L242.37 580.59L230.99 576.08L231.07 571.64L245.32 577.28Z" fill="black"/>
<path d="M213.73 553.1C215.671 554.111 217.388 555.502 218.78 557.19C220.007 558.7 220.903 560.451 221.41 562.33C221.899 564.182 222.005 566.115 221.72 568.01C221.423 569.977 220.779 571.877 219.82 573.62L219.4 574.4C218.518 576.015 217.36 577.463 215.98 578.68C214.588 579.915 212.977 580.878 211.23 581.52C209.437 582.175 207.524 582.437 205.62 582.29C203.508 582.116 201.46 581.481 199.62 580.43C197.586 579.368 195.822 577.856 194.46 576.01C193.238 574.34 192.467 572.384 192.22 570.33C192.014 568.277 192.359 566.205 193.22 564.33L197.51 566.66C196.976 567.883 196.815 569.236 197.05 570.55C197.289 571.81 197.835 572.991 198.64 573.99C199.495 575.058 200.56 575.94 201.77 576.58C202.948 577.244 204.253 577.653 205.6 577.78C206.867 577.893 208.143 577.729 209.34 577.3C210.574 576.824 211.695 576.095 212.63 575.16C213.725 574.136 214.641 572.936 215.34 571.61C216.148 570.189 216.706 568.64 216.99 567.03C217.225 565.676 217.163 564.288 216.81 562.96C216.466 561.684 215.841 560.502 214.98 559.5C213.871 558.245 212.518 557.23 211.003 556.516C209.488 555.802 207.844 555.406 206.17 555.35C204.497 555.316 202.847 555.752 201.41 556.61L204.73 553.16L200.85 560.29L196.92 558.16L200.13 552.25C202.153 551.28 204.391 550.843 206.63 550.98C209.126 551.146 211.552 551.871 213.73 553.1ZM209.12 563.66L207.32 566.97L193.44 559.42L195.24 556.12L209.12 563.66Z" fill="black"/>
<path d="M186.55 535.86C188.482 537.195 190.089 538.948 191.25 540.99C192.218 542.762 192.788 544.725 192.92 546.74C193.155 550.366 192.138 553.963 190.04 556.93L189.53 557.64C188.461 559.091 187.148 560.347 185.65 561.35C184.095 562.407 182.355 563.16 180.52 563.57C178.572 563.991 176.558 563.991 174.61 563.57C170.107 562.468 166.222 559.632 163.8 555.68C162.82 553.948 162.213 552.03 162.02 550.05C161.837 548.173 162.017 546.279 162.55 544.47C163.053 542.741 163.847 541.111 164.9 539.65L165.42 538.94C166.45 537.572 167.7 536.386 169.12 535.43C170.684 534.361 172.424 533.575 174.26 533.11C176.223 532.607 178.273 532.552 180.26 532.95C182.55 533.431 184.701 534.426 186.55 535.86ZM183.93 539.45C182.748 538.55 181.382 537.922 179.93 537.61C178.588 537.325 177.202 537.325 175.86 537.61C174.53 537.889 173.269 538.43 172.15 539.2C170.983 540.018 169.968 541.033 169.15 542.2C168.259 543.372 167.582 544.693 167.15 546.1C166.767 547.396 166.635 548.754 166.76 550.1C166.895 551.449 167.322 552.752 168.01 553.92C168.779 555.187 169.8 556.283 171.01 557.14C172.199 558.035 173.561 558.672 175.01 559.01C176.329 559.291 177.691 559.291 179.01 559.01C180.346 558.736 181.612 558.191 182.73 557.41C183.93 556.574 184.979 555.539 185.83 554.35C186.67 553.212 187.306 551.936 187.71 550.58C188.105 549.286 188.237 547.926 188.1 546.58C187.963 545.215 187.544 543.894 186.87 542.7C186.138 541.415 185.135 540.306 183.93 539.45Z" fill="black"/>
<path d="M160.92 514.36C162.536 515.839 163.832 517.632 164.73 519.63C165.52 521.409 165.926 523.334 165.92 525.28C165.897 527.195 165.489 529.086 164.72 530.84C163.924 532.665 162.806 534.331 161.42 535.76L160.81 536.4C159.541 537.732 158.044 538.826 156.39 539.63C154.723 540.458 152.915 540.963 151.06 541.12C149.157 541.286 147.24 541.041 145.44 540.4C143.443 539.672 141.627 538.519 140.12 537.02C138.436 535.465 137.13 533.546 136.3 531.41C135.563 529.477 135.332 527.387 135.63 525.34C135.956 523.285 136.826 521.355 138.15 519.75L141.73 523.16C140.891 524.201 140.383 525.468 140.27 526.8C140.171 528.076 140.388 529.357 140.9 530.53C141.449 531.783 142.245 532.912 143.24 533.85C144.208 534.793 145.358 535.528 146.62 536.01C147.815 536.45 149.091 536.627 150.36 536.53C151.676 536.425 152.955 536.05 154.12 535.43C155.446 534.726 156.645 533.807 157.67 532.71C158.818 531.545 159.758 530.192 160.45 528.71C161.038 527.458 161.349 526.093 161.36 524.71C161.359 523.388 161.062 522.082 160.49 520.89C159.75 519.389 158.711 518.055 157.437 516.97C156.163 515.885 154.68 515.071 153.08 514.58C151.472 514.123 149.768 514.123 148.16 514.58L152.29 512.06L146.68 517.93L143.44 514.83L148.09 509.97C150.295 509.571 152.566 509.736 154.69 510.45C157.031 511.274 159.16 512.61 160.92 514.36ZM153.71 523.36L151.11 526.08L139.73 515.16L142.33 512.44L153.71 523.36Z" fill="black"/>
<path d="M123.41 521.79L115.01 522.44L111.53 518.44H120.53L123.41 521.79ZM146.95 500.88L124.95 520.08L121.79 516.46L143.79 497.27L146.95 500.88Z" fill="black"/>
<path d="M140.73 494.16L111.13 503.16L106.42 496.75L123.7 470.95L126.63 474.95L111.12 497.86L110.7 495.74L113.57 499.64L111.57 498.51L137.82 490.33L140.73 494.16ZM130.15 493.69L125.9 494.93L118.62 485.16L121.05 481.43L130.15 493.69Z" fill="black"/>
</svg>
