<svg id="icons_Q2" data-name="icons Q2" xmlns="http://www.w3.org/2000/svg" width="34.797" height="34.901" viewBox="0 0 34.797 34.901">
  <path id="Trazado_51" data-name="Trazado 51" d="M30.88,27.41,44.054,14.36A2.61,2.61,0,0,0,44.3,11a2.361,2.361,0,0,0-3.729-.249L27.4,23.93,14.225,10.756A2.361,2.361,0,0,0,10.5,11a2.61,2.61,0,0,0,.249,3.356L23.92,27.41,10.745,40.46a2.61,2.61,0,0,0-.249,3.356,2.361,2.361,0,0,0,3.729.249L27.4,30.89,40.574,44.064a2.361,2.361,0,0,0,3.729-.249,2.61,2.61,0,0,0-.249-3.356Z" transform="translate(-10.001 -9.959)"/>
</svg>
