<svg id="icons_Q2" data-name="icons Q2" xmlns="http://www.w3.org/2000/svg" width="17.399" height="17.451" viewBox="0 0 17.399 17.451">
  <path id="Trazado_51" data-name="Trazado 51" d="M20.44,18.685l6.587-6.525a1.3,1.3,0,0,0,.124-1.678,1.181,1.181,0,0,0-1.864-.124L18.7,16.945l-6.587-6.587a1.181,1.181,0,0,0-1.864.124,1.3,1.3,0,0,0,.124,1.678l6.587,6.525L10.373,25.21a1.3,1.3,0,0,0-.124,1.678,1.181,1.181,0,0,0,1.864.124L18.7,20.425l6.587,6.587a1.181,1.181,0,0,0,1.864-.124,1.3,1.3,0,0,0-.124-1.678Z" transform="translate(-10.001 -9.959)" fill="#fff"/>
</svg>
