<svg id="icons_Q2" data-name="icons Q2" xmlns="http://www.w3.org/2000/svg" width="13.242" height="13.242" viewBox="0 0 13.242 13.242">
  <path id="Trazado_52" data-name="Trazado 52" d="M16.58,41.324H4.662a.662.662,0,1,1,0-1.324H16.58a.662.662,0,1,1,0,1.324Z" transform="translate(-4 -28.082)"/>
  <path id="Trazado_53" data-name="Trazado 53" d="M12.2,11.118,15.51,14.4a.629.629,0,0,0,.927,0l3.311-3.277a.7.7,0,0,0,.066-.894.629.629,0,0,0-.993-.066l-2.185,2.185V4.662a.662.662,0,0,0-1.324,0v7.68l-2.185-2.185a.629.629,0,0,0-.993.066A.7.7,0,0,0,12.2,11.118Z" transform="translate(-9.352 -4)"/>
</svg>
