<svg width="101" height="55" viewBox="0 0 101 55" fill="none" xmlns="http://www.w3.org/2000/svg">
<path d="M0.369995 27.5C0.369995 12.36 13.59 0.390015 27.93 0.390015C42.27 0.390015 55.5 12.39 55.5 27.5C55.5 42.61 42.28 54.6 27.93 54.6C13.58 54.6 0.369995 42.53 0.369995 27.5ZM45.37 27.5C45.37 17.17 37.12 9.09 27.97 9.09C18.82 9.09 10.58 17.17 10.58 27.5C10.58 37.83 18.82 45.91 27.97 45.91C37.12 45.91 45.33 37.72 45.33 27.5H45.37Z" fill="black"/>
<path d="M45.51 27.5C45.51 12.36 58.73 0.390015 73.07 0.390015C87.41 0.390015 100.64 12.39 100.64 27.5C100.64 42.61 87.42 54.6 73.07 54.6C58.72 54.6 45.51 42.53 45.51 27.5ZM90.51 27.5C90.51 17.17 82.26 9.09 73.11 9.09C63.96 9.09 55.73 17.16 55.73 27.5C55.73 37.84 63.97 45.91 73.12 45.91C82.27 45.91 90.47 37.72 90.47 27.5H90.51Z" fill="black"/>
</svg>
