<svg width="1081" height="4750" viewBox="0 0 1081 4750" fill="none" xmlns="http://www.w3.org/2000/svg">
<path d="M0.5 1V9105M40.5 1V9105M80.5 1V9105M120.5 1V9105M160.5 1V9105M200.5 1V9105M240.5 1V9105M280.5 1V9105M320.5 1V9105M360.5 1V9105M400.5 1V9105M440.5 1V9105M480.5 1V9105M520.5 1V9105M560.5 1V9105M600.5 1V9105M640.5 1V9105M680.5 1V9105M720.5 1V9105M760.5 1V9105M800.5 1V9105M840.5 1V9105M880.5 1V9105M920.5 1V9105M960.5 1V9105M1000.5 1V9105M1040.5 1V9105M1080.5 1V9105M1082 0.5H0M1082 40.5H0M1082 80.5H0M1082 120.5H0M1082 160.5H0M1082 200.5H0M1082 240.5H0M1082 280.5H0M1082 320.5H0M1082 360.5H0M1082 400.5H0M1082 440.5H0M1082 480.5H0M1082 520.5H0M1082 560.5H0M1082 600.5H0M1082 640.5H0M1082 680.5H0M1082 720.5H0M1082 760.5H0M1082 800.5H0M1082 840.5H0M1082 880.5H0M1082 920.5H0M1082 960.5H0M1082 1000.5H0M1082 1040.5H0M1082 1080.5H0M1082 1118.5H0M1082 1158.5H0M1082 1198.5H0M1082 1238.5H0M1082 1278.5H0M1082 1318.5H0M1082 1358.5H0M1082 1398.5H0M1082 1438.5H0M1082 1478.5H0M1082 1518.5H0M1082 1558.5H0M1082 1598.5H0M1082 1638.5H0M1082 1678.5H0M1082 1718.5H0M1082 1758.5H0M1082 1798.5H0M1082 1838.5H0M1082 1878.5H0M1082 1918.5H0M1082 1958.5H0M1082 1998.5H0M1082 2038.5H0M1082 2078.5H0M1082 2118.5H0M1082 2158.5H0M1082 2198.5H0M1082 2236.5H0M1082 2276.5H0M1082 2316.5H0M1082 2356.5H0M1082 2396.5H0M1082 2436.5H0M1082 2476.5H0M1082 2516.5H0M1082 2556.5H0M1082 2596.5H0M1082 2636.5H0M1082 2676.5H0M1082 2716.5H0M1082 2756.5H0M1082 2796.5H0M1082 2836.5H0M1082 2876.5H0M1082 2916.5H0M1082 2956.5H0M1082 2996.5H0M1082 3036.5H0M1082 3076.5H0M1082 3116.5H0M1082 3156.5H0M1082 3196.5H0M1082 3236.5H0M1082 3276.5H0M1082 3316.5H0M1082 3354.5H0M1082 3394.5H0M1082 3434.5H0M1082 3474.5H0M1082 3514.5H0M1082 3554.5H0M1082 3594.5H0M1082 3634.5H0M1082 3674.5H0M1082 3714.5H0M1082 3754.5H0M1082 3794.5H0M1082 3834.5H0M1082 3874.5H0M1082 3914.5H0M1082 3954.5H0M1082 3994.5H0M1082 4034.5H0M1082 4074.5H0M1082 4114.5H0M1082 4154.5H0M1082 4194.5H0M1082 4234.5H0M1082 4274.5H0M1082 4314.5H0M1082 4354.5H0M1082 4394.5H0M1082 4434.5H0M1082 4472.5H0M1082 4512.5H0M1082 4552.5H0M1082 4592.5H0M1082 4632.5H0M1082 4672.5H0M1082 4712.5H0M1082 4752.5H0M1082 4792.5H0M1082 4832.5H0M1082 4872.5H0M1082 4912.5H0M1082 4952.5H0M1082 4992.5H0M1082 5032.5H0M1082 5072.5H0M1082 5112.5H0M1082 5152.5H0M1082 5192.5H0M1082 5232.5H0M1082 5272.5H0M1082 5312.5H0M1082 5352.5H0M1082 5392.5H0M1082 5432.5H0M1082 5472.5H0M1082 5512.5H0M1082 5552.5H0" stroke="white"/>
</svg>
