<svg xmlns="http://www.w3.org/2000/svg" width="12.111" height="11.297" viewBox="0 0 12.111 11.297">
<path d="M5.04999 0.241958L0.249994 5.08396C0.171737 5.1558 0.109257 5.24313 0.0665168 5.34038C0.0237767 5.43764 0.00170898 5.54272 0.00170898 5.64896C0.00170899 5.75519 0.0237767 5.86027 0.0665169 5.95753C0.109257 6.05479 0.171737 6.14211 0.249994 6.21396L5.04999 11.056C5.19279 11.1958 5.38042 11.2806 5.5797 11.2954C5.77898 11.3102 5.97709 11.2541 6.13899 11.137C6.23611 11.0716 6.31699 10.9849 6.37542 10.8835C6.43386 10.7821 6.46831 10.6686 6.47613 10.5518C6.48394 10.435 6.46493 10.318 6.42053 10.2097C6.37613 10.1014 6.30754 10.0047 6.22 9.92696L2.74999 6.45696L11.304 6.45696C11.518 6.45696 11.7233 6.37193 11.8746 6.22059C12.026 6.06925 12.111 5.86399 12.111 5.64996C12.111 5.43593 12.026 5.23066 11.8746 5.07932C11.7233 4.92798 11.518 4.84296 11.304 4.84296L2.74999 4.84296L6.21999 1.37296C6.30754 1.29525 6.37613 1.19854 6.42053 1.09023C6.46493 0.981926 6.48394 0.864895 6.47612 0.748102C6.46831 0.631309 6.43386 0.517854 6.37542 0.416429C6.31699 0.315005 6.23611 0.2283 6.13899 0.162958C5.97709 0.045825 5.77898 -0.0102911 5.5797 0.00453163C5.38041 0.0193544 5.19279 0.104161 5.04999 0.243957V0.241958Z" fill="black"/>
</svg>
